<?xml version="1.0" encoding="utf-8" standalone="no"?>
<!DOCTYPE svg PUBLIC "-//W3C//DTD SVG 1.1//EN"
  "http://www.w3.org/Graphics/SVG/1.1/DTD/svg11.dtd">
<!-- Created with matplotlib (http://matplotlib.org/) -->
<svg height="265.69625pt" version="1.1" viewBox="0 0 403.028125 265.69625" width="403.028125pt" xmlns="http://www.w3.org/2000/svg" xmlns:xlink="http://www.w3.org/1999/xlink">
 <defs>
  <style type="text/css">
*{stroke-linecap:butt;stroke-linejoin:round;}
  </style>
 </defs>
 <g id="figure_1">
  <g id="patch_1">
   <path d="M 0 265.69625 
L 403.028125 265.69625 
L 403.028125 0 
L 0 0 
z
" style="fill:#ffffff;"/>
  </g>
  <g id="axes_1">
   <g id="patch_2">
    <path d="M 57.528125 228.14 
L 392.328125 228.14 
L 392.328125 10.7 
L 57.528125 10.7 
z
" style="fill:#ffffff;"/>
   </g>
   <g id="PolyCollection_1">
    <path clip-path="url(#p1da9d66dc7)" d="M 72.746307 212.829793 
L 72.746307 218.256364 
L 75.820687 216.259669 
L 78.895067 214.262975 
L 81.969447 212.266281 
L 85.043827 210.269587 
L 88.118208 208.272893 
L 91.192588 206.276198 
L 94.266968 204.279504 
L 97.341348 202.28281 
L 100.415728 200.286116 
L 103.490108 198.289421 
L 106.564489 196.292727 
L 109.638869 194.296033 
L 112.713249 192.299339 
L 115.787629 190.302645 
L 118.862009 188.30595 
L 121.936389 186.309256 
L 125.01077 184.312562 
L 128.08515 182.315868 
L 131.15953 180.319174 
L 134.23391 178.322479 
L 137.30829 176.325785 
L 140.38267 174.329091 
L 143.457051 172.332397 
L 146.531431 170.335702 
L 149.605811 168.339008 
L 152.680191 166.342314 
L 155.754571 164.34562 
L 158.828951 162.348926 
L 161.903332 160.352231 
L 164.977712 158.355537 
L 168.052092 156.358843 
L 171.126472 154.362149 
L 174.200852 152.365455 
L 177.275232 150.36876 
L 180.349613 148.372066 
L 183.423993 146.375372 
L 186.498373 144.378678 
L 189.572753 142.381983 
L 192.647133 140.385289 
L 195.721513 138.388595 
L 198.795894 136.391901 
L 201.870274 134.395207 
L 204.944654 132.398512 
L 208.019034 130.401818 
L 211.093414 128.405124 
L 214.167794 126.40843 
L 217.242175 124.411736 
L 220.316555 122.415041 
L 223.390935 120.418347 
L 226.465315 118.421653 
L 229.539695 116.424959 
L 232.614075 114.428264 
L 235.688456 112.43157 
L 238.762836 110.434876 
L 241.837216 108.438182 
L 244.911596 106.441488 
L 247.985976 104.444793 
L 251.060356 102.448099 
L 254.134737 100.451405 
L 257.209117 98.454711 
L 260.283497 96.458017 
L 263.357877 94.461322 
L 266.432257 92.464628 
L 269.506637 90.467934 
L 272.581018 88.47124 
L 275.655398 86.474545 
L 278.729778 84.477851 
L 281.804158 82.481157 
L 284.878538 80.484463 
L 287.952918 78.487769 
L 291.027299 76.491074 
L 294.101679 74.49438 
L 297.176059 72.497686 
L 300.250439 70.500992 
L 303.324819 68.504298 
L 306.399199 66.507603 
L 309.47358 64.510909 
L 312.54796 62.514215 
L 315.62234 60.517521 
L 318.69672 58.520826 
L 321.7711 56.524132 
L 324.84548 54.527438 
L 327.919861 52.530744 
L 330.994241 50.53405 
L 334.068621 48.537355 
L 337.143001 46.540661 
L 340.217381 44.543967 
L 343.291761 42.547273 
L 346.366142 40.550579 
L 349.440522 38.553884 
L 352.514902 36.55719 
L 355.589282 34.560496 
L 358.663662 32.563802 
L 361.738042 30.567107 
L 364.812423 28.570413 
L 367.886803 26.573719 
L 370.961183 24.577025 
L 374.035563 22.580331 
L 377.109943 20.583636 
L 377.109943 28.506819 
L 377.109943 28.506819 
L 374.035563 30.368667 
L 370.961183 32.230515 
L 367.886803 34.092364 
L 364.812423 35.954212 
L 361.738042 37.81606 
L 358.663662 39.677908 
L 355.589282 41.539756 
L 352.514902 43.401605 
L 349.440522 45.263453 
L 346.366142 47.125301 
L 343.291761 48.987149 
L 340.217381 50.848998 
L 337.143001 52.710846 
L 334.068621 54.572694 
L 330.994241 56.434542 
L 327.919861 58.29639 
L 324.84548 60.158239 
L 321.7711 62.020087 
L 318.69672 63.881935 
L 315.62234 65.743783 
L 312.54796 67.605632 
L 309.47358 69.46748 
L 306.399199 71.329328 
L 303.324819 73.191176 
L 300.250439 75.053024 
L 297.176059 76.914873 
L 294.101679 78.776721 
L 291.027299 80.638569 
L 287.952918 82.500417 
L 284.878538 84.362266 
L 281.804158 86.224114 
L 278.729778 88.085962 
L 275.655398 89.94781 
L 272.581018 91.809658 
L 269.506637 93.671507 
L 266.432257 95.533355 
L 263.357877 97.395203 
L 260.283497 99.257051 
L 257.209117 101.1189 
L 254.134737 102.980748 
L 251.060356 104.842596 
L 247.985976 106.704444 
L 244.911596 108.566292 
L 241.837216 110.428141 
L 238.762836 112.289989 
L 235.688456 114.151837 
L 232.614075 116.013685 
L 229.539695 117.875534 
L 226.465315 119.737382 
L 223.390935 121.59923 
L 220.316555 123.461078 
L 217.242175 125.322926 
L 214.167794 127.184775 
L 211.093414 129.046623 
L 208.019034 130.908471 
L 204.944654 132.770319 
L 201.870274 134.632167 
L 198.795894 136.494016 
L 195.721513 138.355864 
L 192.647133 140.217712 
L 189.572753 142.07956 
L 186.498373 143.941409 
L 183.423993 145.803257 
L 180.349613 147.665105 
L 177.275232 149.526953 
L 174.200852 151.388801 
L 171.126472 153.25065 
L 168.052092 155.112498 
L 164.977712 156.974346 
L 161.903332 158.836194 
L 158.828951 160.698043 
L 155.754571 162.559891 
L 152.680191 164.421739 
L 149.605811 166.283587 
L 146.531431 168.145435 
L 143.457051 170.007284 
L 140.38267 171.869132 
L 137.30829 173.73098 
L 134.23391 175.592828 
L 131.15953 177.454677 
L 128.08515 179.316525 
L 125.01077 181.178373 
L 121.936389 183.040221 
L 118.862009 184.902069 
L 115.787629 186.763918 
L 112.713249 188.625766 
L 109.638869 190.487614 
L 106.564489 192.349462 
L 103.490108 194.211311 
L 100.415728 196.073159 
L 97.341348 197.935007 
L 94.266968 199.796855 
L 91.192588 201.658703 
L 88.118208 203.520552 
L 85.043827 205.3824 
L 81.969447 207.244248 
L 78.895067 209.106096 
L 75.820687 210.967945 
L 72.746307 212.829793 
z
" style="fill:#1f77b4;fill-opacity:0.25;"/>
   </g>
   <g id="matplotlib.axis_1">
    <g id="xtick_1">
     <g id="line2d_1">
      <defs>
       <path d="M 0 0 
L 0 3.5 
" id="mc0c571080c" style="stroke:#000000;stroke-width:0.8;"/>
      </defs>
      <g>
       <use style="stroke:#000000;stroke-width:0.8;" x="77.144042" xlink:href="#mc0c571080c" y="228.14"/>
      </g>
     </g>
     <g id="text_1">
      <!-- 83 -->
      <defs>
       <path d="M 31.78125 34.625 
Q 24.75 34.625 20.71875 30.859375 
Q 16.703125 27.09375 16.703125 20.515625 
Q 16.703125 13.921875 20.71875 10.15625 
Q 24.75 6.390625 31.78125 6.390625 
Q 38.8125 6.390625 42.859375 10.171875 
Q 46.921875 13.96875 46.921875 20.515625 
Q 46.921875 27.09375 42.890625 30.859375 
Q 38.875 34.625 31.78125 34.625 
z
M 21.921875 38.8125 
Q 15.578125 40.375 12.03125 44.71875 
Q 8.5 49.078125 8.5 55.328125 
Q 8.5 64.0625 14.71875 69.140625 
Q 20.953125 74.21875 31.78125 74.21875 
Q 42.671875 74.21875 48.875 69.140625 
Q 55.078125 64.0625 55.078125 55.328125 
Q 55.078125 49.078125 51.53125 44.71875 
Q 48 40.375 41.703125 38.8125 
Q 48.828125 37.15625 52.796875 32.3125 
Q 56.78125 27.484375 56.78125 20.515625 
Q 56.78125 9.90625 50.3125 4.234375 
Q 43.84375 -1.421875 31.78125 -1.421875 
Q 19.734375 -1.421875 13.25 4.234375 
Q 6.78125 9.90625 6.78125 20.515625 
Q 6.78125 27.484375 10.78125 32.3125 
Q 14.796875 37.15625 21.921875 38.8125 
z
M 18.3125 54.390625 
Q 18.3125 48.734375 21.84375 45.5625 
Q 25.390625 42.390625 31.78125 42.390625 
Q 38.140625 42.390625 41.71875 45.5625 
Q 45.3125 48.734375 45.3125 54.390625 
Q 45.3125 60.0625 41.71875 63.234375 
Q 38.140625 66.40625 31.78125 66.40625 
Q 25.390625 66.40625 21.84375 63.234375 
Q 18.3125 60.0625 18.3125 54.390625 
z
" id="DejaVuSans-38"/>
       <path d="M 40.578125 39.3125 
Q 47.65625 37.796875 51.625 33 
Q 55.609375 28.21875 55.609375 21.1875 
Q 55.609375 10.40625 48.1875 4.484375 
Q 40.765625 -1.421875 27.09375 -1.421875 
Q 22.515625 -1.421875 17.65625 -0.515625 
Q 12.796875 0.390625 7.625 2.203125 
L 7.625 11.71875 
Q 11.71875 9.328125 16.59375 8.109375 
Q 21.484375 6.890625 26.8125 6.890625 
Q 36.078125 6.890625 40.9375 10.546875 
Q 45.796875 14.203125 45.796875 21.1875 
Q 45.796875 27.640625 41.28125 31.265625 
Q 36.765625 34.90625 28.71875 34.90625 
L 20.21875 34.90625 
L 20.21875 43.015625 
L 29.109375 43.015625 
Q 36.375 43.015625 40.234375 45.921875 
Q 44.09375 48.828125 44.09375 54.296875 
Q 44.09375 59.90625 40.109375 62.90625 
Q 36.140625 65.921875 28.71875 65.921875 
Q 24.65625 65.921875 20.015625 65.03125 
Q 15.375 64.15625 9.8125 62.3125 
L 9.8125 71.09375 
Q 15.4375 72.65625 20.34375 73.4375 
Q 25.25 74.21875 29.59375 74.21875 
Q 40.828125 74.21875 47.359375 69.109375 
Q 53.90625 64.015625 53.90625 55.328125 
Q 53.90625 49.265625 50.4375 45.09375 
Q 46.96875 40.921875 40.578125 39.3125 
z
" id="DejaVuSans-33"/>
      </defs>
      <g transform="translate(70.781542 242.738437)scale(0.1 -0.1)">
       <use xlink:href="#DejaVuSans-38"/>
       <use x="63.623047" xlink:href="#DejaVuSans-33"/>
      </g>
     </g>
    </g>
    <g id="xtick_2">
     <g id="line2d_2">
      <g>
       <use style="stroke:#000000;stroke-width:0.8;" x="127.937402" xlink:href="#mc0c571080c" y="228.14"/>
      </g>
     </g>
     <g id="text_2">
      <!-- 84 -->
      <defs>
       <path d="M 37.796875 64.3125 
L 12.890625 25.390625 
L 37.796875 25.390625 
z
M 35.203125 72.90625 
L 47.609375 72.90625 
L 47.609375 25.390625 
L 58.015625 25.390625 
L 58.015625 17.1875 
L 47.609375 17.1875 
L 47.609375 0 
L 37.796875 0 
L 37.796875 17.1875 
L 4.890625 17.1875 
L 4.890625 26.703125 
z
" id="DejaVuSans-34"/>
      </defs>
      <g transform="translate(121.574902 242.738437)scale(0.1 -0.1)">
       <use xlink:href="#DejaVuSans-38"/>
       <use x="63.623047" xlink:href="#DejaVuSans-34"/>
      </g>
     </g>
    </g>
    <g id="xtick_3">
     <g id="line2d_3">
      <g>
       <use style="stroke:#000000;stroke-width:0.8;" x="178.730762" xlink:href="#mc0c571080c" y="228.14"/>
      </g>
     </g>
     <g id="text_3">
      <!-- 85 -->
      <defs>
       <path d="M 10.796875 72.90625 
L 49.515625 72.90625 
L 49.515625 64.59375 
L 19.828125 64.59375 
L 19.828125 46.734375 
Q 21.96875 47.46875 24.109375 47.828125 
Q 26.265625 48.1875 28.421875 48.1875 
Q 40.625 48.1875 47.75 41.5 
Q 54.890625 34.8125 54.890625 23.390625 
Q 54.890625 11.625 47.5625 5.09375 
Q 40.234375 -1.421875 26.90625 -1.421875 
Q 22.3125 -1.421875 17.546875 -0.640625 
Q 12.796875 0.140625 7.71875 1.703125 
L 7.71875 11.625 
Q 12.109375 9.234375 16.796875 8.0625 
Q 21.484375 6.890625 26.703125 6.890625 
Q 35.15625 6.890625 40.078125 11.328125 
Q 45.015625 15.765625 45.015625 23.390625 
Q 45.015625 31 40.078125 35.4375 
Q 35.15625 39.890625 26.703125 39.890625 
Q 22.75 39.890625 18.8125 39.015625 
Q 14.890625 38.140625 10.796875 36.28125 
z
" id="DejaVuSans-35"/>
      </defs>
      <g transform="translate(172.368262 242.738437)scale(0.1 -0.1)">
       <use xlink:href="#DejaVuSans-38"/>
       <use x="63.623047" xlink:href="#DejaVuSans-35"/>
      </g>
     </g>
    </g>
    <g id="xtick_4">
     <g id="line2d_4">
      <g>
       <use style="stroke:#000000;stroke-width:0.8;" x="229.524122" xlink:href="#mc0c571080c" y="228.14"/>
      </g>
     </g>
     <g id="text_4">
      <!-- 86 -->
      <defs>
       <path d="M 33.015625 40.375 
Q 26.375 40.375 22.484375 35.828125 
Q 18.609375 31.296875 18.609375 23.390625 
Q 18.609375 15.53125 22.484375 10.953125 
Q 26.375 6.390625 33.015625 6.390625 
Q 39.65625 6.390625 43.53125 10.953125 
Q 47.40625 15.53125 47.40625 23.390625 
Q 47.40625 31.296875 43.53125 35.828125 
Q 39.65625 40.375 33.015625 40.375 
z
M 52.59375 71.296875 
L 52.59375 62.3125 
Q 48.875 64.0625 45.09375 64.984375 
Q 41.3125 65.921875 37.59375 65.921875 
Q 27.828125 65.921875 22.671875 59.328125 
Q 17.53125 52.734375 16.796875 39.40625 
Q 19.671875 43.65625 24.015625 45.921875 
Q 28.375 48.1875 33.59375 48.1875 
Q 44.578125 48.1875 50.953125 41.515625 
Q 57.328125 34.859375 57.328125 23.390625 
Q 57.328125 12.15625 50.6875 5.359375 
Q 44.046875 -1.421875 33.015625 -1.421875 
Q 20.359375 -1.421875 13.671875 8.265625 
Q 6.984375 17.96875 6.984375 36.375 
Q 6.984375 53.65625 15.1875 63.9375 
Q 23.390625 74.21875 37.203125 74.21875 
Q 40.921875 74.21875 44.703125 73.484375 
Q 48.484375 72.75 52.59375 71.296875 
z
" id="DejaVuSans-36"/>
      </defs>
      <g transform="translate(223.161622 242.738437)scale(0.1 -0.1)">
       <use xlink:href="#DejaVuSans-38"/>
       <use x="63.623047" xlink:href="#DejaVuSans-36"/>
      </g>
     </g>
    </g>
    <g id="xtick_5">
     <g id="line2d_5">
      <g>
       <use style="stroke:#000000;stroke-width:0.8;" x="280.317482" xlink:href="#mc0c571080c" y="228.14"/>
      </g>
     </g>
     <g id="text_5">
      <!-- 87 -->
      <defs>
       <path d="M 8.203125 72.90625 
L 55.078125 72.90625 
L 55.078125 68.703125 
L 28.609375 0 
L 18.3125 0 
L 43.21875 64.59375 
L 8.203125 64.59375 
z
" id="DejaVuSans-37"/>
      </defs>
      <g transform="translate(273.954982 242.738437)scale(0.1 -0.1)">
       <use xlink:href="#DejaVuSans-38"/>
       <use x="63.623047" xlink:href="#DejaVuSans-37"/>
      </g>
     </g>
    </g>
    <g id="xtick_6">
     <g id="line2d_6">
      <g>
       <use style="stroke:#000000;stroke-width:0.8;" x="331.110841" xlink:href="#mc0c571080c" y="228.14"/>
      </g>
     </g>
     <g id="text_6">
      <!-- 88 -->
      <g transform="translate(324.748341 242.738437)scale(0.1 -0.1)">
       <use xlink:href="#DejaVuSans-38"/>
       <use x="63.623047" xlink:href="#DejaVuSans-38"/>
      </g>
     </g>
    </g>
    <g id="xtick_7">
     <g id="line2d_7">
      <g>
       <use style="stroke:#000000;stroke-width:0.8;" x="381.904201" xlink:href="#mc0c571080c" y="228.14"/>
      </g>
     </g>
     <g id="text_7">
      <!-- 89 -->
      <defs>
       <path d="M 10.984375 1.515625 
L 10.984375 10.5 
Q 14.703125 8.734375 18.5 7.8125 
Q 22.3125 6.890625 25.984375 6.890625 
Q 35.75 6.890625 40.890625 13.453125 
Q 46.046875 20.015625 46.78125 33.40625 
Q 43.953125 29.203125 39.59375 26.953125 
Q 35.25 24.703125 29.984375 24.703125 
Q 19.046875 24.703125 12.671875 31.3125 
Q 6.296875 37.9375 6.296875 49.421875 
Q 6.296875 60.640625 12.9375 67.421875 
Q 19.578125 74.21875 30.609375 74.21875 
Q 43.265625 74.21875 49.921875 64.515625 
Q 56.59375 54.828125 56.59375 36.375 
Q 56.59375 19.140625 48.40625 8.859375 
Q 40.234375 -1.421875 26.421875 -1.421875 
Q 22.703125 -1.421875 18.890625 -0.6875 
Q 15.09375 0.046875 10.984375 1.515625 
z
M 30.609375 32.421875 
Q 37.25 32.421875 41.125 36.953125 
Q 45.015625 41.5 45.015625 49.421875 
Q 45.015625 57.28125 41.125 61.84375 
Q 37.25 66.40625 30.609375 66.40625 
Q 23.96875 66.40625 20.09375 61.84375 
Q 16.21875 57.28125 16.21875 49.421875 
Q 16.21875 41.5 20.09375 36.953125 
Q 23.96875 32.421875 30.609375 32.421875 
z
" id="DejaVuSans-39"/>
      </defs>
      <g transform="translate(375.541701 242.738437)scale(0.1 -0.1)">
       <use xlink:href="#DejaVuSans-38"/>
       <use x="63.623047" xlink:href="#DejaVuSans-39"/>
      </g>
     </g>
    </g>
    <g id="text_8">
     <!-- Atomic mass [u] -->
     <defs>
      <path d="M 34.1875 63.1875 
L 20.796875 26.90625 
L 47.609375 26.90625 
z
M 28.609375 72.90625 
L 39.796875 72.90625 
L 67.578125 0 
L 57.328125 0 
L 50.6875 18.703125 
L 17.828125 18.703125 
L 11.1875 0 
L 0.78125 0 
z
" id="DejaVuSans-41"/>
      <path d="M 18.3125 70.21875 
L 18.3125 54.6875 
L 36.8125 54.6875 
L 36.8125 47.703125 
L 18.3125 47.703125 
L 18.3125 18.015625 
Q 18.3125 11.328125 20.140625 9.421875 
Q 21.96875 7.515625 27.59375 7.515625 
L 36.8125 7.515625 
L 36.8125 0 
L 27.59375 0 
Q 17.1875 0 13.234375 3.875 
Q 9.28125 7.765625 9.28125 18.015625 
L 9.28125 47.703125 
L 2.6875 47.703125 
L 2.6875 54.6875 
L 9.28125 54.6875 
L 9.28125 70.21875 
z
" id="DejaVuSans-74"/>
      <path d="M 30.609375 48.390625 
Q 23.390625 48.390625 19.1875 42.75 
Q 14.984375 37.109375 14.984375 27.296875 
Q 14.984375 17.484375 19.15625 11.84375 
Q 23.34375 6.203125 30.609375 6.203125 
Q 37.796875 6.203125 41.984375 11.859375 
Q 46.1875 17.53125 46.1875 27.296875 
Q 46.1875 37.015625 41.984375 42.703125 
Q 37.796875 48.390625 30.609375 48.390625 
z
M 30.609375 56 
Q 42.328125 56 49.015625 48.375 
Q 55.71875 40.765625 55.71875 27.296875 
Q 55.71875 13.875 49.015625 6.21875 
Q 42.328125 -1.421875 30.609375 -1.421875 
Q 18.84375 -1.421875 12.171875 6.21875 
Q 5.515625 13.875 5.515625 27.296875 
Q 5.515625 40.765625 12.171875 48.375 
Q 18.84375 56 30.609375 56 
z
" id="DejaVuSans-6f"/>
      <path d="M 52 44.1875 
Q 55.375 50.25 60.0625 53.125 
Q 64.75 56 71.09375 56 
Q 79.640625 56 84.28125 50.015625 
Q 88.921875 44.046875 88.921875 33.015625 
L 88.921875 0 
L 79.890625 0 
L 79.890625 32.71875 
Q 79.890625 40.578125 77.09375 44.375 
Q 74.3125 48.1875 68.609375 48.1875 
Q 61.625 48.1875 57.5625 43.546875 
Q 53.515625 38.921875 53.515625 30.90625 
L 53.515625 0 
L 44.484375 0 
L 44.484375 32.71875 
Q 44.484375 40.625 41.703125 44.40625 
Q 38.921875 48.1875 33.109375 48.1875 
Q 26.21875 48.1875 22.15625 43.53125 
Q 18.109375 38.875 18.109375 30.90625 
L 18.109375 0 
L 9.078125 0 
L 9.078125 54.6875 
L 18.109375 54.6875 
L 18.109375 46.1875 
Q 21.1875 51.21875 25.484375 53.609375 
Q 29.78125 56 35.6875 56 
Q 41.65625 56 45.828125 52.96875 
Q 50 49.953125 52 44.1875 
z
" id="DejaVuSans-6d"/>
      <path d="M 9.421875 54.6875 
L 18.40625 54.6875 
L 18.40625 0 
L 9.421875 0 
z
M 9.421875 75.984375 
L 18.40625 75.984375 
L 18.40625 64.59375 
L 9.421875 64.59375 
z
" id="DejaVuSans-69"/>
      <path d="M 48.78125 52.59375 
L 48.78125 44.1875 
Q 44.96875 46.296875 41.140625 47.34375 
Q 37.3125 48.390625 33.40625 48.390625 
Q 24.65625 48.390625 19.8125 42.84375 
Q 14.984375 37.3125 14.984375 27.296875 
Q 14.984375 17.28125 19.8125 11.734375 
Q 24.65625 6.203125 33.40625 6.203125 
Q 37.3125 6.203125 41.140625 7.25 
Q 44.96875 8.296875 48.78125 10.40625 
L 48.78125 2.09375 
Q 45.015625 0.34375 40.984375 -0.53125 
Q 36.96875 -1.421875 32.421875 -1.421875 
Q 20.0625 -1.421875 12.78125 6.34375 
Q 5.515625 14.109375 5.515625 27.296875 
Q 5.515625 40.671875 12.859375 48.328125 
Q 20.21875 56 33.015625 56 
Q 37.15625 56 41.109375 55.140625 
Q 45.0625 54.296875 48.78125 52.59375 
z
" id="DejaVuSans-63"/>
      <path id="DejaVuSans-20"/>
      <path d="M 34.28125 27.484375 
Q 23.390625 27.484375 19.1875 25 
Q 14.984375 22.515625 14.984375 16.5 
Q 14.984375 11.71875 18.140625 8.90625 
Q 21.296875 6.109375 26.703125 6.109375 
Q 34.1875 6.109375 38.703125 11.40625 
Q 43.21875 16.703125 43.21875 25.484375 
L 43.21875 27.484375 
z
M 52.203125 31.203125 
L 52.203125 0 
L 43.21875 0 
L 43.21875 8.296875 
Q 40.140625 3.328125 35.546875 0.953125 
Q 30.953125 -1.421875 24.3125 -1.421875 
Q 15.921875 -1.421875 10.953125 3.296875 
Q 6 8.015625 6 15.921875 
Q 6 25.140625 12.171875 29.828125 
Q 18.359375 34.515625 30.609375 34.515625 
L 43.21875 34.515625 
L 43.21875 35.40625 
Q 43.21875 41.609375 39.140625 45 
Q 35.0625 48.390625 27.6875 48.390625 
Q 23 48.390625 18.546875 47.265625 
Q 14.109375 46.140625 10.015625 43.890625 
L 10.015625 52.203125 
Q 14.9375 54.109375 19.578125 55.046875 
Q 24.21875 56 28.609375 56 
Q 40.484375 56 46.34375 49.84375 
Q 52.203125 43.703125 52.203125 31.203125 
z
" id="DejaVuSans-61"/>
      <path d="M 44.28125 53.078125 
L 44.28125 44.578125 
Q 40.484375 46.53125 36.375 47.5 
Q 32.28125 48.484375 27.875 48.484375 
Q 21.1875 48.484375 17.84375 46.4375 
Q 14.5 44.390625 14.5 40.28125 
Q 14.5 37.15625 16.890625 35.375 
Q 19.28125 33.59375 26.515625 31.984375 
L 29.59375 31.296875 
Q 39.15625 29.25 43.1875 25.515625 
Q 47.21875 21.78125 47.21875 15.09375 
Q 47.21875 7.46875 41.1875 3.015625 
Q 35.15625 -1.421875 24.609375 -1.421875 
Q 20.21875 -1.421875 15.453125 -0.5625 
Q 10.6875 0.296875 5.421875 2 
L 5.421875 11.28125 
Q 10.40625 8.6875 15.234375 7.390625 
Q 20.0625 6.109375 24.8125 6.109375 
Q 31.15625 6.109375 34.5625 8.28125 
Q 37.984375 10.453125 37.984375 14.40625 
Q 37.984375 18.0625 35.515625 20.015625 
Q 33.0625 21.96875 24.703125 23.78125 
L 21.578125 24.515625 
Q 13.234375 26.265625 9.515625 29.90625 
Q 5.8125 33.546875 5.8125 39.890625 
Q 5.8125 47.609375 11.28125 51.796875 
Q 16.75 56 26.8125 56 
Q 31.78125 56 36.171875 55.265625 
Q 40.578125 54.546875 44.28125 53.078125 
z
" id="DejaVuSans-73"/>
      <path d="M 8.59375 75.984375 
L 29.296875 75.984375 
L 29.296875 69 
L 17.578125 69 
L 17.578125 -6.203125 
L 29.296875 -6.203125 
L 29.296875 -13.1875 
L 8.59375 -13.1875 
z
" id="DejaVuSans-5b"/>
      <path d="M 8.5 21.578125 
L 8.5 54.6875 
L 17.484375 54.6875 
L 17.484375 21.921875 
Q 17.484375 14.15625 20.5 10.265625 
Q 23.53125 6.390625 29.59375 6.390625 
Q 36.859375 6.390625 41.078125 11.03125 
Q 45.3125 15.671875 45.3125 23.6875 
L 45.3125 54.6875 
L 54.296875 54.6875 
L 54.296875 0 
L 45.3125 0 
L 45.3125 8.40625 
Q 42.046875 3.421875 37.71875 1 
Q 33.40625 -1.421875 27.6875 -1.421875 
Q 18.265625 -1.421875 13.375 4.4375 
Q 8.5 10.296875 8.5 21.578125 
z
M 31.109375 56 
z
" id="DejaVuSans-75"/>
      <path d="M 30.421875 75.984375 
L 30.421875 -13.1875 
L 9.71875 -13.1875 
L 9.71875 -6.203125 
L 21.390625 -6.203125 
L 21.390625 69 
L 9.71875 69 
L 9.71875 75.984375 
z
" id="DejaVuSans-5d"/>
     </defs>
     <g transform="translate(184.088281 256.416562)scale(0.1 -0.1)">
      <use xlink:href="#DejaVuSans-41"/>
      <use x="68.392578" xlink:href="#DejaVuSans-74"/>
      <use x="107.601562" xlink:href="#DejaVuSans-6f"/>
      <use x="168.783203" xlink:href="#DejaVuSans-6d"/>
      <use x="266.195312" xlink:href="#DejaVuSans-69"/>
      <use x="293.978516" xlink:href="#DejaVuSans-63"/>
      <use x="348.958984" xlink:href="#DejaVuSans-20"/>
      <use x="380.746094" xlink:href="#DejaVuSans-6d"/>
      <use x="478.158203" xlink:href="#DejaVuSans-61"/>
      <use x="539.4375" xlink:href="#DejaVuSans-73"/>
      <use x="591.537109" xlink:href="#DejaVuSans-73"/>
      <use x="643.636719" xlink:href="#DejaVuSans-20"/>
      <use x="675.423828" xlink:href="#DejaVuSans-5b"/>
      <use x="714.4375" xlink:href="#DejaVuSans-75"/>
      <use x="777.816406" xlink:href="#DejaVuSans-5d"/>
     </g>
    </g>
   </g>
   <g id="matplotlib.axis_2">
    <g id="ytick_1">
     <g id="line2d_8">
      <defs>
       <path d="M 0 0 
L -3.5 0 
" id="mf701107abe" style="stroke:#000000;stroke-width:0.8;"/>
      </defs>
      <g>
       <use style="stroke:#000000;stroke-width:0.8;" x="57.528125" xlink:href="#mf701107abe" y="213.135272"/>
      </g>
     </g>
     <g id="text_9">
      <!-- 0.180 -->
      <defs>
       <path d="M 31.78125 66.40625 
Q 24.171875 66.40625 20.328125 58.90625 
Q 16.5 51.421875 16.5 36.375 
Q 16.5 21.390625 20.328125 13.890625 
Q 24.171875 6.390625 31.78125 6.390625 
Q 39.453125 6.390625 43.28125 13.890625 
Q 47.125 21.390625 47.125 36.375 
Q 47.125 51.421875 43.28125 58.90625 
Q 39.453125 66.40625 31.78125 66.40625 
z
M 31.78125 74.21875 
Q 44.046875 74.21875 50.515625 64.515625 
Q 56.984375 54.828125 56.984375 36.375 
Q 56.984375 17.96875 50.515625 8.265625 
Q 44.046875 -1.421875 31.78125 -1.421875 
Q 19.53125 -1.421875 13.0625 8.265625 
Q 6.59375 17.96875 6.59375 36.375 
Q 6.59375 54.828125 13.0625 64.515625 
Q 19.53125 74.21875 31.78125 74.21875 
z
" id="DejaVuSans-30"/>
       <path d="M 10.6875 12.40625 
L 21 12.40625 
L 21 0 
L 10.6875 0 
z
" id="DejaVuSans-2e"/>
       <path d="M 12.40625 8.296875 
L 28.515625 8.296875 
L 28.515625 63.921875 
L 10.984375 60.40625 
L 10.984375 69.390625 
L 28.421875 72.90625 
L 38.28125 72.90625 
L 38.28125 8.296875 
L 54.390625 8.296875 
L 54.390625 0 
L 12.40625 0 
z
" id="DejaVuSans-31"/>
      </defs>
      <g transform="translate(21.9 216.934491)scale(0.1 -0.1)">
       <use xlink:href="#DejaVuSans-30"/>
       <use x="63.623047" xlink:href="#DejaVuSans-2e"/>
       <use x="95.410156" xlink:href="#DejaVuSans-31"/>
       <use x="159.033203" xlink:href="#DejaVuSans-38"/>
       <use x="222.65625" xlink:href="#DejaVuSans-30"/>
      </g>
     </g>
    </g>
    <g id="ytick_2">
     <g id="line2d_9">
      <g>
       <use style="stroke:#000000;stroke-width:0.8;" x="57.528125" xlink:href="#mf701107abe" y="170.434168"/>
      </g>
     </g>
     <g id="text_10">
      <!-- 0.185 -->
      <g transform="translate(21.9 174.233386)scale(0.1 -0.1)">
       <use xlink:href="#DejaVuSans-30"/>
       <use x="63.623047" xlink:href="#DejaVuSans-2e"/>
       <use x="95.410156" xlink:href="#DejaVuSans-31"/>
       <use x="159.033203" xlink:href="#DejaVuSans-38"/>
       <use x="222.65625" xlink:href="#DejaVuSans-35"/>
      </g>
     </g>
    </g>
    <g id="ytick_3">
     <g id="line2d_10">
      <g>
       <use style="stroke:#000000;stroke-width:0.8;" x="57.528125" xlink:href="#mf701107abe" y="127.733063"/>
      </g>
     </g>
     <g id="text_11">
      <!-- 0.190 -->
      <g transform="translate(21.9 131.532282)scale(0.1 -0.1)">
       <use xlink:href="#DejaVuSans-30"/>
       <use x="63.623047" xlink:href="#DejaVuSans-2e"/>
       <use x="95.410156" xlink:href="#DejaVuSans-31"/>
       <use x="159.033203" xlink:href="#DejaVuSans-39"/>
       <use x="222.65625" xlink:href="#DejaVuSans-30"/>
      </g>
     </g>
    </g>
    <g id="ytick_4">
     <g id="line2d_11">
      <g>
       <use style="stroke:#000000;stroke-width:0.8;" x="57.528125" xlink:href="#mf701107abe" y="85.031959"/>
      </g>
     </g>
     <g id="text_12">
      <!-- 0.195 -->
      <g transform="translate(21.9 88.831177)scale(0.1 -0.1)">
       <use xlink:href="#DejaVuSans-30"/>
       <use x="63.623047" xlink:href="#DejaVuSans-2e"/>
       <use x="95.410156" xlink:href="#DejaVuSans-31"/>
       <use x="159.033203" xlink:href="#DejaVuSans-39"/>
       <use x="222.65625" xlink:href="#DejaVuSans-35"/>
      </g>
     </g>
    </g>
    <g id="ytick_5">
     <g id="line2d_12">
      <g>
       <use style="stroke:#000000;stroke-width:0.8;" x="57.528125" xlink:href="#mf701107abe" y="42.330854"/>
      </g>
     </g>
     <g id="text_13">
      <!-- 0.200 -->
      <defs>
       <path d="M 19.1875 8.296875 
L 53.609375 8.296875 
L 53.609375 0 
L 7.328125 0 
L 7.328125 8.296875 
Q 12.9375 14.109375 22.625 23.890625 
Q 32.328125 33.6875 34.8125 36.53125 
Q 39.546875 41.84375 41.421875 45.53125 
Q 43.3125 49.21875 43.3125 52.78125 
Q 43.3125 58.59375 39.234375 62.25 
Q 35.15625 65.921875 28.609375 65.921875 
Q 23.96875 65.921875 18.8125 64.3125 
Q 13.671875 62.703125 7.8125 59.421875 
L 7.8125 69.390625 
Q 13.765625 71.78125 18.9375 73 
Q 24.125 74.21875 28.421875 74.21875 
Q 39.75 74.21875 46.484375 68.546875 
Q 53.21875 62.890625 53.21875 53.421875 
Q 53.21875 48.921875 51.53125 44.890625 
Q 49.859375 40.875 45.40625 35.40625 
Q 44.1875 33.984375 37.640625 27.21875 
Q 31.109375 20.453125 19.1875 8.296875 
z
" id="DejaVuSans-32"/>
      </defs>
      <g transform="translate(21.9 46.130073)scale(0.1 -0.1)">
       <use xlink:href="#DejaVuSans-30"/>
       <use x="63.623047" xlink:href="#DejaVuSans-2e"/>
       <use x="95.410156" xlink:href="#DejaVuSans-32"/>
       <use x="159.033203" xlink:href="#DejaVuSans-30"/>
       <use x="222.65625" xlink:href="#DejaVuSans-30"/>
      </g>
     </g>
    </g>
    <g id="text_14">
     <!-- $E_i - 45932\rm{cm^{-1}}$ -->
     <defs>
      <path d="M 16.890625 72.90625 
L 62.984375 72.90625 
L 61.375 64.59375 
L 25.09375 64.59375 
L 20.90625 43.015625 
L 55.71875 43.015625 
L 54.109375 34.71875 
L 19.28125 34.71875 
L 14.203125 8.296875 
L 51.3125 8.296875 
L 49.703125 0 
L 2.6875 0 
z
" id="DejaVuSans-Oblique-45"/>
      <path d="M 18.3125 75.984375 
L 27.296875 75.984375 
L 25.09375 64.59375 
L 16.109375 64.59375 
z
M 14.203125 54.6875 
L 23.1875 54.6875 
L 12.5 0 
L 3.515625 0 
z
" id="DejaVuSans-Oblique-69"/>
      <path d="M 10.59375 35.5 
L 73.1875 35.5 
L 73.1875 27.203125 
L 10.59375 27.203125 
z
" id="DejaVuSans-2212"/>
     </defs>
     <g transform="translate(15.820312 158.72)rotate(-90)scale(0.1 -0.1)">
      <use transform="translate(0 0.684375)" xlink:href="#DejaVuSans-Oblique-45"/>
      <use transform="translate(63.183594 -15.721875)scale(0.7)" xlink:href="#DejaVuSans-Oblique-69"/>
      <use transform="translate(104.848633 0.684375)" xlink:href="#DejaVuSans-2212"/>
      <use transform="translate(208.120117 0.684375)" xlink:href="#DejaVuSans-34"/>
      <use transform="translate(271.743164 0.684375)" xlink:href="#DejaVuSans-35"/>
      <use transform="translate(335.288086 0.684375)" xlink:href="#DejaVuSans-39"/>
      <use transform="translate(398.911133 0.684375)" xlink:href="#DejaVuSans-33"/>
      <use transform="translate(462.53418 0.684375)" xlink:href="#DejaVuSans-32"/>
      <use transform="translate(526.157227 0.684375)" xlink:href="#DejaVuSans-63"/>
      <use transform="translate(581.137695 0.684375)" xlink:href="#DejaVuSans-6d"/>
      <use transform="translate(679.506836 38.965625)scale(0.7)" xlink:href="#DejaVuSans-2212"/>
      <use transform="translate(738.15918 38.965625)scale(0.7)" xlink:href="#DejaVuSans-31"/>
     </g>
    </g>
   </g>
   <g id="LineCollection_1">
    <path clip-path="url(#p1da9d66dc7)" d="M 123.539601 184.952543 
L 123.539733 184.952543 
" style="fill:none;stroke:#1f77b4;stroke-width:1.5;"/>
    <path clip-path="url(#p1da9d66dc7)" d="M 224.915102 117.484798 
L 224.915223 117.484798 
" style="fill:none;stroke:#1f77b4;stroke-width:1.5;"/>
    <path clip-path="url(#p1da9d66dc7)" d="M 326.316522 57.703252 
L 326.316644 57.703252 
" style="fill:none;stroke:#1f77b4;stroke-width:1.5;"/>
   </g>
   <g id="LineCollection_2">
    <path clip-path="url(#p1da9d66dc7)" d="M 123.539667 193.492764 
L 123.539667 176.412322 
" style="fill:none;stroke:#1f77b4;stroke-width:1.5;"/>
    <path clip-path="url(#p1da9d66dc7)" d="M 224.915163 126.025019 
L 224.915163 108.944577 
" style="fill:none;stroke:#1f77b4;stroke-width:1.5;"/>
    <path clip-path="url(#p1da9d66dc7)" d="M 326.316583 66.243473 
L 326.316583 49.163031 
" style="fill:none;stroke:#1f77b4;stroke-width:1.5;"/>
   </g>
   <g id="LineCollection_3">
    <path clip-path="url(#p1da9d66dc7)" d="M 275.689003 85.288165 
L 275.689125 85.288165 
" style="fill:none;stroke:#ff7f0e;stroke-width:1.5;"/>
   </g>
   <g id="LineCollection_4">
    <path clip-path="url(#p1da9d66dc7)" d="M 275.689064 87.167014 
L 275.689064 83.409317 
" style="fill:none;stroke:#ff7f0e;stroke-width:1.5;"/>
   </g>
   <g id="line2d_13">
    <path clip-path="url(#p1da9d66dc7)" d="M 72.746307 215.543078 
L 75.820687 213.613807 
L 78.895067 211.684536 
L 81.969447 209.755265 
L 85.043827 207.825993 
L 88.118208 205.896722 
L 91.192588 203.967451 
L 94.266968 202.03818 
L 97.341348 200.108908 
L 100.415728 198.179637 
L 103.490108 196.250366 
L 106.564489 194.321095 
L 109.638869 192.391824 
L 112.713249 190.462552 
L 115.787629 188.533281 
L 118.862009 186.60401 
L 121.936389 184.674739 
L 125.01077 182.745467 
L 128.08515 180.816196 
L 131.15953 178.886925 
L 134.23391 176.957654 
L 137.30829 175.028383 
L 140.38267 173.099111 
L 143.457051 171.16984 
L 146.531431 169.240569 
L 149.605811 167.311298 
L 152.680191 165.382027 
L 155.754571 163.452755 
L 158.828951 161.523484 
L 161.903332 159.594213 
L 164.977712 157.664942 
L 168.052092 155.73567 
L 171.126472 153.806399 
L 174.200852 151.877128 
L 177.275232 149.947857 
L 180.349613 148.018586 
L 183.423993 146.089314 
L 186.498373 144.160043 
L 189.572753 142.230772 
L 192.647133 140.301501 
L 195.721513 138.372229 
L 198.795894 136.442958 
L 201.870274 134.513687 
L 204.944654 132.584416 
L 208.019034 130.655145 
L 211.093414 128.725873 
L 214.167794 126.796602 
L 217.242175 124.867331 
L 220.316555 122.93806 
L 223.390935 121.008789 
L 226.465315 119.079517 
L 229.539695 117.150246 
L 232.614075 115.220975 
L 235.688456 113.291704 
L 238.762836 111.362432 
L 241.837216 109.433161 
L 244.911596 107.50389 
L 247.985976 105.574619 
L 251.060356 103.645348 
L 254.134737 101.716076 
L 257.209117 99.786805 
L 260.283497 97.857534 
L 263.357877 95.928263 
L 266.432257 93.998991 
L 269.506637 92.06972 
L 272.581018 90.140449 
L 275.655398 88.211178 
L 278.729778 86.281907 
L 281.804158 84.352635 
L 284.878538 82.423364 
L 287.952918 80.494093 
L 291.027299 78.564822 
L 294.101679 76.635551 
L 297.176059 74.706279 
L 300.250439 72.777008 
L 303.324819 70.847737 
L 306.399199 68.918466 
L 309.47358 66.989194 
L 312.54796 65.059923 
L 315.62234 63.130652 
L 318.69672 61.201381 
L 321.7711 59.27211 
L 324.84548 57.342838 
L 327.919861 55.413567 
L 330.994241 53.484296 
L 334.068621 51.555025 
L 337.143001 49.625753 
L 340.217381 47.696482 
L 343.291761 45.767211 
L 346.366142 43.83794 
L 349.440522 41.908669 
L 352.514902 39.979397 
L 355.589282 38.050126 
L 358.663662 36.120855 
L 361.738042 34.191584 
L 364.812423 32.262313 
L 367.886803 30.333041 
L 370.961183 28.40377 
L 374.035563 26.474499 
L 377.109943 24.545228 
" style="fill:none;stroke:#ff0000;stroke-linecap:square;stroke-width:1.5;"/>
   </g>
   <g id="line2d_14">
    <defs>
     <path d="M 0 3 
C 0.795609 3 1.55874 2.683901 2.12132 2.12132 
C 2.683901 1.55874 3 0.795609 3 0 
C 3 -0.795609 2.683901 -1.55874 2.12132 -2.12132 
C 1.55874 -2.683901 0.795609 -3 0 -3 
C -0.795609 -3 -1.55874 -2.683901 -2.12132 -2.12132 
C -2.683901 -1.55874 -3 -0.795609 -3 0 
C -3 0.795609 -2.683901 1.55874 -2.12132 2.12132 
C -1.55874 2.683901 -0.795609 3 0 3 
z
" id="m2cf09ccf2b" style="stroke:#1f77b4;"/>
    </defs>
    <g clip-path="url(#p1da9d66dc7)">
     <use style="fill:#1f77b4;stroke:#1f77b4;" x="123.539667" xlink:href="#m2cf09ccf2b" y="184.952543"/>
     <use style="fill:#1f77b4;stroke:#1f77b4;" x="224.915163" xlink:href="#m2cf09ccf2b" y="117.484798"/>
     <use style="fill:#1f77b4;stroke:#1f77b4;" x="326.316583" xlink:href="#m2cf09ccf2b" y="57.703252"/>
    </g>
   </g>
   <g id="line2d_15">
    <defs>
     <path d="M 0 3 
C 0.795609 3 1.55874 2.683901 2.12132 2.12132 
C 2.683901 1.55874 3 0.795609 3 0 
C 3 -0.795609 2.683901 -1.55874 2.12132 -2.12132 
C 1.55874 -2.683901 0.795609 -3 0 -3 
C -0.795609 -3 -1.55874 -2.683901 -2.12132 -2.12132 
C -2.683901 -1.55874 -3 -0.795609 -3 0 
C -3 0.795609 -2.683901 1.55874 -2.12132 2.12132 
C -1.55874 2.683901 -0.795609 3 0 3 
z
" id="m810b31e98d" style="stroke:#ff7f0e;"/>
    </defs>
    <g clip-path="url(#p1da9d66dc7)">
     <use style="fill:#ff7f0e;stroke:#ff7f0e;" x="275.689064" xlink:href="#m810b31e98d" y="85.288165"/>
    </g>
   </g>
   <g id="patch_3">
    <path d="M 57.528125 228.14 
L 57.528125 10.7 
" style="fill:none;stroke:#000000;stroke-linecap:square;stroke-linejoin:miter;stroke-width:0.8;"/>
   </g>
   <g id="patch_4">
    <path d="M 392.328125 228.14 
L 392.328125 10.7 
" style="fill:none;stroke:#000000;stroke-linecap:square;stroke-linejoin:miter;stroke-width:0.8;"/>
   </g>
   <g id="patch_5">
    <path d="M 57.528125 228.14 
L 392.328125 228.14 
" style="fill:none;stroke:#000000;stroke-linecap:square;stroke-linejoin:miter;stroke-width:0.8;"/>
   </g>
   <g id="patch_6">
    <path d="M 57.528125 10.7 
L 392.328125 10.7 
" style="fill:none;stroke:#000000;stroke-linecap:square;stroke-linejoin:miter;stroke-width:0.8;"/>
   </g>
  </g>
 </g>
 <defs>
  <clipPath id="p1da9d66dc7">
   <rect height="217.44" width="334.8" x="57.528125" y="10.7"/>
  </clipPath>
 </defs>
</svg>
