<?xml version="1.0" encoding="utf-8" standalone="no"?>
<!DOCTYPE svg PUBLIC "-//W3C//DTD SVG 1.1//EN"
  "http://www.w3.org/Graphics/SVG/1.1/DTD/svg11.dtd">
<!-- Created with matplotlib (https://matplotlib.org/) -->
<svg height="389.573435pt" version="1.1" viewBox="0 0 650.043589 389.573435" width="650.043589pt" xmlns="http://www.w3.org/2000/svg" xmlns:xlink="http://www.w3.org/1999/xlink">
 <defs>
  <style type="text/css">
*{stroke-linecap:butt;stroke-linejoin:round;}
  </style>
 </defs>
 <g id="figure_1">
  <g id="patch_1">
   <path d="M 0 389.573435 
L 650.043589 389.573435 
L 650.043589 0 
L 0 0 
z
" style="fill:#ffffff;"/>
  </g>
  <g id="axes_1">
   <g id="patch_2">
    <path d="M 75.843589 108.549035 
L 633.843589 108.549035 
L 633.843589 16.2 
L 75.843589 16.2 
z
" style="fill:#ffffff;"/>
   </g>
   <g id="PolyCollection_1">
    <defs>
     <path d="M 75.843589 552.730041 
L 75.843589 546.811906 
L 87.231344 543.022067 
L 98.619099 539.226728 
L 110.006854 535.425647 
L 121.394609 531.618605 
L 132.782365 527.805412 
L 144.17012 523.985908 
L 155.557875 520.159976 
L 166.94563 516.327539 
L 178.333385 512.488566 
L 189.72114 508.643074 
L 201.108895 504.791122 
L 212.49665 500.932816 
L 223.884405 497.068302 
L 235.27216 493.19776 
L 246.659916 489.3214 
L 258.047671 485.439457 
L 269.435426 481.552185 
L 280.823181 477.659847 
L 292.210936 473.762714 
L 303.598691 469.861062 
L 314.986446 465.95516 
L 326.374201 462.045274 
L 337.761956 458.131662 
L 349.149711 454.214571 
L 360.537467 450.294236 
L 371.925222 446.370881 
L 383.312977 442.444716 
L 394.700732 438.515938 
L 406.088487 434.58473 
L 417.476242 430.651265 
L 428.863997 426.7157 
L 440.251752 422.778185 
L 451.639507 418.838855 
L 463.027263 414.897836 
L 474.415018 410.955245 
L 485.802773 407.01119 
L 497.190528 403.065771 
L 508.578283 399.119078 
L 519.966038 395.171196 
L 531.353793 391.222203 
L 542.741548 387.272172 
L 554.129303 383.321169 
L 565.517058 379.369255 
L 576.904814 375.416487 
L 588.292569 371.462918 
L 599.680324 367.508596 
L 611.068079 363.553567 
L 622.455834 359.597871 
L 633.843589 355.641549 
L 633.843589 367.894639 
L 633.843589 367.894639 
L 622.455834 371.611903 
L 611.068079 375.329795 
L 599.680324 379.048352 
L 588.292569 382.767617 
L 576.904814 386.487635 
L 565.517058 390.208454 
L 554.129303 393.930127 
L 542.741548 397.652711 
L 531.353793 401.376267 
L 519.966038 405.100861 
L 508.578283 408.826566 
L 497.190528 412.55346 
L 485.802773 416.281627 
L 474.415018 420.011159 
L 463.027263 423.742156 
L 451.639507 427.474724 
L 440.251752 431.208981 
L 428.863997 434.945052 
L 417.476242 438.683075 
L 406.088487 442.423196 
L 394.700732 446.165575 
L 383.312977 449.910384 
L 371.925222 453.657806 
L 360.537467 457.408038 
L 349.149711 461.16129 
L 337.761956 464.917786 
L 326.374201 468.677761 
L 314.986446 472.441462 
L 303.598691 476.209147 
L 292.210936 479.981081 
L 280.823181 483.757536 
L 269.435426 487.538784 
L 258.047671 491.325099 
L 246.659916 495.116743 
L 235.27216 498.91397 
L 223.884405 502.717015 
L 212.49665 506.526087 
L 201.108895 510.341369 
L 189.72114 514.163004 
L 178.333385 517.991098 
L 166.94563 521.825712 
L 155.557875 525.666862 
L 144.17012 529.514517 
L 132.782365 533.368601 
L 121.394609 537.228994 
L 110.006854 541.095539 
L 98.619099 544.968045 
L 87.231344 548.846293 
L 75.843589 552.730041 
z
" id="m1ad820fbe1" style="stroke:#d3d3d3;stroke-width:1.5;"/>
    </defs>
    <g clip-path="url(#pb996c2c7e9)">
     <use style="fill:#d3d3d3;stroke:#d3d3d3;stroke-width:1.5;" x="0" xlink:href="#m1ad820fbe1" y="389.573435"/>
    </g>
   </g>
   <g id="matplotlib.axis_1"/>
   <g id="matplotlib.axis_2">
    <g id="ytick_1">
     <g id="line2d_1">
      <defs>
       <path d="M 0 0 
L 9 0 
" id="m7614eafd31" style="stroke:#000000;stroke-width:1.875;"/>
      </defs>
      <g>
       <use style="stroke:#000000;stroke-width:1.875;" x="75.843589" xlink:href="#m7614eafd31" y="100.153668"/>
      </g>
     </g>
     <g id="line2d_2">
      <defs>
       <path d="M 0 0 
L -9 0 
" id="ma421d13df1" style="stroke:#000000;stroke-width:1.875;"/>
      </defs>
      <g>
       <use style="stroke:#000000;stroke-width:1.875;" x="633.843589" xlink:href="#ma421d13df1" y="100.153668"/>
      </g>
     </g>
     <g id="text_1">
      <!-- $0.280$ -->
      <defs>
       <path d="M 42 31.84375 
C 42 37.96875 41.90625 48.421875 37.703125 56.453125 
C 34 63.484375 28.09375 66 22.90625 66 
C 18.09375 66 12 63.78125 8.203125 56.5625 
C 4.203125 49.015625 3.796875 39.671875 3.796875 31.84375 
C 3.796875 26.109375 3.90625 17.375 7 9.734375 
C 11.296875 -0.609375 19 -2 22.90625 -2 
C 27.5 -2 34.5 -0.109375 38.59375 9.4375 
C 41.59375 16.375 42 24.5 42 31.84375 
z
M 22.90625 -0.40625 
C 16.5 -0.40625 12.703125 5.125 11.296875 12.75 
C 10.203125 18.6875 10.203125 27.328125 10.203125 32.953125 
C 10.203125 40.6875 10.203125 47.109375 11.5 53.234375 
C 13.40625 61.78125 19 64.390625 22.90625 64.390625 
C 27 64.390625 32.296875 61.671875 34.203125 53.4375 
C 35.5 47.71875 35.59375 40.984375 35.59375 32.953125 
C 35.59375 26.421875 35.59375 18.375 34.40625 12.453125 
C 32.296875 1.5 26.40625 -0.40625 22.90625 -0.40625 
z
" id="CMR17-48"/>
       <path d="M 18.40625 4.796875 
C 18.40625 7.6875 16 9.6875 13.59375 9.6875 
C 10.703125 9.6875 8.703125 7.296875 8.703125 4.890625 
C 8.703125 2 11.09375 0 13.5 0 
C 16.40625 0 18.40625 2.390625 18.40625 4.796875 
z
" id="CMMI12-58"/>
       <path d="M 41.703125 15.46875 
L 39.90625 15.46875 
C 38.90625 8.390625 38.09375 7.1875 37.703125 6.59375 
C 37.203125 5.796875 30 5.796875 28.59375 5.796875 
L 9.40625 5.796875 
C 13 9.6875 20 16.765625 28.5 24.9375 
C 34.59375 30.71875 41.703125 37.5 41.703125 47.390625 
C 41.703125 59.1875 32.296875 66 21.796875 66 
C 10.796875 66 4.09375 56.296875 4.09375 47.296875 
C 4.09375 43.390625 7 42.890625 8.203125 42.890625 
C 9.203125 42.890625 12.203125 43.484375 12.203125 46.984375 
C 12.203125 50.09375 9.59375 51 8.203125 51 
C 7.59375 51 7 50.890625 6.59375 50.6875 
C 8.5 59.1875 14.296875 63.390625 20.40625 63.390625 
C 29.09375 63.390625 34.796875 56.5 34.796875 47.390625 
C 34.796875 38.703125 29.703125 31.21875 24 24.734375 
L 4.09375 2.296875 
L 4.09375 0 
L 39.296875 0 
z
" id="CMR17-50"/>
       <path d="M 27.203125 35.765625 
C 33.5 38.96875 39.90625 43.796875 39.90625 51.53125 
C 39.90625 60.6875 31.09375 66 23 66 
C 13.90625 66 5.90625 59.375 5.90625 50.234375 
C 5.90625 47.71875 6.5 43.390625 10.40625 39.578125 
C 11.40625 38.578125 15.59375 35.5625 18.296875 33.65625 
C 13.796875 31.34375 3.296875 25.8125 3.296875 14.765625 
C 3.296875 4.40625 13.09375 -2 22.796875 -2 
C 33.5 -2 42.5 5.71875 42.5 15.96875 
C 42.5 25.109375 36.40625 29.328125 32.40625 32.046875 
z
M 14.09375 44.609375 
C 13.296875 45.109375 9.296875 48.21875 9.296875 52.9375 
C 9.296875 59.078125 15.59375 63.6875 22.796875 63.6875 
C 30.703125 63.6875 36.5 58.0625 36.5 51.53125 
C 36.5 42.1875 26.09375 36.859375 25.59375 36.859375 
C 25.5 36.859375 25.40625 36.859375 24.59375 37.46875 
z
M 32.5 24 
C 34 22.90625 38.796875 19.578125 38.796875 13.453125 
C 38.796875 6.015625 31.40625 0.390625 23 0.390625 
C 13.90625 0.390625 7 6.921875 7 14.859375 
C 7 22.796875 13.09375 29.4375 20 32.546875 
z
" id="CMR17-56"/>
      </defs>
      <g transform="translate(35.681146 105.86142)scale(0.165 -0.165)">
       <use transform="scale(0.996264)" xlink:href="#CMR17-48"/>
       <use transform="translate(45.690477 0)scale(0.996264)" xlink:href="#CMMI12-58"/>
       <use transform="translate(72.787654 0)scale(0.996264)" xlink:href="#CMR17-50"/>
       <use transform="translate(118.478131 0)scale(0.996264)" xlink:href="#CMR17-56"/>
       <use transform="translate(164.168608 0)scale(0.996264)" xlink:href="#CMR17-48"/>
      </g>
     </g>
    </g>
    <g id="ytick_2">
     <g id="line2d_3">
      <g>
       <use style="stroke:#000000;stroke-width:1.875;" x="75.843589" xlink:href="#m7614eafd31" y="58.176834"/>
      </g>
     </g>
     <g id="line2d_4">
      <g>
       <use style="stroke:#000000;stroke-width:1.875;" x="633.843589" xlink:href="#ma421d13df1" y="58.176834"/>
      </g>
     </g>
     <g id="text_2">
      <!-- $0.285$ -->
      <defs>
       <path d="M 11.40625 58.59375 
C 12.40625 58.1875 16.5 56.890625 20.703125 56.890625 
C 30 56.890625 35.09375 61.890625 38 64.6875 
C 38 65.484375 38 66 37.40625 66 
C 37.296875 66 37.09375 66 36.296875 65.59375 
C 32.796875 64.09375 28.703125 63 23.703125 63 
C 20.703125 63 16.203125 63.359375 11.296875 65.484375 
C 10.203125 66 10 66 9.90625 66 
C 9.40625 66 9.296875 65.890625 9.296875 63.90625 
L 9.296875 34.859375 
C 9.296875 33.015625 9.296875 32.5 10.296875 32.5 
C 10.796875 32.5 11 32.703125 11.5 33.421875 
C 14.703125 38.046875 19.09375 40 24.09375 40 
C 27.59375 40 35.09375 37.734375 35.09375 20.203125 
C 35.09375 16.984375 35.09375 11.1875 32.09375 6.59375 
C 29.59375 2.484375 25.703125 0.390625 21.40625 0.390625 
C 14.796875 0.390625 8.09375 4.984375 6.296875 12.6875 
C 6.703125 12.59375 7.5 12.390625 7.90625 12.390625 
C 9.203125 12.390625 11.703125 13.09375 11.703125 16.1875 
C 11.703125 18.890625 9.796875 20 7.90625 20 
C 5.59375 20 4.09375 18.59375 4.09375 15.796875 
C 4.09375 7.09375 11 -2 21.59375 -2 
C 31.90625 -2 41.703125 6.890625 41.703125 19.796875 
C 41.703125 32.09375 33.90625 41.59375 24.203125 41.59375 
C 19.09375 41.59375 14.796875 39.6875 11.40625 36 
z
" id="CMR17-53"/>
      </defs>
      <g transform="translate(35.681146 63.884586)scale(0.165 -0.165)">
       <use transform="scale(0.996264)" xlink:href="#CMR17-48"/>
       <use transform="translate(45.690477 0)scale(0.996264)" xlink:href="#CMMI12-58"/>
       <use transform="translate(72.787654 0)scale(0.996264)" xlink:href="#CMR17-50"/>
       <use transform="translate(118.478131 0)scale(0.996264)" xlink:href="#CMR17-56"/>
       <use transform="translate(164.168608 0)scale(0.996264)" xlink:href="#CMR17-53"/>
      </g>
     </g>
    </g>
    <g id="ytick_3">
     <g id="line2d_5">
      <g>
       <use style="stroke:#000000;stroke-width:1.875;" x="75.843589" xlink:href="#m7614eafd31" y="16.2"/>
      </g>
     </g>
     <g id="line2d_6">
      <g>
       <use style="stroke:#000000;stroke-width:1.875;" x="633.843589" xlink:href="#ma421d13df1" y="16.2"/>
      </g>
     </g>
     <g id="text_3">
      <!-- $0.290$ -->
      <defs>
       <path d="M 35.203125 29.234375 
C 35.203125 7 26.09375 0.390625 18.59375 0.390625 
C 16.296875 0.390625 10.703125 0.671875 8.40625 4.390625 
C 11 4 12.90625 5.390625 12.90625 7.890625 
C 12.90625 10.59375 10.703125 11.5 9.296875 11.5 
C 8.40625 11.5 5.703125 11.09375 5.703125 7.6875 
C 5.703125 1.0625 11.59375 -2 18.796875 -2 
C 30.296875 -2 42 10.390625 42 32.65625 
C 42 60.265625 30.796875 66 23.203125 66 
C 13.296875 66 3.796875 57.25 3.796875 43.75 
C 3.796875 31.25 11.90625 22 22.09375 22 
C 30.5 22 34.203125 29.84375 35.203125 33.15625 
z
M 22.296875 23.59375 
C 19.59375 23.59375 15.796875 24.09375 12.703125 30.140625 
C 10.59375 34.078125 10.59375 38.703125 10.59375 43.640625 
C 10.59375 49.59375 10.59375 53.71875 13.40625 58.15625 
C 14.796875 60.265625 17.40625 63.6875 23.203125 63.6875 
C 35 63.6875 35 45.453125 35 41.421875 
C 35 34.265625 31.796875 23.59375 22.296875 23.59375 
z
" id="CMR17-57"/>
      </defs>
      <g transform="translate(35.681146 21.907752)scale(0.165 -0.165)">
       <use transform="scale(0.996264)" xlink:href="#CMR17-48"/>
       <use transform="translate(45.690477 0)scale(0.996264)" xlink:href="#CMMI12-58"/>
       <use transform="translate(72.787654 0)scale(0.996264)" xlink:href="#CMR17-50"/>
       <use transform="translate(118.478131 0)scale(0.996264)" xlink:href="#CMR17-57"/>
       <use transform="translate(164.168608 0)scale(0.996264)" xlink:href="#CMR17-48"/>
      </g>
     </g>
    </g>
   </g>
   <g id="LineCollection_1">
    <path clip-path="url(#pb996c2c7e9)" style="fill:none;stroke:#1f78b4;stroke-width:2.25;"/>
    <path clip-path="url(#pb996c2c7e9)" d="M 439.369085 48.941931 
L 439.369308 48.941931 
" style="fill:none;stroke:#1f78b4;stroke-width:2.25;"/>
    <path clip-path="url(#pb996c2c7e9)" style="fill:none;stroke:#1f78b4;stroke-width:2.25;"/>
    <path clip-path="url(#pb996c2c7e9)" style="fill:none;stroke:#1f78b4;stroke-width:2.25;"/>
   </g>
   <g id="LineCollection_2">
    <path clip-path="url(#pb996c2c7e9)" style="fill:none;stroke:#1f78b4;stroke-width:2.25;"/>
    <path clip-path="url(#pb996c2c7e9)" d="M 439.369197 57.337297 
L 439.369197 40.546564 
" style="fill:none;stroke:#1f78b4;stroke-width:2.25;"/>
    <path clip-path="url(#pb996c2c7e9)" style="fill:none;stroke:#1f78b4;stroke-width:2.25;"/>
    <path clip-path="url(#pb996c2c7e9)" style="fill:none;stroke:#1f78b4;stroke-width:2.25;"/>
   </g>
   <g id="LineCollection_3">
    <path clip-path="url(#pb996c2c7e9)" style="fill:none;stroke:#e31a1c;stroke-width:2.25;"/>
   </g>
   <g id="LineCollection_4">
    <path clip-path="url(#pb996c2c7e9)" style="fill:none;stroke:#e31a1c;stroke-width:2.25;"/>
   </g>
   <g id="line2d_7">
    <path d="M 72.788888 111.603736 
L 78.89829 105.494333 
" style="fill:none;stroke:#000000;stroke-linecap:square;stroke-width:1.875;"/>
   </g>
   <g id="line2d_8">
    <path d="M 630.788888 111.603736 
L 636.89829 105.494333 
" style="fill:none;stroke:#000000;stroke-linecap:square;stroke-width:1.875;"/>
   </g>
   <g id="line2d_9">
    <defs>
     <path d="M 0 4 
L 0 -4 
" id="mc56930706c" style="stroke:#1f78b4;"/>
    </defs>
    <g clip-path="url(#pb996c2c7e9)">
     <use style="fill:#1f78b4;stroke:#1f78b4;" x="532.06544" xlink:href="#mc56930706c" y="786.894672"/>
     <use style="fill:#1f78b4;stroke:#1f78b4;" x="439.369085" xlink:href="#mc56930706c" y="48.941931"/>
     <use style="fill:#1f78b4;stroke:#1f78b4;" x="346.404713" xlink:href="#mc56930706c" y="845.662239"/>
     <use style="fill:#1f78b4;stroke:#1f78b4;" x="160.791444" xlink:href="#mc56930706c" y="911.985637"/>
    </g>
   </g>
   <g id="line2d_10">
    <g clip-path="url(#pb996c2c7e9)">
     <use style="fill:#1f78b4;stroke:#1f78b4;" x="532.065663" xlink:href="#mc56930706c" y="786.894672"/>
     <use style="fill:#1f78b4;stroke:#1f78b4;" x="439.369308" xlink:href="#mc56930706c" y="48.941931"/>
     <use style="fill:#1f78b4;stroke:#1f78b4;" x="346.404936" xlink:href="#mc56930706c" y="845.662239"/>
     <use style="fill:#1f78b4;stroke:#1f78b4;" x="160.791686" xlink:href="#mc56930706c" y="911.985637"/>
    </g>
   </g>
   <g id="line2d_11">
    <defs>
     <path d="M 4 0 
L -4 -0 
" id="m714469ab7a" style="stroke:#1f78b4;"/>
    </defs>
    <g clip-path="url(#pb996c2c7e9)">
     <use style="fill:#1f78b4;stroke:#1f78b4;" x="532.065552" xlink:href="#m714469ab7a" y="795.290039"/>
     <use style="fill:#1f78b4;stroke:#1f78b4;" x="439.369197" xlink:href="#m714469ab7a" y="57.337297"/>
     <use style="fill:#1f78b4;stroke:#1f78b4;" x="346.404825" xlink:href="#m714469ab7a" y="854.057606"/>
     <use style="fill:#1f78b4;stroke:#1f78b4;" x="160.791565" xlink:href="#m714469ab7a" y="920.381004"/>
    </g>
   </g>
   <g id="line2d_12">
    <g clip-path="url(#pb996c2c7e9)">
     <use style="fill:#1f78b4;stroke:#1f78b4;" x="532.065552" xlink:href="#m714469ab7a" y="778.499305"/>
     <use style="fill:#1f78b4;stroke:#1f78b4;" x="439.369197" xlink:href="#m714469ab7a" y="40.546564"/>
     <use style="fill:#1f78b4;stroke:#1f78b4;" x="346.404825" xlink:href="#m714469ab7a" y="837.266873"/>
     <use style="fill:#1f78b4;stroke:#1f78b4;" x="160.791565" xlink:href="#m714469ab7a" y="903.59027"/>
    </g>
   </g>
   <g id="line2d_13">
    <defs>
     <path d="M 0 4 
L 0 -4 
" id="mbd64b64046" style="stroke:#e31a1c;"/>
    </defs>
    <g clip-path="url(#pb996c2c7e9)">
     <use style="fill:#e31a1c;stroke:#e31a1c;" x="439.369085" xlink:href="#mbd64b64046" y="816.864371"/>
    </g>
   </g>
   <g id="line2d_14">
    <g clip-path="url(#pb996c2c7e9)">
     <use style="fill:#e31a1c;stroke:#e31a1c;" x="439.369308" xlink:href="#mbd64b64046" y="816.864371"/>
    </g>
   </g>
   <g id="line2d_15">
    <defs>
     <path d="M 4 0 
L -4 -0 
" id="mc48f3c7d4b" style="stroke:#e31a1c;"/>
    </defs>
    <g clip-path="url(#pb996c2c7e9)">
     <use style="fill:#e31a1c;stroke:#e31a1c;" x="439.369197" xlink:href="#mc48f3c7d4b" y="821.071896"/>
    </g>
   </g>
   <g id="line2d_16">
    <g clip-path="url(#pb996c2c7e9)">
     <use style="fill:#e31a1c;stroke:#e31a1c;" x="439.369197" xlink:href="#mc48f3c7d4b" y="812.656846"/>
    </g>
   </g>
   <g id="line2d_17">
    <path clip-path="url(#pb996c2c7e9)" style="fill:none;stroke:#000000;stroke-linecap:square;stroke-width:2.25;"/>
   </g>
   <g id="line2d_18">
    <defs>
     <path d="M 0 2.25 
C 0.596707 2.25 1.169055 2.012926 1.59099 1.59099 
C 2.012926 1.169055 2.25 0.596707 2.25 0 
C 2.25 -0.596707 2.012926 -1.169055 1.59099 -1.59099 
C 1.169055 -2.012926 0.596707 -2.25 0 -2.25 
C -0.596707 -2.25 -1.169055 -2.012926 -1.59099 -1.59099 
C -2.012926 -1.169055 -2.25 -0.596707 -2.25 0 
C -2.25 0.596707 -2.012926 1.169055 -1.59099 1.59099 
C -1.169055 2.012926 -0.596707 2.25 0 2.25 
z
" id="m56c3c977ed" style="stroke:#1f78b4;"/>
    </defs>
    <g clip-path="url(#pb996c2c7e9)">
     <use style="fill:#1f78b4;stroke:#1f78b4;" x="532.065552" xlink:href="#m56c3c977ed" y="786.894672"/>
     <use style="fill:#1f78b4;stroke:#1f78b4;" x="439.369197" xlink:href="#m56c3c977ed" y="48.941931"/>
     <use style="fill:#1f78b4;stroke:#1f78b4;" x="346.404825" xlink:href="#m56c3c977ed" y="845.662239"/>
     <use style="fill:#1f78b4;stroke:#1f78b4;" x="160.791565" xlink:href="#m56c3c977ed" y="911.985637"/>
    </g>
   </g>
   <g id="line2d_19">
    <defs>
     <path d="M 0 2.25 
C 0.596707 2.25 1.169055 2.012926 1.59099 1.59099 
C 2.012926 1.169055 2.25 0.596707 2.25 0 
C 2.25 -0.596707 2.012926 -1.169055 1.59099 -1.59099 
C 1.169055 -2.012926 0.596707 -2.25 0 -2.25 
C -0.596707 -2.25 -1.169055 -2.012926 -1.59099 -1.59099 
C -2.012926 -1.169055 -2.25 -0.596707 -2.25 0 
C -2.25 0.596707 -2.012926 1.169055 -1.59099 1.59099 
C -1.169055 2.012926 -0.596707 2.25 0 2.25 
z
" id="m5c8fb2b4be" style="stroke:#e31a1c;"/>
    </defs>
    <g clip-path="url(#pb996c2c7e9)">
     <use style="fill:#e31a1c;stroke:#e31a1c;" x="439.369197" xlink:href="#m5c8fb2b4be" y="816.864371"/>
    </g>
   </g>
   <g id="patch_3">
    <path d="M 75.843589 108.549035 
L 75.843589 16.2 
" style="fill:none;stroke:#000000;stroke-linecap:square;stroke-linejoin:miter;stroke-width:1.875;"/>
   </g>
   <g id="patch_4">
    <path d="M 633.843589 108.549035 
L 633.843589 16.2 
" style="fill:none;stroke:#000000;stroke-linecap:square;stroke-linejoin:miter;stroke-width:1.875;"/>
   </g>
   <g id="patch_5">
    <path d="M 75.843589 16.2 
L 633.843589 16.2 
" style="fill:none;stroke:#000000;stroke-linecap:square;stroke-linejoin:miter;stroke-width:1.875;"/>
   </g>
   <g id="text_4">
    <!-- ${}^{87}\text{Sr}$ -->
    <defs>
     <path d="M 45.09375 61.796875 
L 45.09375 64 
L 21.59375 64 
C 9.90625 64 9.703125 65.09375 9.296875 67 
L 7.5 67 
L 4.59375 48.5 
L 6.40625 48.5 
C 6.703125 50.40625 7.40625 55.5 8.59375 57.390625 
C 9.203125 58.1875 16.59375 58.1875 18.296875 58.1875 
L 40.296875 58.1875 
L 29.203125 41.71875 
C 21.796875 30.640625 16.703125 15.671875 16.703125 2.59375 
C 16.703125 1.390625 16.703125 -2 20.296875 -2 
C 23.90625 -2 23.90625 1.390625 23.90625 2.6875 
L 23.90625 7.28125 
C 23.90625 23.65625 26.703125 34.4375 31.296875 41.3125 
z
" id="CMR17-55"/>
     <path d="M 43.796875 67.984375 
C 43.796875 69.796875 43.703125 69.890625 43.09375 69.890625 
C 42.5 69.890625 42.296875 69.484375 41.90625 68.59375 
L 38.90625 61.953125 
C 35.09375 67.5 29.296875 70 23 70 
C 12.796875 70 4.59375 61.84375 4.59375 51.578125 
C 4.59375 48.453125 5.296875 44.015625 8.703125 39.78125 
C 12.40625 35.15625 15.90625 34.34375 23.90625 32.234375 
C 26.90625 31.421875 31.90625 30.109375 32.90625 29.703125 
C 38.59375 27.296875 41.59375 21.25 41.59375 15.609375 
C 41.59375 8.34375 36.5 0.59375 27.796875 0.59375 
C 17.09375 0.59375 7.09375 6.640625 6.40625 20.75 
C 6.296875 22.359375 6.203125 22.453125 5.5 22.453125 
C 4.703125 22.453125 4.59375 22.359375 4.59375 20.34375 
L 4.59375 0 
C 4.59375 -1.8125 4.703125 -1.90625 5.296875 -1.90625 
C 6 -1.90625 6.203125 -1.40625 7.59375 1.703125 
C 7.703125 2 7.703125 2.203125 9.59375 6.03125 
C 14.59375 -0.609375 23 -2 27.796875 -2 
C 38.703125 -2 46.40625 7.140625 46.40625 17.828125 
C 46.40625 23.0625 44.5 27.09375 43.40625 28.90625 
C 39.203125 35.359375 34.703125 36.5625 29.90625 37.765625 
C 29.203125 38.078125 29 38.078125 23.40625 39.484375 
C 18 40.890625 15.703125 41.59375 13.203125 44.3125 
C 10.40625 47.4375 9.40625 50.671875 9.40625 53.890625 
C 9.40625 60.4375 14.59375 67.59375 23.09375 67.59375 
C 33.703125 67.59375 40.296875 60.03125 41.796875 47.4375 
C 42.09375 45.625 42.203125 45.53125 42.90625 45.53125 
C 43.796875 45.53125 43.796875 45.828125 43.796875 47.546875 
z
" id="CMR17-83"/>
     <path d="M 15 23.703125 
C 15 33.34375 19.09375 42.390625 26.59375 42.390625 
C 27.296875 42.390625 28 42.296875 28.703125 41.984375 
C 28.703125 41.984375 26.5 41.28125 26.5 38.671875 
C 26.5 36.265625 28.40625 35.265625 29.90625 35.265625 
C 31.09375 35.265625 33.296875 35.96875 33.296875 38.78125 
C 33.296875 41.984375 30.09375 44 26.703125 44 
C 19.09375 44 15.796875 36.5625 14.796875 33.046875 
L 14.703125 33.046875 
L 14.703125 44 
L 3.09375 42.890625 
L 3.09375 40.28125 
C 9 40.28125 9.90625 39.6875 9.90625 34.859375 
L 9.90625 6.921875 
C 9.90625 3.09375 9.5 2.59375 3.09375 2.59375 
L 3.09375 0 
C 5.5 0.1875 10.09375 0.1875 12.703125 0.1875 
C 15.59375 0.1875 20.703125 0.1875 23.40625 0 
L 23.40625 2.59375 
C 16.203125 2.59375 15 2.59375 15 7.109375 
z
" id="CMR17-114"/>
    </defs>
    <g transform="translate(425.218678 82.808332)scale(0.18 -0.18)">
     <use transform="translate(0 36.153639)scale(0.697382)" xlink:href="#CMR17-56"/>
     <use transform="translate(31.983182 36.153639)scale(0.697382)" xlink:href="#CMR17-55"/>
     <use transform="translate(64.464496 0)scale(0.996264)" xlink:href="#CMR17-83"/>
     <use transform="translate(115.359866 0)scale(0.996264)" xlink:href="#CMR17-114"/>
    </g>
   </g>
  </g>
  <g id="axes_2">
   <g id="patch_6">
    <path d="M 75.843589 342.36 
L 633.843589 342.36 
L 633.843589 124.080463 
L 75.843589 124.080463 
z
" style="fill:#ffffff;"/>
   </g>
   <g id="PolyCollection_2">
    <defs>
     <path d="M 75.843589 -44.600306 
L 75.843589 -50.518442 
L 87.231344 -54.308281 
L 98.619099 -58.10362 
L 110.006854 -61.904701 
L 121.394609 -65.711742 
L 132.782365 -69.524936 
L 144.17012 -73.344439 
L 155.557875 -77.170372 
L 166.94563 -81.002808 
L 178.333385 -84.841781 
L 189.72114 -88.687274 
L 201.108895 -92.539226 
L 212.49665 -96.397531 
L 223.884405 -100.262045 
L 235.27216 -104.132588 
L 246.659916 -108.008948 
L 258.047671 -111.89089 
L 269.435426 -115.778163 
L 280.823181 -119.670501 
L 292.210936 -123.567633 
L 303.598691 -127.469286 
L 314.986446 -131.375188 
L 326.374201 -135.285074 
L 337.761956 -139.198686 
L 349.149711 -143.115777 
L 360.537467 -147.036111 
L 371.925222 -150.959466 
L 383.312977 -154.885631 
L 394.700732 -158.81441 
L 406.088487 -162.745617 
L 417.476242 -166.679083 
L 428.863997 -170.614647 
L 440.251752 -174.552163 
L 451.639507 -178.491493 
L 463.027263 -182.432512 
L 474.415018 -186.375102 
L 485.802773 -190.319157 
L 497.190528 -194.264577 
L 508.578283 -198.21127 
L 519.966038 -202.159152 
L 531.353793 -206.108144 
L 542.741548 -210.058175 
L 554.129303 -214.009179 
L 565.517058 -217.961093 
L 576.904814 -221.91386 
L 588.292569 -225.86743 
L 599.680324 -229.821751 
L 611.068079 -233.776781 
L 622.455834 -237.732476 
L 633.843589 -241.688798 
L 633.843589 -229.435709 
L 633.843589 -229.435709 
L 622.455834 -225.718444 
L 611.068079 -222.000553 
L 599.680324 -218.281995 
L 588.292569 -214.56273 
L 576.904814 -210.842712 
L 565.517058 -207.121893 
L 554.129303 -203.40022 
L 542.741548 -199.677637 
L 531.353793 -195.954081 
L 519.966038 -192.229486 
L 508.578283 -188.503781 
L 497.190528 -184.776887 
L 485.802773 -181.04872 
L 474.415018 -177.319188 
L 463.027263 -173.588192 
L 451.639507 -169.855624 
L 440.251752 -166.121367 
L 428.863997 -162.385296 
L 417.476242 -158.647273 
L 406.088487 -154.907152 
L 394.700732 -151.164772 
L 383.312977 -147.419964 
L 371.925222 -143.672542 
L 360.537467 -139.92231 
L 349.149711 -136.169058 
L 337.761956 -132.412562 
L 326.374201 -128.652587 
L 314.986446 -124.888886 
L 303.598691 -121.121201 
L 292.210936 -117.349267 
L 280.823181 -113.572812 
L 269.435426 -109.791563 
L 258.047671 -106.005249 
L 246.659916 -102.213605 
L 235.27216 -98.416377 
L 223.884405 -94.613333 
L 212.49665 -90.80426 
L 201.108895 -86.988979 
L 189.72114 -83.167344 
L 178.333385 -79.339249 
L 166.94563 -75.504635 
L 155.557875 -71.663485 
L 144.17012 -67.81583 
L 132.782365 -63.961747 
L 121.394609 -60.101354 
L 110.006854 -56.234808 
L 98.619099 -52.362302 
L 87.231344 -48.484055 
L 75.843589 -44.600306 
z
" id="m4f9239f8ba" style="stroke:#d3d3d3;stroke-width:1.5;"/>
    </defs>
    <g clip-path="url(#pe5f99c0c54)">
     <use style="fill:#d3d3d3;stroke:#d3d3d3;stroke-width:1.5;" x="0" xlink:href="#m4f9239f8ba" y="389.573435"/>
    </g>
   </g>
   <g id="matplotlib.axis_3">
    <g id="xtick_1">
     <g id="line2d_20">
      <defs>
       <path d="M 0 0 
L 0 -9 
" id="m7f99bd2d91" style="stroke:#000000;stroke-width:1.875;"/>
      </defs>
      <g>
       <use style="stroke:#000000;stroke-width:1.875;" x="75.843589" xlink:href="#m7f99bd2d91" y="342.36"/>
      </g>
     </g>
     <g id="text_5">
      <!-- $83$ -->
      <defs>
       <path d="M 22.09375 34 
C 31 34 34.90625 26.140625 34.90625 17.09375 
C 34.90625 5.03125 28.5 0.390625 22.703125 0.390625 
C 17.40625 0.390625 8.796875 3.015625 6.09375 10.796875 
C 6.59375 10.59375 7.09375 10.59375 7.59375 10.59375 
C 10 10.59375 11.796875 12.1875 11.796875 14.796875 
C 11.796875 17.6875 9.59375 19 7.59375 19 
C 5.90625 19 3.296875 18.1875 3.296875 14.484375 
C 3.296875 5.234375 12.296875 -2 22.90625 -2 
C 34 -2 42.5 6.75 42.5 16.984375 
C 42.5 26.84375 34.5 34 25 35.09375 
C 32.59375 36.671875 39.90625 43.375 39.90625 52.390625 
C 39.90625 60.25 32 66 23 66 
C 13.90625 66 5.90625 60.34375 5.90625 52.296875 
C 5.90625 48.796875 8.5 48.1875 9.796875 48.1875 
C 11.90625 48.1875 13.703125 49.484375 13.703125 52.09375 
C 13.703125 54.6875 11.90625 56 9.796875 56 
C 9.40625 56 8.90625 56 8.5 55.796875 
C 11.40625 62.484375 19.296875 63.6875 22.796875 63.6875 
C 26.296875 63.6875 32.90625 61.96875 32.90625 52.296875 
C 32.90625 49.484375 32.5 44.546875 29.09375 40.21875 
C 26.09375 36.390625 22.703125 36.1875 19.40625 35.890625 
C 18.90625 35.890625 16.59375 35.6875 16.203125 35.6875 
C 15.5 35.59375 15.09375 35.5 15.09375 34.796875 
C 15.09375 34.09375 15.203125 34 17.203125 34 
z
" id="CMR17-51"/>
      </defs>
      <g transform="translate(67.795735 357.275505)scale(0.165 -0.165)">
       <use transform="scale(0.996264)" xlink:href="#CMR17-56"/>
       <use transform="translate(45.690477 0)scale(0.996264)" xlink:href="#CMR17-51"/>
      </g>
     </g>
    </g>
    <g id="xtick_2">
     <g id="line2d_21">
      <g>
       <use style="stroke:#000000;stroke-width:1.875;" x="168.843589" xlink:href="#m7f99bd2d91" y="342.36"/>
      </g>
     </g>
     <g id="text_6">
      <!-- $84$ -->
      <defs>
       <path d="M 33.59375 64.796875 
C 33.59375 66.890625 33.5 67 31.703125 67 
L 2 19.59375 
L 2 17 
L 27.796875 17 
L 27.796875 7.1875 
C 27.796875 3.59375 27.59375 2.59375 20.59375 2.59375 
L 18.703125 2.59375 
L 18.703125 0 
C 21.90625 0.1875 27.296875 0.1875 30.703125 0.1875 
C 34.09375 0.1875 39.5 0.1875 42.703125 0 
L 42.703125 2.59375 
L 40.796875 2.59375 
C 33.796875 2.59375 33.59375 3.59375 33.59375 7.1875 
L 33.59375 17 
L 43.796875 17 
L 43.796875 19.59375 
L 33.59375 19.59375 
z
M 28.09375 58.171875 
L 28.09375 19.59375 
L 4 19.59375 
z
" id="CMR17-52"/>
      </defs>
      <g transform="translate(160.795735 357.275505)scale(0.165 -0.165)">
       <use transform="scale(0.996264)" xlink:href="#CMR17-56"/>
       <use transform="translate(45.690477 0)scale(0.996264)" xlink:href="#CMR17-52"/>
      </g>
     </g>
    </g>
    <g id="xtick_3">
     <g id="line2d_22">
      <g>
       <use style="stroke:#000000;stroke-width:1.875;" x="261.843589" xlink:href="#m7f99bd2d91" y="342.36"/>
      </g>
     </g>
     <g id="text_7">
      <!-- $85$ -->
      <g transform="translate(253.795735 357.275505)scale(0.165 -0.165)">
       <use transform="scale(0.996264)" xlink:href="#CMR17-56"/>
       <use transform="translate(45.690477 0)scale(0.996264)" xlink:href="#CMR17-53"/>
      </g>
     </g>
    </g>
    <g id="xtick_4">
     <g id="line2d_23">
      <g>
       <use style="stroke:#000000;stroke-width:1.875;" x="354.843589" xlink:href="#m7f99bd2d91" y="342.36"/>
      </g>
     </g>
     <g id="text_8">
      <!-- $86$ -->
      <defs>
       <path d="M 10.59375 34.34375 
C 10.59375 58 21.796875 63.6875 28.296875 63.6875 
C 30.40625 63.6875 35.5 63.265625 37.5 59.09375 
C 35.90625 59.09375 32.90625 59.09375 32.90625 55.59375 
C 32.90625 52.890625 35.09375 52 36.5 52 
C 37.40625 52 40.09375 52.390625 40.09375 55.796875 
C 40.09375 62.296875 35.09375 66 28.203125 66 
C 16.296875 66 3.796875 53.296875 3.796875 31.421875 
C 3.796875 4.015625 15.09375 -2 23.09375 -2 
C 32.796875 -2 42 6.734375 42 20.234375 
C 42 32.828125 33.90625 42 23.703125 42 
C 17.59375 42 13.09375 37.96875 10.59375 30.921875 
z
M 23.09375 0.390625 
C 10.796875 0.390625 10.796875 18.9375 10.796875 22.65625 
C 10.796875 29.90625 14.203125 40.390625 23.5 40.390625 
C 25.203125 40.390625 30.09375 40.390625 33.40625 33.4375 
C 35.203125 29.515625 35.203125 25.375 35.203125 20.34375 
C 35.203125 14.90625 35.203125 10.875 33.09375 6.84375 
C 30.90625 2.703125 27.703125 0.390625 23.09375 0.390625 
z
" id="CMR17-54"/>
      </defs>
      <g transform="translate(346.795735 357.275505)scale(0.165 -0.165)">
       <use transform="scale(0.996264)" xlink:href="#CMR17-56"/>
       <use transform="translate(45.690477 0)scale(0.996264)" xlink:href="#CMR17-54"/>
      </g>
     </g>
    </g>
    <g id="xtick_5">
     <g id="line2d_24">
      <g>
       <use style="stroke:#000000;stroke-width:1.875;" x="447.843589" xlink:href="#m7f99bd2d91" y="342.36"/>
      </g>
     </g>
     <g id="text_9">
      <!-- $87$ -->
      <g transform="translate(439.795735 357.275505)scale(0.165 -0.165)">
       <use transform="scale(0.996264)" xlink:href="#CMR17-56"/>
       <use transform="translate(45.690477 0)scale(0.996264)" xlink:href="#CMR17-55"/>
      </g>
     </g>
    </g>
    <g id="xtick_6">
     <g id="line2d_25">
      <g>
       <use style="stroke:#000000;stroke-width:1.875;" x="540.843589" xlink:href="#m7f99bd2d91" y="342.36"/>
      </g>
     </g>
     <g id="text_10">
      <!-- $88$ -->
      <g transform="translate(532.795735 357.275505)scale(0.165 -0.165)">
       <use transform="scale(0.996264)" xlink:href="#CMR17-56"/>
       <use transform="translate(45.690477 0)scale(0.996264)" xlink:href="#CMR17-56"/>
      </g>
     </g>
    </g>
    <g id="xtick_7">
     <g id="line2d_26">
      <g>
       <use style="stroke:#000000;stroke-width:1.875;" x="633.843589" xlink:href="#m7f99bd2d91" y="342.36"/>
      </g>
     </g>
     <g id="text_11">
      <!-- $89$ -->
      <g transform="translate(625.795735 357.275505)scale(0.165 -0.165)">
       <use transform="scale(0.996264)" xlink:href="#CMR17-56"/>
       <use transform="translate(45.690477 0)scale(0.996264)" xlink:href="#CMR17-57"/>
      </g>
     </g>
    </g>
    <g id="text_12">
     <!-- Mass [AMU] -->
     <defs>
      <path d="M 20.90625 66.390625 
C 20.296875 67.890625 20.203125 68 18.09375 68 
L 5.296875 68 
L 5.296875 65.390625 
C 12.203125 65.390625 13.296875 65.390625 13.296875 60.90625 
L 13.296875 9.75 
C 13.296875 7.265625 13.296875 2.59375 5.296875 2.59375 
L 5.296875 0 
C 7.59375 0.1875 11.796875 0.1875 14.296875 0.1875 
C 16.796875 0.1875 21 0.1875 23.296875 0 
L 23.296875 2.59375 
C 15.296875 2.59375 15.296875 7.265625 15.296875 9.75 
L 15.296875 64.984375 
L 15.40625 64.984375 
L 38.90625 1.59375 
C 39.296875 0.59375 39.5 0 40.296875 0 
C 41.09375 0 41.296875 0.59375 41.703125 1.59375 
L 65.40625 65.484375 
L 65.5 65.484375 
L 65.5 7.078125 
C 65.5 2.59375 64.40625 2.59375 57.5 2.59375 
L 57.5 0 
C 60.203125 0.1875 65.59375 0.1875 68.5 0.1875 
C 71.40625 0.1875 76.90625 0.1875 79.59375 0 
L 79.59375 2.59375 
C 72.703125 2.59375 71.59375 2.59375 71.59375 7.078125 
L 71.59375 60.90625 
C 71.59375 65.390625 72.703125 65.390625 79.59375 65.390625 
L 79.59375 68 
L 66.90625 68 
C 64.796875 68 64.703125 67.890625 64.09375 66.390625 
L 42.5 8.0625 
z
" id="CMR17-77"/>
      <path d="M 36 25.875 
C 36 32 36 35.546875 31.796875 39.59375 
C 28.09375 42.984375 23.796875 44 20.40625 44 
C 12.5 44 6.796875 37.625 6.796875 30.890625 
C 6.796875 27.1875 9.796875 27 10.40625 27 
C 11.703125 27 14 27.796875 14 30.59375 
C 14 33.09375 12.09375 34.1875 10.40625 34.1875 
C 10 34.1875 9.5 34.09375 9.203125 34 
C 11.296875 40.53125 16.703125 42.390625 20.203125 42.390625 
C 25.203125 42.390625 30.703125 37.828125 30.703125 29.296875 
L 30.703125 25.5 
C 24.796875 25.296875 17.703125 24.5 12.09375 21.453125 
C 5.796875 17.921875 4 12.84375 4 9 
C 4 1.203125 13 -1 18.296875 -1 
C 23.796875 -1 28.90625 2.109375 31.09375 7.890625 
C 31.296875 3.421875 34.09375 -0.609375 38.5 -0.609375 
C 40.59375 -0.609375 45.90625 0.796875 45.90625 8.796875 
L 45.90625 14.46875 
L 44.09375 14.46875 
L 44.09375 8.703125 
C 44.09375 2.515625 41.40625 1.703125 40.09375 1.703125 
C 36 1.703125 36 6.96875 36 11.4375 
z
M 30.703125 13.859375 
C 30.703125 5.046875 24.5 0.59375 19 0.59375 
C 14 0.59375 10.09375 4.34375 10.09375 9 
C 10.09375 12.046875 11.40625 17.40625 17.203125 20.65625 
C 22 23.390625 27.5 23.796875 30.703125 24 
z
" id="CMR17-97"/>
      <path d="M 30.90625 42 
C 30.90625 43.796875 30.796875 43.890625 30.203125 43.890625 
C 29.796875 43.890625 29.703125 43.796875 28.5 42.296875 
C 28.203125 41.890625 27.296875 40.890625 27 40.5 
C 23.796875 43.890625 19.296875 44 17.59375 44 
C 6.5 44 2.5 38.1875 2.5 32.390625 
C 2.5 23.390625 12.703125 21.296875 15.59375 20.6875 
C 21.90625 19.390625 24.09375 19 26.203125 17.1875 
C 27.5 16 29.703125 13.796875 29.703125 10.1875 
C 29.703125 6 27.296875 0.59375 18.09375 0.59375 
C 9.40625 0.59375 6.296875 7.1875 4.5 16 
C 4.203125 17.390625 4.203125 17.5 3.40625 17.5 
C 2.59375 17.5 2.5 17.390625 2.5 15.390625 
L 2.5 1 
C 2.5 -0.8125 2.59375 -0.90625 3.203125 -0.90625 
C 3.703125 -0.90625 3.796875 -0.8125 4.296875 0 
C 4.90625 0.890625 6.40625 3.296875 7 4.296875 
C 9 1.59375 12.5 -1 18.09375 -1 
C 28 -1 33.296875 4.390625 33.296875 12.1875 
C 33.296875 17.296875 30.59375 20 29.296875 21.1875 
C 26.296875 24.296875 22.796875 25 18.59375 25.796875 
C 13.09375 27 6.09375 28.390625 6.09375 34.5 
C 6.09375 37.09375 7.5 42.59375 17.59375 42.59375 
C 28.296875 42.59375 28.90625 32.59375 29.09375 29.390625 
C 29.203125 28.890625 29.703125 28.796875 30 28.796875 
C 30.90625 28.796875 30.90625 29.09375 30.90625 30.796875 
z
" id="CMR17-115"/>
      <path d="M 23.5 -25 
L 23.5 -21.5 
L 14.09375 -21.5 
L 14.09375 71.484375 
L 23.5 71.484375 
L 23.5 75 
L 10.59375 75 
L 10.59375 -25 
z
" id="CMR17-91"/>
      <path d="M 36.296875 69.390625 
C 35.796875 70.6875 35.59375 71 34.59375 71 
C 33.59375 71 33.40625 70.6875 32.90625 69.390625 
L 11.703125 9.0625 
C 9.796875 3.6875 5.796875 2.59375 2.296875 2.59375 
L 2.296875 0 
C 4.09375 0.1875 8.09375 0.1875 10 0.1875 
C 12.5 0.1875 16.5 0.1875 18.90625 0 
L 18.90625 2.59375 
C 14.203125 2.796875 13.5 5.96875 13.5 7.171875 
C 13.5 8.0625 13.703125 8.5625 13.90625 9.15625 
L 19.203125 24 
L 45.40625 24 
L 51.40625 7.078125 
C 51.90625 5.875 51.90625 5.671875 51.90625 5.28125 
C 51.90625 2.59375 47.59375 2.59375 45.703125 2.59375 
L 45.703125 0 
C 48.59375 0.1875 53.796875 0.1875 56.90625 0.1875 
C 59.5 0.1875 64.5 0.1875 66.90625 0 
L 66.90625 2.59375 
C 61.59375 2.59375 59.796875 2.59375 58.5 6.28125 
z
M 32.296875 61.3125 
L 44.5 26.59375 
L 20.09375 26.59375 
z
" id="CMR17-65"/>
      <path d="M 54 22.53125 
C 54 9.109375 45.296875 0.59375 35.796875 0.59375 
C 30.703125 0.59375 26.09375 3.296875 23.296875 7.5 
C 20.09375 12.3125 19.703125 18.515625 19.703125 22.03125 
L 19.703125 60.890625 
C 19.703125 65.390625 20.796875 65.390625 27.703125 65.390625 
L 27.703125 68 
C 24.796875 67.796875 19.5 67.796875 16.40625 67.796875 
C 13.296875 67.796875 8 67.796875 5.09375 68 
L 5.09375 65.390625 
C 12 65.390625 13.09375 65.390625 13.09375 60.890625 
L 13.09375 22.53125 
C 13.09375 8.109375 24 -2 35.59375 -2 
C 48.59375 -2 56.09375 11.3125 56.09375 21.125 
L 56.09375 59.1875 
C 56.09375 64.796875 61.203125 65.390625 64.09375 65.390625 
L 64.09375 68 
C 61.796875 67.796875 57.59375 67.796875 55.09375 67.796875 
C 52.59375 67.796875 48.296875 67.796875 46 68 
L 46 65.390625 
C 54 65.390625 54 60.6875 54 58.1875 
z
" id="CMR17-85"/>
      <path d="M 14.296875 75 
L 1.40625 75 
L 1.40625 71.484375 
L 10.796875 71.484375 
L 10.796875 -21.5 
L 1.40625 -21.5 
L 1.40625 -25 
L 14.296875 -25 
z
" id="CMR17-93"/>
     </defs>
     <g transform="translate(309.426904 377.905251)scale(0.18 -0.18)">
      <use transform="scale(0.996264)" xlink:href="#CMR17-77"/>
      <use transform="translate(84.686941 0)scale(0.996264)" xlink:href="#CMR17-97"/>
      <use transform="translate(130.377418 0)scale(0.996264)" xlink:href="#CMR17-115"/>
      <use transform="translate(166.178755 0)scale(0.996264)" xlink:href="#CMR17-115"/>
      <use transform="translate(232.056059 0)scale(0.996264)" xlink:href="#CMR17-91"/>
      <use transform="translate(256.927118 0)scale(0.996264)" xlink:href="#CMR17-65"/>
      <use transform="translate(325.999548 0)scale(0.996264)" xlink:href="#CMR17-77"/>
      <use transform="translate(410.686488 0)scale(0.996264)" xlink:href="#CMR17-85"/>
      <use transform="translate(479.758918 0)scale(0.996264)" xlink:href="#CMR17-93"/>
     </g>
    </g>
   </g>
   <g id="matplotlib.axis_4">
    <g id="ytick_4">
     <g id="line2d_27">
      <g>
       <use style="stroke:#000000;stroke-width:1.875;" x="75.843589" xlink:href="#m7614eafd31" y="342.36"/>
      </g>
     </g>
     <g id="line2d_28">
      <g>
       <use style="stroke:#000000;stroke-width:1.875;" x="633.843589" xlink:href="#ma421d13df1" y="342.36"/>
      </g>
     </g>
     <g id="text_13">
      <!-- $0.180$ -->
      <defs>
       <path d="M 26.59375 63.796875 
C 26.59375 65.890625 26.5 66 25.09375 66 
C 21.203125 61.359375 15.296875 59.890625 9.703125 59.6875 
C 9.40625 59.6875 8.90625 59.6875 8.796875 59.5 
C 8.703125 59.296875 8.703125 59.09375 8.703125 57 
C 11.796875 57 17 57.59375 21 59.984375 
L 21 7.296875 
C 21 3.796875 20.796875 2.59375 12.203125 2.59375 
L 9.203125 2.59375 
L 9.203125 0 
C 14 0.09375 19 0.1875 23.796875 0.1875 
C 28.59375 0.1875 33.59375 0.09375 38.40625 0 
L 38.40625 2.59375 
L 35.40625 2.59375 
C 26.796875 2.59375 26.59375 3.6875 26.59375 7.296875 
z
" id="CMR17-49"/>
      </defs>
      <g transform="translate(35.681146 348.067752)scale(0.165 -0.165)">
       <use transform="scale(0.996264)" xlink:href="#CMR17-48"/>
       <use transform="translate(45.690477 0)scale(0.996264)" xlink:href="#CMMI12-58"/>
       <use transform="translate(72.787654 0)scale(0.996264)" xlink:href="#CMR17-49"/>
       <use transform="translate(118.478131 0)scale(0.996264)" xlink:href="#CMR17-56"/>
       <use transform="translate(164.168608 0)scale(0.996264)" xlink:href="#CMR17-48"/>
      </g>
     </g>
    </g>
    <g id="ytick_5">
     <g id="line2d_29">
      <g>
       <use style="stroke:#000000;stroke-width:1.875;" x="75.843589" xlink:href="#m7614eafd31" y="300.383166"/>
      </g>
     </g>
     <g id="line2d_30">
      <g>
       <use style="stroke:#000000;stroke-width:1.875;" x="633.843589" xlink:href="#ma421d13df1" y="300.383166"/>
      </g>
     </g>
     <g id="text_14">
      <!-- $0.185$ -->
      <g transform="translate(35.681146 306.090918)scale(0.165 -0.165)">
       <use transform="scale(0.996264)" xlink:href="#CMR17-48"/>
       <use transform="translate(45.690477 0)scale(0.996264)" xlink:href="#CMMI12-58"/>
       <use transform="translate(72.787654 0)scale(0.996264)" xlink:href="#CMR17-49"/>
       <use transform="translate(118.478131 0)scale(0.996264)" xlink:href="#CMR17-56"/>
       <use transform="translate(164.168608 0)scale(0.996264)" xlink:href="#CMR17-53"/>
      </g>
     </g>
    </g>
    <g id="ytick_6">
     <g id="line2d_31">
      <g>
       <use style="stroke:#000000;stroke-width:1.875;" x="75.843589" xlink:href="#m7614eafd31" y="258.406332"/>
      </g>
     </g>
     <g id="line2d_32">
      <g>
       <use style="stroke:#000000;stroke-width:1.875;" x="633.843589" xlink:href="#ma421d13df1" y="258.406332"/>
      </g>
     </g>
     <g id="text_15">
      <!-- $0.190$ -->
      <g transform="translate(35.681146 264.114084)scale(0.165 -0.165)">
       <use transform="scale(0.996264)" xlink:href="#CMR17-48"/>
       <use transform="translate(45.690477 0)scale(0.996264)" xlink:href="#CMMI12-58"/>
       <use transform="translate(72.787654 0)scale(0.996264)" xlink:href="#CMR17-49"/>
       <use transform="translate(118.478131 0)scale(0.996264)" xlink:href="#CMR17-57"/>
       <use transform="translate(164.168608 0)scale(0.996264)" xlink:href="#CMR17-48"/>
      </g>
     </g>
    </g>
    <g id="ytick_7">
     <g id="line2d_33">
      <g>
       <use style="stroke:#000000;stroke-width:1.875;" x="75.843589" xlink:href="#m7614eafd31" y="216.429498"/>
      </g>
     </g>
     <g id="line2d_34">
      <g>
       <use style="stroke:#000000;stroke-width:1.875;" x="633.843589" xlink:href="#ma421d13df1" y="216.429498"/>
      </g>
     </g>
     <g id="text_16">
      <!-- $0.195$ -->
      <g transform="translate(35.681146 222.13725)scale(0.165 -0.165)">
       <use transform="scale(0.996264)" xlink:href="#CMR17-48"/>
       <use transform="translate(45.690477 0)scale(0.996264)" xlink:href="#CMMI12-58"/>
       <use transform="translate(72.787654 0)scale(0.996264)" xlink:href="#CMR17-49"/>
       <use transform="translate(118.478131 0)scale(0.996264)" xlink:href="#CMR17-57"/>
       <use transform="translate(164.168608 0)scale(0.996264)" xlink:href="#CMR17-53"/>
      </g>
     </g>
    </g>
    <g id="ytick_8">
     <g id="line2d_35">
      <g>
       <use style="stroke:#000000;stroke-width:1.875;" x="75.843589" xlink:href="#m7614eafd31" y="174.452664"/>
      </g>
     </g>
     <g id="line2d_36">
      <g>
       <use style="stroke:#000000;stroke-width:1.875;" x="633.843589" xlink:href="#ma421d13df1" y="174.452664"/>
      </g>
     </g>
     <g id="text_17">
      <!-- $0.200$ -->
      <g transform="translate(35.681146 180.160417)scale(0.165 -0.165)">
       <use transform="scale(0.996264)" xlink:href="#CMR17-48"/>
       <use transform="translate(45.690477 0)scale(0.996264)" xlink:href="#CMMI12-58"/>
       <use transform="translate(72.787654 0)scale(0.996264)" xlink:href="#CMR17-50"/>
       <use transform="translate(118.478131 0)scale(0.996264)" xlink:href="#CMR17-48"/>
       <use transform="translate(164.168608 0)scale(0.996264)" xlink:href="#CMR17-48"/>
      </g>
     </g>
    </g>
    <g id="ytick_9">
     <g id="line2d_37">
      <g>
       <use style="stroke:#000000;stroke-width:1.875;" x="75.843589" xlink:href="#m7614eafd31" y="132.47583"/>
      </g>
     </g>
     <g id="line2d_38">
      <g>
       <use style="stroke:#000000;stroke-width:1.875;" x="633.843589" xlink:href="#ma421d13df1" y="132.47583"/>
      </g>
     </g>
     <g id="text_18">
      <!-- $0.205$ -->
      <g transform="translate(35.681146 138.183583)scale(0.165 -0.165)">
       <use transform="scale(0.996264)" xlink:href="#CMR17-48"/>
       <use transform="translate(45.690477 0)scale(0.996264)" xlink:href="#CMMI12-58"/>
       <use transform="translate(72.787654 0)scale(0.996264)" xlink:href="#CMR17-50"/>
       <use transform="translate(118.478131 0)scale(0.996264)" xlink:href="#CMR17-48"/>
       <use transform="translate(164.168608 0)scale(0.996264)" xlink:href="#CMR17-53"/>
      </g>
     </g>
    </g>
   </g>
   <g id="LineCollection_5">
    <path clip-path="url(#pe5f99c0c54)" d="M 532.06544 189.564324 
L 532.065663 189.564324 
" style="fill:none;stroke:#1f78b4;stroke-width:2.25;"/>
    <path clip-path="url(#pe5f99c0c54)" style="fill:none;stroke:#1f78b4;stroke-width:2.25;"/>
    <path clip-path="url(#pe5f99c0c54)" d="M 346.404713 248.331892 
L 346.404936 248.331892 
" style="fill:none;stroke:#1f78b4;stroke-width:2.25;"/>
    <path clip-path="url(#pe5f99c0c54)" d="M 160.791444 314.65529 
L 160.791686 314.65529 
" style="fill:none;stroke:#1f78b4;stroke-width:2.25;"/>
   </g>
   <g id="LineCollection_6">
    <path clip-path="url(#pe5f99c0c54)" d="M 532.065552 197.959691 
L 532.065552 181.168958 
" style="fill:none;stroke:#1f78b4;stroke-width:2.25;"/>
    <path clip-path="url(#pe5f99c0c54)" style="fill:none;stroke:#1f78b4;stroke-width:2.25;"/>
    <path clip-path="url(#pe5f99c0c54)" d="M 346.404825 256.727259 
L 346.404825 239.936525 
" style="fill:none;stroke:#1f78b4;stroke-width:2.25;"/>
    <path clip-path="url(#pe5f99c0c54)" d="M 160.791565 323.050656 
L 160.791565 306.259923 
" style="fill:none;stroke:#1f78b4;stroke-width:2.25;"/>
   </g>
   <g id="LineCollection_7">
    <path clip-path="url(#pe5f99c0c54)" d="M 439.369085 219.534024 
L 439.369308 219.534024 
" style="fill:none;stroke:#e31a1c;stroke-width:2.25;"/>
   </g>
   <g id="LineCollection_8">
    <path clip-path="url(#pe5f99c0c54)" d="M 439.369197 223.741549 
L 439.369197 215.326498 
" style="fill:none;stroke:#e31a1c;stroke-width:2.25;"/>
   </g>
   <g id="line2d_39">
    <path d="M 72.788888 127.135165 
L 78.89829 121.025762 
" style="fill:none;stroke:#000000;stroke-linecap:square;stroke-width:1.875;"/>
   </g>
   <g id="line2d_40">
    <path d="M 630.788888 127.135165 
L 636.89829 121.025762 
" style="fill:none;stroke:#000000;stroke-linecap:square;stroke-width:1.875;"/>
   </g>
   <g id="line2d_41">
    <g clip-path="url(#pe5f99c0c54)">
     <use style="fill:#1f78b4;stroke:#1f78b4;" x="532.06544" xlink:href="#mc56930706c" y="189.564324"/>
     <use style="fill:#1f78b4;stroke:#1f78b4;" x="508.12811" xlink:href="#mc56930706c" y="-1"/>
     <use style="fill:#1f78b4;stroke:#1f78b4;" x="375.497712" xlink:href="#mc56930706c" y="-1"/>
     <use style="fill:#1f78b4;stroke:#1f78b4;" x="346.404713" xlink:href="#mc56930706c" y="248.331892"/>
     <use style="fill:#1f78b4;stroke:#1f78b4;" x="160.791444" xlink:href="#mc56930706c" y="314.65529"/>
    </g>
   </g>
   <g id="line2d_42">
    <g clip-path="url(#pe5f99c0c54)">
     <use style="fill:#1f78b4;stroke:#1f78b4;" x="532.065663" xlink:href="#mc56930706c" y="189.564324"/>
     <use style="fill:#1f78b4;stroke:#1f78b4;" x="508.128333" xlink:href="#mc56930706c" y="-1"/>
     <use style="fill:#1f78b4;stroke:#1f78b4;" x="375.497935" xlink:href="#mc56930706c" y="-1"/>
     <use style="fill:#1f78b4;stroke:#1f78b4;" x="346.404936" xlink:href="#mc56930706c" y="248.331892"/>
     <use style="fill:#1f78b4;stroke:#1f78b4;" x="160.791686" xlink:href="#mc56930706c" y="314.65529"/>
    </g>
   </g>
   <g id="line2d_43">
    <g clip-path="url(#pe5f99c0c54)">
     <use style="fill:#1f78b4;stroke:#1f78b4;" x="532.065552" xlink:href="#m714469ab7a" y="197.959691"/>
     <use style="fill:#1f78b4;stroke:#1f78b4;" x="507.073656" xlink:href="#m714469ab7a" y="-1"/>
     <use style="fill:#1f78b4;stroke:#1f78b4;" x="376.477427" xlink:href="#m714469ab7a" y="-1"/>
     <use style="fill:#1f78b4;stroke:#1f78b4;" x="346.404825" xlink:href="#m714469ab7a" y="256.727259"/>
     <use style="fill:#1f78b4;stroke:#1f78b4;" x="160.791565" xlink:href="#m714469ab7a" y="323.050656"/>
    </g>
   </g>
   <g id="line2d_44">
    <g clip-path="url(#pe5f99c0c54)">
     <use style="fill:#1f78b4;stroke:#1f78b4;" x="532.065552" xlink:href="#m714469ab7a" y="181.168958"/>
     <use style="fill:#1f78b4;stroke:#1f78b4;" x="509.182788" xlink:href="#m714469ab7a" y="-1"/>
     <use style="fill:#1f78b4;stroke:#1f78b4;" x="374.51822" xlink:href="#m714469ab7a" y="-1"/>
     <use style="fill:#1f78b4;stroke:#1f78b4;" x="346.404825" xlink:href="#m714469ab7a" y="239.936525"/>
     <use style="fill:#1f78b4;stroke:#1f78b4;" x="160.791565" xlink:href="#m714469ab7a" y="306.259923"/>
    </g>
   </g>
   <g id="line2d_45">
    <g clip-path="url(#pe5f99c0c54)">
     <use style="fill:#e31a1c;stroke:#e31a1c;" x="439.369085" xlink:href="#mbd64b64046" y="219.534024"/>
    </g>
   </g>
   <g id="line2d_46">
    <g clip-path="url(#pe5f99c0c54)">
     <use style="fill:#e31a1c;stroke:#e31a1c;" x="439.369308" xlink:href="#mbd64b64046" y="219.534024"/>
    </g>
   </g>
   <g id="line2d_47">
    <g clip-path="url(#pe5f99c0c54)">
     <use style="fill:#e31a1c;stroke:#e31a1c;" x="439.369197" xlink:href="#mc48f3c7d4b" y="223.741549"/>
    </g>
   </g>
   <g id="line2d_48">
    <g clip-path="url(#pe5f99c0c54)">
     <use style="fill:#e31a1c;stroke:#e31a1c;" x="439.369197" xlink:href="#mc48f3c7d4b" y="215.326498"/>
    </g>
   </g>
   <g id="line2d_49">
    <path clip-path="url(#pe5f99c0c54)" d="M 75.843589 342.014061 
L 87.231344 338.177268 
L 98.619099 334.340474 
L 110.006854 330.503681 
L 121.394609 326.666887 
L 132.782365 322.830094 
L 144.17012 318.9933 
L 155.557875 315.156507 
L 166.94563 311.319714 
L 178.333385 307.48292 
L 189.72114 303.646127 
L 201.108895 299.809333 
L 212.49665 295.97254 
L 223.884405 292.135746 
L 235.27216 288.298953 
L 246.659916 284.462159 
L 258.047671 280.625366 
L 269.435426 276.788572 
L 280.823181 272.951779 
L 292.210936 269.114985 
L 303.598691 265.278192 
L 314.986446 261.441399 
L 326.374201 257.604605 
L 337.761956 253.767812 
L 349.149711 249.931018 
L 360.537467 246.094225 
L 371.925222 242.257431 
L 383.312977 238.420638 
L 394.700732 234.583844 
L 406.088487 230.747051 
L 417.476242 226.910257 
L 428.863997 223.073464 
L 440.251752 219.23667 
L 451.639507 215.399877 
L 463.027263 211.563084 
L 474.415018 207.72629 
L 485.802773 203.889497 
L 497.190528 200.052703 
L 508.578283 196.21591 
L 519.966038 192.379116 
L 531.353793 188.542323 
L 542.741548 184.705529 
L 554.129303 180.868736 
L 565.517058 177.031942 
L 576.904814 173.195149 
L 588.292569 169.358356 
L 599.680324 165.521562 
L 611.068079 161.684769 
L 622.455834 157.847975 
L 633.843589 154.011182 
" style="fill:none;stroke:#000000;stroke-linecap:square;stroke-width:2.25;"/>
   </g>
   <g id="line2d_50">
    <g clip-path="url(#pe5f99c0c54)">
     <use style="fill:#1f78b4;stroke:#1f78b4;" x="532.065552" xlink:href="#m56c3c977ed" y="189.564324"/>
     <use style="fill:#1f78b4;stroke:#1f78b4;" x="508.128222" xlink:href="#m56c3c977ed" y="-1"/>
     <use style="fill:#1f78b4;stroke:#1f78b4;" x="375.497823" xlink:href="#m56c3c977ed" y="-1"/>
     <use style="fill:#1f78b4;stroke:#1f78b4;" x="346.404825" xlink:href="#m56c3c977ed" y="248.331892"/>
     <use style="fill:#1f78b4;stroke:#1f78b4;" x="160.791565" xlink:href="#m56c3c977ed" y="314.65529"/>
    </g>
   </g>
   <g id="line2d_51">
    <g clip-path="url(#pe5f99c0c54)">
     <use style="fill:#e31a1c;stroke:#e31a1c;" x="439.369197" xlink:href="#m5c8fb2b4be" y="219.534024"/>
    </g>
   </g>
   <g id="patch_7">
    <path d="M 75.843589 342.36 
L 75.843589 124.080463 
" style="fill:none;stroke:#000000;stroke-linecap:square;stroke-linejoin:miter;stroke-width:1.875;"/>
   </g>
   <g id="patch_8">
    <path d="M 633.843589 342.36 
L 633.843589 124.080463 
" style="fill:none;stroke:#000000;stroke-linecap:square;stroke-linejoin:miter;stroke-width:1.875;"/>
   </g>
   <g id="patch_9">
    <path d="M 75.843589 342.36 
L 633.843589 342.36 
" style="fill:none;stroke:#000000;stroke-linecap:square;stroke-linejoin:miter;stroke-width:1.875;"/>
   </g>
   <g id="text_19">
    <!-- ${}^{84}\text{Sr}$ -->
    <g transform="translate(146.641047 289.754124)scale(0.18 -0.18)">
     <use transform="translate(0 36.153639)scale(0.697382)" xlink:href="#CMR17-56"/>
     <use transform="translate(31.983182 36.153639)scale(0.697382)" xlink:href="#CMR17-52"/>
     <use transform="translate(64.464496 0)scale(0.996264)" xlink:href="#CMR17-83"/>
     <use transform="translate(115.359866 0)scale(0.996264)" xlink:href="#CMR17-114"/>
    </g>
   </g>
   <g id="text_20">
    <!-- ${}^{86}\text{Sr}$ -->
    <g transform="translate(332.254307 223.430726)scale(0.18 -0.18)">
     <use transform="translate(0 36.153639)scale(0.697382)" xlink:href="#CMR17-56"/>
     <use transform="translate(31.983182 36.153639)scale(0.697382)" xlink:href="#CMR17-54"/>
     <use transform="translate(64.464496 0)scale(0.996264)" xlink:href="#CMR17-83"/>
     <use transform="translate(115.359866 0)scale(0.996264)" xlink:href="#CMR17-114"/>
    </g>
   </g>
   <g id="text_21">
    <!-- ${}^{87}\text{Sr}$ (mass-scaled) -->
    <defs>
     <path d="M 30.59375 -24.40625 
C 30.59375 -24.3125 30.59375 -24.109375 30.296875 -23.8125 
C 25.703125 -19.109375 13.40625 -6.296875 13.40625 24.9375 
C 13.40625 56.171875 25.5 68.875 30.40625 73.890625 
C 30.40625 73.984375 30.59375 74.1875 30.59375 74.484375 
C 30.59375 74.796875 30.296875 75 29.90625 75 
C 28.796875 75 20.296875 67.578125 15.40625 56.5625 
C 10.40625 45.453125 9 34.65625 9 25.046875 
C 9 17.828125 9.703125 5.625 15.703125 -7.296875 
C 20.5 -17.703125 28.703125 -25 29.90625 -25 
C 30.40625 -25 30.59375 -24.8125 30.59375 -24.40625 
z
" id="CMR17-40"/>
     <path d="M 67.59375 30.53125 
C 67.59375 35.5625 66.703125 44 54.796875 44 
C 48 44 43.296875 39.375 41.5 33.953125 
L 41.40625 33.953125 
C 40.203125 42.1875 34.296875 44 28.703125 44 
C 20.796875 44 16.703125 37.875 15.203125 33.84375 
L 15.09375 33.84375 
L 15.09375 44 
L 3.296875 42.890625 
L 3.296875 40.28125 
C 9.203125 40.28125 10.09375 39.6875 10.09375 34.859375 
L 10.09375 6.921875 
C 10.09375 3.09375 9.703125 2.59375 3.296875 2.59375 
L 3.296875 0 
C 5.703125 0.1875 10.09375 0.1875 12.703125 0.1875 
C 15.296875 0.1875 19.796875 0.1875 22.203125 0 
L 22.203125 2.59375 
C 15.796875 2.59375 15.40625 3 15.40625 6.921875 
L 15.40625 26.21875 
C 15.40625 35.453125 21 42.390625 28 42.390625 
C 35.40625 42.390625 36.203125 35.765625 36.203125 30.9375 
L 36.203125 6.921875 
C 36.203125 3.09375 35.796875 2.59375 29.40625 2.59375 
L 29.40625 0 
C 31.796875 0.1875 36.203125 0.1875 38.796875 0.1875 
C 41.40625 0.1875 45.90625 0.1875 48.296875 0 
L 48.296875 2.59375 
C 41.90625 2.59375 41.5 3 41.5 6.921875 
L 41.5 26.21875 
C 41.5 35.453125 47.09375 42.390625 54.09375 42.390625 
C 61.5 42.390625 62.296875 35.765625 62.296875 30.9375 
L 62.296875 6.921875 
C 62.296875 3.09375 61.90625 2.59375 55.5 2.59375 
L 55.5 0 
C 57.90625 0.1875 62.296875 0.1875 64.90625 0.1875 
C 67.5 0.1875 72 0.1875 74.40625 0 
L 74.40625 2.59375 
C 68 2.59375 67.59375 3 67.59375 6.921875 
z
" id="CMR17-109"/>
     <path d="M 25.5 19.59375 
L 25.5 24 
L 0.40625 24 
L 0.40625 19.59375 
z
" id="CMR17-45"/>
     <path d="M 34.90625 35 
C 33 35 30.203125 35 30.203125 31.484375 
C 30.203125 28.6875 32.5 27.890625 33.796875 27.890625 
C 34.5 27.890625 37.40625 28.1875 37.40625 31.6875 
C 37.40625 38.6875 30.59375 44 22.90625 44 
C 12.296875 44 3.296875 34.390625 3.296875 21.546875 
C 3.296875 8.140625 12.703125 -1 22.90625 -1 
C 35.296875 -1 38.40625 10.5625 38.40625 11.671875 
C 38.40625 12.078125 38.296875 12.375 37.59375 12.375 
C 36.90625 12.375 36.796875 12.28125 36.40625 10.96875 
C 33.796875 2.8125 28.09375 0.796875 23.796875 0.796875 
C 17.40625 0.796875 9.703125 6.734375 9.703125 21.640625 
C 9.703125 36.84375 17.09375 42.1875 23 42.1875 
C 26.90625 42.1875 32.703125 40.34375 34.90625 35 
z
" id="CMR17-99"/>
     <path d="M 15.296875 69 
L 3.40625 67.890625 
L 3.40625 65.296875 
C 9.296875 65.296875 10.203125 64.703125 10.203125 59.921875 
L 10.203125 6.859375 
C 10.203125 3.09375 9.796875 2.59375 3.40625 2.59375 
L 3.40625 0 
C 5.796875 0.1875 10.203125 0.1875 12.703125 0.1875 
C 15.296875 0.1875 19.703125 0.1875 22.09375 0 
L 22.09375 2.59375 
C 15.703125 2.59375 15.296875 2.984375 15.296875 6.859375 
z
" id="CMR17-108"/>
     <path d="M 38.09375 23.484375 
C 38.5 23.890625 38.5 24.09375 38.5 25.09375 
C 38.5 35.171875 33.09375 44 21.703125 44 
C 11.09375 44 2.703125 33.984375 2.703125 21.78125 
C 2.703125 8.65625 12.203125 -1 22.796875 -1 
C 34 -1 38.40625 9.671875 38.40625 11.796875 
C 38.40625 12.5 37.796875 12.5 37.59375 12.5 
C 36.90625 12.5 36.796875 12.296875 36.40625 11.078125 
C 34.203125 4.21875 28.703125 0.796875 23.5 0.796875 
C 19.203125 0.796875 14.90625 3.21875 12.203125 7.65625 
C 9.09375 12.796875 9.09375 18.75 9.09375 23.484375 
z
M 9.203125 25 
C 9.90625 39.234375 17.59375 42.390625 21.59375 42.390625 
C 28.40625 42.390625 33 36.0625 33.09375 25 
z
" id="CMR17-101"/>
     <path d="M 29.203125 67.890625 
L 29.203125 65.296875 
C 35.09375 65.296875 36 64.703125 36 60.046875 
L 36 37.046875 
C 35.59375 37.546875 31.5 44 23.40625 44 
C 13.203125 44 3.296875 34.8125 3.296875 21.5 
C 3.296875 8.265625 12.59375 -1 22.40625 -1 
C 30.90625 -1 35.296875 5.640625 35.796875 6.34375 
L 35.796875 -1 
L 47.90625 -0.203125 
L 47.90625 2.40625 
C 42 2.40625 41.09375 3.015625 41.09375 7.859375 
L 41.09375 69 
z
M 35.796875 11.90625 
C 35.796875 8.875 34 6.140625 31.703125 4.125 
C 28.296875 1.09375 24.90625 0.59375 23 0.59375 
C 20.09375 0.59375 9.703125 2.109375 9.703125 21.390625 
C 9.703125 41.1875 21.296875 42.390625 23.90625 42.390625 
C 28.5 42.390625 32.203125 39.765625 34.5 36.140625 
C 35.796875 34.015625 35.796875 33.703125 35.796875 31.890625 
z
" id="CMR17-100"/>
     <path d="M 26.296875 24.9375 
C 26.296875 32.140625 25.59375 44.359375 19.59375 57.265625 
C 14.796875 67.6875 6.59375 75 5.40625 75 
C 5.09375 75 4.703125 74.890625 4.703125 74.390625 
C 4.703125 74.1875 4.796875 74.09375 4.90625 73.890625 
C 9.703125 68.875 21.90625 56.171875 21.90625 25.046875 
C 21.90625 -6.1875 9.796875 -18.90625 4.90625 -23.90625 
C 4.796875 -24.109375 4.703125 -24.203125 4.703125 -24.40625 
C 4.703125 -24.90625 5.09375 -25 5.40625 -25 
C 6.5 -25 15 -17.609375 19.90625 -6.59375 
C 24.90625 4.515625 26.296875 15.328125 26.296875 24.9375 
z
" id="CMR17-41"/>
    </defs>
    <g transform="translate(425.419197 253.982357)scale(0.18 -0.18)">
     <use transform="translate(0 36.153639)scale(0.697382)" xlink:href="#CMR17-56"/>
     <use transform="translate(31.983182 36.153639)scale(0.697382)" xlink:href="#CMR17-55"/>
     <use transform="translate(64.464496 0)scale(0.996264)" xlink:href="#CMR17-83"/>
     <use transform="translate(115.359866 0)scale(0.996264)" xlink:href="#CMR17-114"/>
     <use transform="translate(180.7166 0)scale(0.996264)" xlink:href="#CMR17-40"/>
     <use transform="translate(215.997368 0)scale(0.996264)" xlink:href="#CMR17-109"/>
     <use transform="translate(292.916958 0)scale(0.996264)" xlink:href="#CMR17-97"/>
     <use transform="translate(338.607435 0)scale(0.996264)" xlink:href="#CMR17-115"/>
     <use transform="translate(374.408772 0)scale(0.996264)" xlink:href="#CMR17-115"/>
     <use transform="translate(410.21011 0)scale(0.996264)" xlink:href="#CMR17-45"/>
     <use transform="translate(440.286076 0)scale(0.996264)" xlink:href="#CMR17-115"/>
     <use transform="translate(476.087414 0)scale(0.996264)" xlink:href="#CMR17-99"/>
     <use transform="translate(516.573074 0)scale(0.996264)" xlink:href="#CMR17-97"/>
     <use transform="translate(562.263551 0)scale(0.996264)" xlink:href="#CMR17-108"/>
     <use transform="translate(587.13461 0)scale(0.996264)" xlink:href="#CMR17-101"/>
     <use transform="translate(627.62027 0)scale(0.996264)" xlink:href="#CMR17-100"/>
     <use transform="translate(678.51564 0)scale(0.996264)" xlink:href="#CMR17-41"/>
    </g>
   </g>
   <g id="text_22">
    <!-- ${}^{88}\text{Sr}$ -->
    <g transform="translate(517.915033 164.663159)scale(0.18 -0.18)">
     <use transform="translate(0 36.153639)scale(0.697382)" xlink:href="#CMR17-56"/>
     <use transform="translate(31.983182 36.153639)scale(0.697382)" xlink:href="#CMR17-56"/>
     <use transform="translate(64.464496 0)scale(0.996264)" xlink:href="#CMR17-83"/>
     <use transform="translate(115.359866 0)scale(0.996264)" xlink:href="#CMR17-114"/>
    </g>
   </g>
  </g>
  <g id="axes_3">
   <g id="patch_10">
    <path d="M 75.843589 342.36 
L 633.843589 342.36 
L 633.843589 16.2 
L 75.843589 16.2 
z
" style="fill:none;"/>
   </g>
   <g id="matplotlib.axis_5"/>
   <g id="matplotlib.axis_6">
    <g id="text_23">
     <!-- $I_{S}$ - 45932 $\text{cm}^{-1}$ -->
     <defs>
      <path d="M 36.796875 60.609375 
C 37.703125 64.09375 37.90625 65.09375 45.203125 65.09375 
C 47.40625 65.09375 48.203125 65.09375 48.203125 66.984375 
C 48.203125 68 47.09375 68 46.796875 68 
C 45 68 42.796875 67.796875 41 67.796875 
L 28.703125 67.796875 
C 26.703125 67.796875 24.40625 68 22.40625 68 
C 21.59375 68 20.5 68 20.5 66.09375 
C 20.5 65.09375 21.296875 65.09375 23.296875 65.09375 
C 29.5 65.09375 29.5 64.296875 29.5 63.203125 
C 29.5 62.5 29.296875 61.90625 29.09375 61.015625 
L 15.59375 7.375 
C 14.703125 3.890625 14.5 2.890625 7.203125 2.890625 
C 5 2.890625 4.09375 2.890625 4.09375 1 
C 4.09375 0 5.09375 0 5.59375 0 
C 7.40625 0 9.59375 0.1875 11.40625 0.1875 
L 23.703125 0.1875 
C 25.703125 0.1875 27.90625 0 29.90625 0 
C 30.703125 0 31.90625 0 31.90625 1.796875 
C 31.90625 2.890625 31.296875 2.890625 29.09375 2.890625 
C 22.90625 2.890625 22.90625 3.6875 22.90625 4.875 
C 22.90625 5.078125 22.90625 5.578125 23.296875 7.171875 
z
" id="CMMI12-73"/>
      <path d="M 63.5 69.09375 
C 63.5 70 62.796875 70 62.59375 70 
C 62.203125 70 62.09375 69.890625 60.90625 68.390625 
C 60.296875 67.6875 56.203125 62.53125 56.09375 62.4375 
C 52.796875 68.890625 46.203125 70 42 70 
C 29.296875 70 17.796875 58.46875 17.796875 47.25 
C 17.796875 39.796875 22.296875 35.4375 27.203125 33.75 
C 28.296875 33.34375 34.203125 31.765625 37.203125 31.0625 
C 42.296875 29.671875 43.59375 29.28125 45.703125 27.09375 
C 46.09375 26.59375 48.09375 24.3125 48.09375 19.65625 
C 48.09375 10.421875 39.5 0.890625 29.5 0.890625 
C 21.296875 0.890625 12.203125 4.359375 12.203125 15.484375 
C 12.203125 17.375 12.59375 19.75 12.90625 20.75 
C 12.90625 21.046875 13 21.53125 13 21.734375 
C 13 22.140625 12.796875 22.625 12 22.625 
C 11.09375 22.625 11 22.4375 10.59375 20.75 
L 5.5 0.390625 
C 5.5 0.296875 5.09375 -1 5.09375 -1.109375 
C 5.09375 -2 5.90625 -2 6.09375 -2 
C 6.5 -2 6.59375 -1.90625 7.796875 -0.40625 
L 12.40625 5.5625 
C 14.796875 1.984375 20 -2 29.296875 -2 
C 42.203125 -2 54 10.421875 54 22.828125 
C 54 27 53 30.671875 49.203125 34.34375 
C 47.09375 36.421875 45.296875 36.921875 36.09375 39.3125 
C 29.40625 41.09375 28.5 41.390625 26.703125 42.984375 
C 25 44.671875 23.703125 47.046875 23.703125 50.421875 
C 23.703125 58.765625 32.203125 67.296875 41.703125 67.296875 
C 51.5 67.296875 56.09375 61.34375 56.09375 51.90625 
C 56.09375 49.328125 55.59375 46.65625 55.59375 46.25 
C 55.59375 45.359375 56.40625 45.359375 56.703125 45.359375 
C 57.59375 45.359375 57.703125 45.65625 58.09375 47.25 
z
" id="CMMI12-83"/>
      <path d="M 65.90625 23 
C 67.59375 23 69.40625 23 69.40625 25 
C 69.40625 27 67.59375 27 65.90625 27 
L 11.796875 27 
C 10.09375 27 8.296875 27 8.296875 25 
C 8.296875 23 10.09375 23 11.796875 23 
z
" id="CMSY10-0"/>
     </defs>
     <g transform="translate(20.999114 237.455291)rotate(-90)scale(0.18 -0.18)">
      <use transform="translate(0 14.943915)scale(0.996264)" xlink:href="#CMMI12-73"/>
      <use transform="translate(43.024176 0)scale(0.697382)" xlink:href="#CMMI12-83"/>
      <use transform="translate(119.654172 14.943915)scale(0.996264)" xlink:href="#CMR17-45"/>
      <use transform="translate(179.806104 14.943915)scale(0.996264)" xlink:href="#CMR17-52"/>
      <use transform="translate(225.496581 14.943915)scale(0.996264)" xlink:href="#CMR17-53"/>
      <use transform="translate(271.187059 14.943915)scale(0.996264)" xlink:href="#CMR17-57"/>
      <use transform="translate(316.877536 14.943915)scale(0.996264)" xlink:href="#CMR17-51"/>
      <use transform="translate(362.568013 14.943915)scale(0.996264)" xlink:href="#CMR17-50"/>
      <use transform="translate(438.334456 14.943915)scale(0.996264)" xlink:href="#CMR17-99"/>
      <use transform="translate(478.820117 14.943915)scale(0.996264)" xlink:href="#CMR17-109"/>
      <use transform="translate(555.739707 51.097553)scale(0.697382)" xlink:href="#CMSY10-0"/>
      <use transform="translate(609.9807 51.097553)scale(0.697382)" xlink:href="#CMR17-49"/>
     </g>
    </g>
   </g>
  </g>
 </g>
 <defs>
  <clipPath id="pb996c2c7e9">
   <rect height="92.349035" width="558" x="75.843589" y="16.2"/>
  </clipPath>
  <clipPath id="pe5f99c0c54">
   <rect height="218.279537" width="558" x="75.843589" y="124.080463"/>
  </clipPath>
 </defs>
</svg>
