<?xml version="1.0" encoding="utf-8" standalone="no"?>
<!DOCTYPE svg PUBLIC "-//W3C//DTD SVG 1.1//EN"
  "http://www.w3.org/Graphics/SVG/1.1/DTD/svg11.dtd">
<!-- Created with matplotlib (https://matplotlib.org/) -->
<svg height="405.033435pt" version="1.1" viewBox="0 0 551.421604 405.033435" width="551.421604pt" xmlns="http://www.w3.org/2000/svg" xmlns:xlink="http://www.w3.org/1999/xlink">
 <defs>
  <style type="text/css">
*{stroke-linecap:butt;stroke-linejoin:round;}
  </style>
 </defs>
 <g id="figure_1">
  <g id="patch_1">
   <path d="M 0 405.033435 
L 551.421604 405.033435 
L 551.421604 0 
L 0 0 
z
" style="fill:#ffffff;"/>
  </g>
  <g id="axes_1">
   <g id="patch_2">
    <path d="M 48.697312 357.82 
L 538.221604 357.82 
L 538.221604 13.2 
L 48.697312 13.2 
z
" style="fill:#ffffff;"/>
   </g>
   <g id="matplotlib.axis_1">
    <g id="xtick_1">
     <g id="line2d_1">
      <defs>
       <path d="M 0 0 
L 0 -9 
" id="m3bed8bcb4f" style="stroke:#000000;stroke-width:1.875;"/>
      </defs>
      <g>
       <use style="stroke:#000000;stroke-width:1.875;" x="60.081598" xlink:href="#m3bed8bcb4f" y="357.82"/>
      </g>
     </g>
     <g id="line2d_2">
      <defs>
       <path d="M 0 0 
L 0 9 
" id="m8b421ebdad" style="stroke:#000000;stroke-width:1.875;"/>
      </defs>
      <g>
       <use style="stroke:#000000;stroke-width:1.875;" x="60.081598" xlink:href="#m8b421ebdad" y="13.2"/>
      </g>
     </g>
     <g id="text_1">
      <!-- $0$ -->
      <defs>
       <path d="M 42 31.84375 
C 42 37.96875 41.90625 48.421875 37.703125 56.453125 
C 34 63.484375 28.09375 66 22.90625 66 
C 18.09375 66 12 63.78125 8.203125 56.5625 
C 4.203125 49.015625 3.796875 39.671875 3.796875 31.84375 
C 3.796875 26.109375 3.90625 17.375 7 9.734375 
C 11.296875 -0.609375 19 -2 22.90625 -2 
C 27.5 -2 34.5 -0.109375 38.59375 9.4375 
C 41.59375 16.375 42 24.5 42 31.84375 
z
M 22.90625 -0.40625 
C 16.5 -0.40625 12.703125 5.125 11.296875 12.75 
C 10.203125 18.6875 10.203125 27.328125 10.203125 32.953125 
C 10.203125 40.6875 10.203125 47.109375 11.5 53.234375 
C 13.40625 61.78125 19 64.390625 22.90625 64.390625 
C 27 64.390625 32.296875 61.671875 34.203125 53.4375 
C 35.5 47.71875 35.59375 40.984375 35.59375 32.953125 
C 35.59375 26.421875 35.59375 18.375 34.40625 12.453125 
C 32.296875 1.5 26.40625 -0.40625 22.90625 -0.40625 
z
" id="CMR17-48"/>
      </defs>
      <g transform="translate(56.057671 372.735505)scale(0.165 -0.165)">
       <use transform="scale(0.996264)" xlink:href="#CMR17-48"/>
      </g>
     </g>
    </g>
    <g id="xtick_2">
     <g id="line2d_3">
      <g>
       <use style="stroke:#000000;stroke-width:1.875;" x="117.003027" xlink:href="#m3bed8bcb4f" y="357.82"/>
      </g>
     </g>
     <g id="line2d_4">
      <g>
       <use style="stroke:#000000;stroke-width:1.875;" x="117.003027" xlink:href="#m8b421ebdad" y="13.2"/>
      </g>
     </g>
     <g id="text_2">
      <!-- $5$ -->
      <defs>
       <path d="M 11.40625 58.59375 
C 12.40625 58.1875 16.5 56.890625 20.703125 56.890625 
C 30 56.890625 35.09375 61.890625 38 64.6875 
C 38 65.484375 38 66 37.40625 66 
C 37.296875 66 37.09375 66 36.296875 65.59375 
C 32.796875 64.09375 28.703125 63 23.703125 63 
C 20.703125 63 16.203125 63.359375 11.296875 65.484375 
C 10.203125 66 10 66 9.90625 66 
C 9.40625 66 9.296875 65.890625 9.296875 63.90625 
L 9.296875 34.859375 
C 9.296875 33.015625 9.296875 32.5 10.296875 32.5 
C 10.796875 32.5 11 32.703125 11.5 33.421875 
C 14.703125 38.046875 19.09375 40 24.09375 40 
C 27.59375 40 35.09375 37.734375 35.09375 20.203125 
C 35.09375 16.984375 35.09375 11.1875 32.09375 6.59375 
C 29.59375 2.484375 25.703125 0.390625 21.40625 0.390625 
C 14.796875 0.390625 8.09375 4.984375 6.296875 12.6875 
C 6.703125 12.59375 7.5 12.390625 7.90625 12.390625 
C 9.203125 12.390625 11.703125 13.09375 11.703125 16.1875 
C 11.703125 18.890625 9.796875 20 7.90625 20 
C 5.59375 20 4.09375 18.59375 4.09375 15.796875 
C 4.09375 7.09375 11 -2 21.59375 -2 
C 31.90625 -2 41.703125 6.890625 41.703125 19.796875 
C 41.703125 32.09375 33.90625 41.59375 24.203125 41.59375 
C 19.09375 41.59375 14.796875 39.6875 11.40625 36 
z
" id="CMR17-53"/>
      </defs>
      <g transform="translate(112.9791 372.735505)scale(0.165 -0.165)">
       <use transform="scale(0.996264)" xlink:href="#CMR17-53"/>
      </g>
     </g>
    </g>
    <g id="xtick_3">
     <g id="line2d_5">
      <g>
       <use style="stroke:#000000;stroke-width:1.875;" x="173.924456" xlink:href="#m3bed8bcb4f" y="357.82"/>
      </g>
     </g>
     <g id="line2d_6">
      <g>
       <use style="stroke:#000000;stroke-width:1.875;" x="173.924456" xlink:href="#m8b421ebdad" y="13.2"/>
      </g>
     </g>
     <g id="text_3">
      <!-- $10$ -->
      <defs>
       <path d="M 26.59375 63.796875 
C 26.59375 65.890625 26.5 66 25.09375 66 
C 21.203125 61.359375 15.296875 59.890625 9.703125 59.6875 
C 9.40625 59.6875 8.90625 59.6875 8.796875 59.5 
C 8.703125 59.296875 8.703125 59.09375 8.703125 57 
C 11.796875 57 17 57.59375 21 59.984375 
L 21 7.296875 
C 21 3.796875 20.796875 2.59375 12.203125 2.59375 
L 9.203125 2.59375 
L 9.203125 0 
C 14 0.09375 19 0.1875 23.796875 0.1875 
C 28.59375 0.1875 33.59375 0.09375 38.40625 0 
L 38.40625 2.59375 
L 35.40625 2.59375 
C 26.796875 2.59375 26.59375 3.6875 26.59375 7.296875 
z
" id="CMR17-49"/>
      </defs>
      <g transform="translate(165.876602 372.735505)scale(0.165 -0.165)">
       <use transform="scale(0.996264)" xlink:href="#CMR17-49"/>
       <use transform="translate(45.690477 0)scale(0.996264)" xlink:href="#CMR17-48"/>
      </g>
     </g>
    </g>
    <g id="xtick_4">
     <g id="line2d_7">
      <g>
       <use style="stroke:#000000;stroke-width:1.875;" x="230.845885" xlink:href="#m3bed8bcb4f" y="357.82"/>
      </g>
     </g>
     <g id="line2d_8">
      <g>
       <use style="stroke:#000000;stroke-width:1.875;" x="230.845885" xlink:href="#m8b421ebdad" y="13.2"/>
      </g>
     </g>
     <g id="text_4">
      <!-- $15$ -->
      <g transform="translate(222.798031 372.735505)scale(0.165 -0.165)">
       <use transform="scale(0.996264)" xlink:href="#CMR17-49"/>
       <use transform="translate(45.690477 0)scale(0.996264)" xlink:href="#CMR17-53"/>
      </g>
     </g>
    </g>
    <g id="xtick_5">
     <g id="line2d_9">
      <g>
       <use style="stroke:#000000;stroke-width:1.875;" x="287.767315" xlink:href="#m3bed8bcb4f" y="357.82"/>
      </g>
     </g>
     <g id="line2d_10">
      <g>
       <use style="stroke:#000000;stroke-width:1.875;" x="287.767315" xlink:href="#m8b421ebdad" y="13.2"/>
      </g>
     </g>
     <g id="text_5">
      <!-- $20$ -->
      <defs>
       <path d="M 41.703125 15.46875 
L 39.90625 15.46875 
C 38.90625 8.390625 38.09375 7.1875 37.703125 6.59375 
C 37.203125 5.796875 30 5.796875 28.59375 5.796875 
L 9.40625 5.796875 
C 13 9.6875 20 16.765625 28.5 24.9375 
C 34.59375 30.71875 41.703125 37.5 41.703125 47.390625 
C 41.703125 59.1875 32.296875 66 21.796875 66 
C 10.796875 66 4.09375 56.296875 4.09375 47.296875 
C 4.09375 43.390625 7 42.890625 8.203125 42.890625 
C 9.203125 42.890625 12.203125 43.484375 12.203125 46.984375 
C 12.203125 50.09375 9.59375 51 8.203125 51 
C 7.59375 51 7 50.890625 6.59375 50.6875 
C 8.5 59.1875 14.296875 63.390625 20.40625 63.390625 
C 29.09375 63.390625 34.796875 56.5 34.796875 47.390625 
C 34.796875 38.703125 29.703125 31.21875 24 24.734375 
L 4.09375 2.296875 
L 4.09375 0 
L 39.296875 0 
z
" id="CMR17-50"/>
      </defs>
      <g transform="translate(279.719461 372.735505)scale(0.165 -0.165)">
       <use transform="scale(0.996264)" xlink:href="#CMR17-50"/>
       <use transform="translate(45.690477 0)scale(0.996264)" xlink:href="#CMR17-48"/>
      </g>
     </g>
    </g>
    <g id="xtick_6">
     <g id="line2d_11">
      <g>
       <use style="stroke:#000000;stroke-width:1.875;" x="344.688744" xlink:href="#m3bed8bcb4f" y="357.82"/>
      </g>
     </g>
     <g id="line2d_12">
      <g>
       <use style="stroke:#000000;stroke-width:1.875;" x="344.688744" xlink:href="#m8b421ebdad" y="13.2"/>
      </g>
     </g>
     <g id="text_6">
      <!-- $25$ -->
      <g transform="translate(336.64089 372.735505)scale(0.165 -0.165)">
       <use transform="scale(0.996264)" xlink:href="#CMR17-50"/>
       <use transform="translate(45.690477 0)scale(0.996264)" xlink:href="#CMR17-53"/>
      </g>
     </g>
    </g>
    <g id="xtick_7">
     <g id="line2d_13">
      <g>
       <use style="stroke:#000000;stroke-width:1.875;" x="401.610173" xlink:href="#m3bed8bcb4f" y="357.82"/>
      </g>
     </g>
     <g id="line2d_14">
      <g>
       <use style="stroke:#000000;stroke-width:1.875;" x="401.610173" xlink:href="#m8b421ebdad" y="13.2"/>
      </g>
     </g>
     <g id="text_7">
      <!-- $30$ -->
      <defs>
       <path d="M 22.09375 34 
C 31 34 34.90625 26.140625 34.90625 17.09375 
C 34.90625 5.03125 28.5 0.390625 22.703125 0.390625 
C 17.40625 0.390625 8.796875 3.015625 6.09375 10.796875 
C 6.59375 10.59375 7.09375 10.59375 7.59375 10.59375 
C 10 10.59375 11.796875 12.1875 11.796875 14.796875 
C 11.796875 17.6875 9.59375 19 7.59375 19 
C 5.90625 19 3.296875 18.1875 3.296875 14.484375 
C 3.296875 5.234375 12.296875 -2 22.90625 -2 
C 34 -2 42.5 6.75 42.5 16.984375 
C 42.5 26.84375 34.5 34 25 35.09375 
C 32.59375 36.671875 39.90625 43.375 39.90625 52.390625 
C 39.90625 60.25 32 66 23 66 
C 13.90625 66 5.90625 60.34375 5.90625 52.296875 
C 5.90625 48.796875 8.5 48.1875 9.796875 48.1875 
C 11.90625 48.1875 13.703125 49.484375 13.703125 52.09375 
C 13.703125 54.6875 11.90625 56 9.796875 56 
C 9.40625 56 8.90625 56 8.5 55.796875 
C 11.40625 62.484375 19.296875 63.6875 22.796875 63.6875 
C 26.296875 63.6875 32.90625 61.96875 32.90625 52.296875 
C 32.90625 49.484375 32.5 44.546875 29.09375 40.21875 
C 26.09375 36.390625 22.703125 36.1875 19.40625 35.890625 
C 18.90625 35.890625 16.59375 35.6875 16.203125 35.6875 
C 15.5 35.59375 15.09375 35.5 15.09375 34.796875 
C 15.09375 34.09375 15.203125 34 17.203125 34 
z
" id="CMR17-51"/>
      </defs>
      <g transform="translate(393.562319 372.735505)scale(0.165 -0.165)">
       <use transform="scale(0.996264)" xlink:href="#CMR17-51"/>
       <use transform="translate(45.690477 0)scale(0.996264)" xlink:href="#CMR17-48"/>
      </g>
     </g>
    </g>
    <g id="xtick_8">
     <g id="line2d_15">
      <g>
       <use style="stroke:#000000;stroke-width:1.875;" x="458.531603" xlink:href="#m3bed8bcb4f" y="357.82"/>
      </g>
     </g>
     <g id="line2d_16">
      <g>
       <use style="stroke:#000000;stroke-width:1.875;" x="458.531603" xlink:href="#m8b421ebdad" y="13.2"/>
      </g>
     </g>
     <g id="text_8">
      <!-- $35$ -->
      <g transform="translate(450.483749 372.735505)scale(0.165 -0.165)">
       <use transform="scale(0.996264)" xlink:href="#CMR17-51"/>
       <use transform="translate(45.690477 0)scale(0.996264)" xlink:href="#CMR17-53"/>
      </g>
     </g>
    </g>
    <g id="xtick_9">
     <g id="line2d_17">
      <g>
       <use style="stroke:#000000;stroke-width:1.875;" x="515.453032" xlink:href="#m3bed8bcb4f" y="357.82"/>
      </g>
     </g>
     <g id="line2d_18">
      <g>
       <use style="stroke:#000000;stroke-width:1.875;" x="515.453032" xlink:href="#m8b421ebdad" y="13.2"/>
      </g>
     </g>
     <g id="text_9">
      <!-- $40$ -->
      <defs>
       <path d="M 33.59375 64.796875 
C 33.59375 66.890625 33.5 67 31.703125 67 
L 2 19.59375 
L 2 17 
L 27.796875 17 
L 27.796875 7.1875 
C 27.796875 3.59375 27.59375 2.59375 20.59375 2.59375 
L 18.703125 2.59375 
L 18.703125 0 
C 21.90625 0.1875 27.296875 0.1875 30.703125 0.1875 
C 34.09375 0.1875 39.5 0.1875 42.703125 0 
L 42.703125 2.59375 
L 40.796875 2.59375 
C 33.796875 2.59375 33.59375 3.59375 33.59375 7.1875 
L 33.59375 17 
L 43.796875 17 
L 43.796875 19.59375 
L 33.59375 19.59375 
z
M 28.09375 58.171875 
L 28.09375 19.59375 
L 4 19.59375 
z
" id="CMR17-52"/>
      </defs>
      <g transform="translate(507.405178 372.735505)scale(0.165 -0.165)">
       <use transform="scale(0.996264)" xlink:href="#CMR17-52"/>
       <use transform="translate(45.690477 0)scale(0.996264)" xlink:href="#CMR17-48"/>
      </g>
     </g>
    </g>
    <g id="text_10">
     <!-- UV power [mW] -->
     <defs>
      <path d="M 54 22.53125 
C 54 9.109375 45.296875 0.59375 35.796875 0.59375 
C 30.703125 0.59375 26.09375 3.296875 23.296875 7.5 
C 20.09375 12.3125 19.703125 18.515625 19.703125 22.03125 
L 19.703125 60.890625 
C 19.703125 65.390625 20.796875 65.390625 27.703125 65.390625 
L 27.703125 68 
C 24.796875 67.796875 19.5 67.796875 16.40625 67.796875 
C 13.296875 67.796875 8 67.796875 5.09375 68 
L 5.09375 65.390625 
C 12 65.390625 13.09375 65.390625 13.09375 60.890625 
L 13.09375 22.53125 
C 13.09375 8.109375 24 -2 35.59375 -2 
C 48.59375 -2 56.09375 11.3125 56.09375 21.125 
L 56.09375 59.1875 
C 56.09375 64.796875 61.203125 65.390625 64.09375 65.390625 
L 64.09375 68 
C 61.796875 67.796875 57.59375 67.796875 55.09375 67.796875 
C 52.59375 67.796875 48.296875 67.796875 46 68 
L 46 65.390625 
C 54 65.390625 54 60.6875 54 58.1875 
z
" id="CMR17-85"/>
      <path d="M 59 58.78125 
C 59.90625 60.984375 61.5 65.296875 68.203125 65.390625 
L 68.203125 68 
C 65.90625 67.796875 63.296875 67.796875 60.796875 67.796875 
C 58.40625 67.796875 54.296875 67.796875 52 68 
L 52 65.390625 
C 57 65.09375 57.203125 61.59375 57.203125 60.984375 
C 57.203125 59.890625 56.90625 59.1875 56.59375 58.390625 
L 36.90625 7 
L 16.296875 60.984375 
C 16 61.6875 15.796875 62.1875 15.796875 62.6875 
C 15.796875 65.390625 19.796875 65.390625 21.90625 65.390625 
L 21.90625 68 
C 18.703125 67.796875 14 67.796875 10.703125 67.796875 
C 8.09375 67.796875 3.40625 67.796875 1 68 
L 1 65.390625 
C 6.796875 65.390625 7.90625 65 9.09375 61.796875 
L 32.90625 -0.40625 
C 33.40625 -1.8125 33.5 -2 34.59375 -2 
C 35.703125 -2 35.796875 -1.8125 36.296875 -0.40625 
z
" id="CMR17-86"/>
      <path d="M 22 -17.40625 
C 15.59375 -17.40625 15.203125 -17 15.203125 -13.03125 
L 15.203125 5.9375 
C 18.09375 1.703125 22.296875 -1 27.59375 -1 
C 37.59375 -1 47.703125 7.859375 47.703125 21.59375 
C 47.703125 34.3125 39 44 28.703125 44 
C 22.703125 44 17.796875 40.671875 15 36.640625 
L 15 44 
L 3.09375 42.890625 
L 3.09375 40.265625 
C 9 40.265625 9.90625 39.671875 9.90625 34.8125 
L 9.90625 -13.03125 
C 9.90625 -16.890625 9.5 -17.40625 3.09375 -17.40625 
L 3.09375 -20 
C 5.5 -19.8125 9.90625 -19.8125 12.5 -19.8125 
C 15.09375 -19.8125 19.59375 -19.8125 22 -20 
z
M 15.203125 31.484375 
C 15.203125 32.90625 15.203125 35.015625 19.09375 38.765625 
C 19.59375 39.15625 23 42.1875 28 42.1875 
C 35.296875 42.1875 41.296875 33 41.296875 21.5 
C 41.296875 9.984375 34.90625 0.59375 27 0.59375 
C 23.40625 0.59375 19.5 2.3125 16.5 7.046875 
C 15.203125 9.28125 15.203125 9.875 15.203125 11.5 
z
" id="CMR17-112"/>
      <path d="M 43.09375 21.1875 
C 43.09375 34 33.796875 44 22.90625 44 
C 12 44 2.703125 34 2.703125 21.1875 
C 2.703125 8.59375 12 -1 22.90625 -1 
C 33.796875 -1 43.09375 8.59375 43.09375 21.1875 
z
M 22.90625 0.796875 
C 18.203125 0.796875 14.203125 3.59375 11.90625 7.5 
C 9.40625 12 9.09375 17.59375 9.09375 22 
C 9.09375 26.1875 9.296875 31.390625 11.90625 35.890625 
C 13.90625 39.1875 17.796875 42.390625 22.90625 42.390625 
C 27.40625 42.390625 31.203125 39.890625 33.59375 36.390625 
C 36.703125 31.6875 36.703125 25.09375 36.703125 22 
C 36.703125 18.09375 36.5 12.09375 33.796875 7.296875 
C 31 2.6875 26.703125 0.796875 22.90625 0.796875 
z
" id="CMR17-111"/>
      <path d="M 58.203125 34.15625 
C 60.203125 40.09375 64.203125 40.296875 65.703125 40.390625 
L 65.703125 43 
C 63.703125 42.890625 61.703125 42.796875 59.703125 42.796875 
C 57.796875 42.796875 53.5 42.796875 51.796875 43 
L 51.796875 40.390625 
C 54.90625 40.1875 56.59375 38.375 56.59375 35.875 
C 56.59375 35.171875 56.40625 34.265625 56.203125 33.5625 
L 46.796875 6.21875 
L 36.59375 35.875 
C 36.40625 36.578125 36.09375 37.375 36.09375 37.78125 
C 36.09375 40.390625 39.5 40.390625 41.09375 40.390625 
L 41.09375 43 
C 38.796875 42.796875 34.59375 42.796875 32.203125 42.796875 
C 29.703125 42.796875 27.09375 42.796875 24.796875 43 
L 24.796875 40.390625 
C 30.296875 40.390625 30.296875 40.1875 32.40625 33.859375 
L 23.203125 6.921875 
L 13.296875 35.96875 
C 12.796875 37.28125 12.796875 37.484375 12.796875 37.78125 
C 12.796875 40.390625 16.203125 40.390625 17.796875 40.390625 
L 17.796875 43 
C 15.40625 42.796875 11.203125 42.796875 8.703125 42.796875 
C 6.5 42.796875 3.09375 42.796875 1 43 
L 1 40.390625 
C 5.40625 40.390625 6.5 40.09375 7.59375 36.765625 
L 19.90625 0.59375 
C 20.296875 -0.703125 20.59375 -1 21.40625 -1 
C 22.09375 -1 22.5 -0.8125 23 0.6875 
L 33.296875 31.046875 
L 43.703125 0.6875 
C 44.203125 -0.8125 44.59375 -1 45.296875 -1 
C 46.09375 -1 46.40625 -0.703125 46.796875 0.59375 
z
" id="CMR17-119"/>
      <path d="M 38.09375 23.484375 
C 38.5 23.890625 38.5 24.09375 38.5 25.09375 
C 38.5 35.171875 33.09375 44 21.703125 44 
C 11.09375 44 2.703125 33.984375 2.703125 21.78125 
C 2.703125 8.65625 12.203125 -1 22.796875 -1 
C 34 -1 38.40625 9.671875 38.40625 11.796875 
C 38.40625 12.5 37.796875 12.5 37.59375 12.5 
C 36.90625 12.5 36.796875 12.296875 36.40625 11.078125 
C 34.203125 4.21875 28.703125 0.796875 23.5 0.796875 
C 19.203125 0.796875 14.90625 3.21875 12.203125 7.65625 
C 9.09375 12.796875 9.09375 18.75 9.09375 23.484375 
z
M 9.203125 25 
C 9.90625 39.234375 17.59375 42.390625 21.59375 42.390625 
C 28.40625 42.390625 33 36.0625 33.09375 25 
z
" id="CMR17-101"/>
      <path d="M 15 23.703125 
C 15 33.34375 19.09375 42.390625 26.59375 42.390625 
C 27.296875 42.390625 28 42.296875 28.703125 41.984375 
C 28.703125 41.984375 26.5 41.28125 26.5 38.671875 
C 26.5 36.265625 28.40625 35.265625 29.90625 35.265625 
C 31.09375 35.265625 33.296875 35.96875 33.296875 38.78125 
C 33.296875 41.984375 30.09375 44 26.703125 44 
C 19.09375 44 15.796875 36.5625 14.796875 33.046875 
L 14.703125 33.046875 
L 14.703125 44 
L 3.09375 42.890625 
L 3.09375 40.28125 
C 9 40.28125 9.90625 39.6875 9.90625 34.859375 
L 9.90625 6.921875 
C 9.90625 3.09375 9.5 2.59375 3.09375 2.59375 
L 3.09375 0 
C 5.5 0.1875 10.09375 0.1875 12.703125 0.1875 
C 15.59375 0.1875 20.703125 0.1875 23.40625 0 
L 23.40625 2.59375 
C 16.203125 2.59375 15 2.59375 15 7.109375 
z
" id="CMR17-114"/>
      <path d="M 23.5 -25 
L 23.5 -21.5 
L 14.09375 -21.5 
L 14.09375 71.484375 
L 23.5 71.484375 
L 23.5 75 
L 10.59375 75 
L 10.59375 -25 
z
" id="CMR17-91"/>
      <path d="M 67.59375 30.53125 
C 67.59375 35.5625 66.703125 44 54.796875 44 
C 48 44 43.296875 39.375 41.5 33.953125 
L 41.40625 33.953125 
C 40.203125 42.1875 34.296875 44 28.703125 44 
C 20.796875 44 16.703125 37.875 15.203125 33.84375 
L 15.09375 33.84375 
L 15.09375 44 
L 3.296875 42.890625 
L 3.296875 40.28125 
C 9.203125 40.28125 10.09375 39.6875 10.09375 34.859375 
L 10.09375 6.921875 
C 10.09375 3.09375 9.703125 2.59375 3.296875 2.59375 
L 3.296875 0 
C 5.703125 0.1875 10.09375 0.1875 12.703125 0.1875 
C 15.296875 0.1875 19.796875 0.1875 22.203125 0 
L 22.203125 2.59375 
C 15.796875 2.59375 15.40625 3 15.40625 6.921875 
L 15.40625 26.21875 
C 15.40625 35.453125 21 42.390625 28 42.390625 
C 35.40625 42.390625 36.203125 35.765625 36.203125 30.9375 
L 36.203125 6.921875 
C 36.203125 3.09375 35.796875 2.59375 29.40625 2.59375 
L 29.40625 0 
C 31.796875 0.1875 36.203125 0.1875 38.796875 0.1875 
C 41.40625 0.1875 45.90625 0.1875 48.296875 0 
L 48.296875 2.59375 
C 41.90625 2.59375 41.5 3 41.5 6.921875 
L 41.5 26.21875 
C 41.5 35.453125 47.09375 42.390625 54.09375 42.390625 
C 61.5 42.390625 62.296875 35.765625 62.296875 30.9375 
L 62.296875 6.921875 
C 62.296875 3.09375 61.90625 2.59375 55.5 2.59375 
L 55.5 0 
C 57.90625 0.1875 62.296875 0.1875 64.90625 0.1875 
C 67.5 0.1875 72 0.1875 74.40625 0 
L 74.40625 2.59375 
C 68 2.59375 67.59375 3 67.59375 6.921875 
z
" id="CMR17-109"/>
      <path d="M 86.296875 58.984375 
C 87.203125 61.6875 88.703125 65.203125 94.5 65.390625 
L 94.5 68 
C 92.796875 67.890625 89.296875 67.796875 87.5 67.796875 
C 85 67.796875 80.59375 67.796875 78.203125 68 
L 78.203125 65.390625 
C 82.703125 65.296875 84.59375 62.796875 84.59375 60.390625 
C 84.59375 59.6875 84.5 59.28125 84.09375 58.1875 
L 68.59375 8.703125 
L 52.296875 60.78125 
C 52 61.796875 51.90625 62.1875 51.90625 62.59375 
C 51.90625 65.390625 56.296875 65.390625 58.203125 65.390625 
L 58.203125 68 
C 55.296875 67.796875 50.296875 67.796875 47.203125 67.796875 
C 44.703125 67.796875 40.203125 67.796875 37.90625 68 
L 37.90625 65.390625 
C 42.5 65.390625 43.703125 65.09375 44.703125 63.296875 
C 45.09375 62.390625 46.703125 57.1875 46.703125 56.875 
C 46.703125 56.484375 46.5 55.875 46.40625 55.578125 
L 31.703125 8.8125 
L 15.40625 60.78125 
C 14.90625 62.1875 14.90625 62.390625 14.90625 62.59375 
C 14.90625 65.390625 19.296875 65.390625 21.296875 65.390625 
L 21.296875 68 
C 18.40625 67.796875 13.40625 67.796875 10.296875 67.796875 
C 7.703125 67.796875 3.296875 67.796875 0.90625 68 
L 0.90625 65.390625 
C 6.90625 65.390625 7.296875 64.796875 8.296875 61.59375 
L 27.796875 -0.3125 
C 28.296875 -1.8125 28.296875 -2 29.203125 -2 
C 30 -2 30.296875 -1.8125 30.703125 -0.40625 
L 47.703125 53.875 
L 64.703125 -0.40625 
C 65.09375 -1.8125 65.40625 -2 66.203125 -2 
C 67.09375 -2 67.09375 -1.8125 67.59375 -0.3125 
z
" id="CMR17-87"/>
      <path d="M 14.296875 75 
L 1.40625 75 
L 1.40625 71.484375 
L 10.796875 71.484375 
L 10.796875 -21.5 
L 1.40625 -21.5 
L 1.40625 -25 
L 14.296875 -25 
z
" id="CMR17-93"/>
     </defs>
     <g transform="translate(234.391154 393.365251)scale(0.18 -0.18)">
      <use transform="scale(0.996264)" xlink:href="#CMR17-85"/>
      <use transform="translate(69.07243 0)scale(0.996264)" xlink:href="#CMR17-86"/>
      <use transform="translate(168.220826 0)scale(0.996264)" xlink:href="#CMR17-112"/>
      <use transform="translate(221.718634 0)scale(0.996264)" xlink:href="#CMR17-111"/>
      <use transform="translate(264.806658 0)scale(0.996264)" xlink:href="#CMR17-119"/>
      <use transform="translate(328.714084 0)scale(0.996264)" xlink:href="#CMR17-101"/>
      <use transform="translate(369.199745 0)scale(0.996264)" xlink:href="#CMR17-114"/>
      <use transform="translate(434.556479 0)scale(0.996264)" xlink:href="#CMR17-91"/>
      <use transform="translate(459.427537 0)scale(0.996264)" xlink:href="#CMR17-109"/>
      <use transform="translate(536.347127 0)scale(0.996264)" xlink:href="#CMR17-87"/>
      <use transform="translate(631.443777 0)scale(0.996264)" xlink:href="#CMR17-93"/>
     </g>
    </g>
   </g>
   <g id="matplotlib.axis_2">
    <g id="ytick_1">
     <g id="line2d_19">
      <defs>
       <path d="M 0 0 
L 9 0 
" id="ma981845110" style="stroke:#000000;stroke-width:1.875;"/>
      </defs>
      <g>
       <use style="stroke:#000000;stroke-width:1.875;" x="48.697312" xlink:href="#ma981845110" y="350.328261"/>
      </g>
     </g>
     <g id="line2d_20">
      <defs>
       <path d="M 0 0 
L -9 0 
" id="m07973a42d3" style="stroke:#000000;stroke-width:1.875;"/>
      </defs>
      <g>
       <use style="stroke:#000000;stroke-width:1.875;" x="538.221604" xlink:href="#m07973a42d3" y="350.328261"/>
      </g>
     </g>
     <g id="text_11">
      <!-- $0$ -->
      <g transform="translate(37.149458 356.036013)scale(0.165 -0.165)">
       <use transform="scale(0.996264)" xlink:href="#CMR17-48"/>
      </g>
     </g>
    </g>
    <g id="ytick_2">
     <g id="line2d_21">
      <g>
       <use style="stroke:#000000;stroke-width:1.875;" x="48.697312" xlink:href="#ma981845110" y="275.41087"/>
      </g>
     </g>
     <g id="line2d_22">
      <g>
       <use style="stroke:#000000;stroke-width:1.875;" x="538.221604" xlink:href="#m07973a42d3" y="275.41087"/>
      </g>
     </g>
     <g id="text_12">
      <!-- $10$ -->
      <g transform="translate(29.101604 281.118622)scale(0.165 -0.165)">
       <use transform="scale(0.996264)" xlink:href="#CMR17-49"/>
       <use transform="translate(45.690477 0)scale(0.996264)" xlink:href="#CMR17-48"/>
      </g>
     </g>
    </g>
    <g id="ytick_3">
     <g id="line2d_23">
      <g>
       <use style="stroke:#000000;stroke-width:1.875;" x="48.697312" xlink:href="#ma981845110" y="200.493478"/>
      </g>
     </g>
     <g id="line2d_24">
      <g>
       <use style="stroke:#000000;stroke-width:1.875;" x="538.221604" xlink:href="#m07973a42d3" y="200.493478"/>
      </g>
     </g>
     <g id="text_13">
      <!-- $20$ -->
      <g transform="translate(29.101604 206.201231)scale(0.165 -0.165)">
       <use transform="scale(0.996264)" xlink:href="#CMR17-50"/>
       <use transform="translate(45.690477 0)scale(0.996264)" xlink:href="#CMR17-48"/>
      </g>
     </g>
    </g>
    <g id="ytick_4">
     <g id="line2d_25">
      <g>
       <use style="stroke:#000000;stroke-width:1.875;" x="48.697312" xlink:href="#ma981845110" y="125.576087"/>
      </g>
     </g>
     <g id="line2d_26">
      <g>
       <use style="stroke:#000000;stroke-width:1.875;" x="538.221604" xlink:href="#m07973a42d3" y="125.576087"/>
      </g>
     </g>
     <g id="text_14">
      <!-- $30$ -->
      <g transform="translate(29.101604 131.283839)scale(0.165 -0.165)">
       <use transform="scale(0.996264)" xlink:href="#CMR17-51"/>
       <use transform="translate(45.690477 0)scale(0.996264)" xlink:href="#CMR17-48"/>
      </g>
     </g>
    </g>
    <g id="ytick_5">
     <g id="line2d_27">
      <g>
       <use style="stroke:#000000;stroke-width:1.875;" x="48.697312" xlink:href="#ma981845110" y="50.658696"/>
      </g>
     </g>
     <g id="line2d_28">
      <g>
       <use style="stroke:#000000;stroke-width:1.875;" x="538.221604" xlink:href="#m07973a42d3" y="50.658696"/>
      </g>
     </g>
     <g id="text_15">
      <!-- $40$ -->
      <g transform="translate(29.101604 56.366448)scale(0.165 -0.165)">
       <use transform="scale(0.996264)" xlink:href="#CMR17-52"/>
       <use transform="translate(45.690477 0)scale(0.996264)" xlink:href="#CMR17-48"/>
      </g>
     </g>
    </g>
    <g id="text_16">
     <!-- Peak counts/exposure -->
     <defs>
      <path d="M 19.796875 32 
L 35.796875 32 
C 48.703125 32 58.09375 40.359375 58.09375 49.796875 
C 58.09375 59.234375 48.90625 68 35.796875 68 
L 5.203125 68 
L 5.203125 65.390625 
C 12.09375 65.390625 13.203125 65.390625 13.203125 60.921875 
L 13.203125 7.078125 
C 13.203125 2.59375 12.09375 2.59375 5.203125 2.59375 
L 5.203125 0 
C 8.09375 0.1875 13.40625 0.1875 16.5 0.1875 
C 19.59375 0.1875 24.90625 0.1875 27.796875 0 
L 27.796875 2.59375 
C 20.90625 2.59375 19.796875 2.59375 19.796875 7.078125 
z
M 19.59375 34.09375 
L 19.59375 61.515625 
C 19.59375 64.890625 19.796875 65.390625 23.796875 65.390625 
L 33.90625 65.390625 
C 46.796875 65.390625 50.5 58.046875 50.5 49.796875 
C 50.5 40.75 46.09375 34.09375 33.90625 34.09375 
z
" id="CMR17-80"/>
      <path d="M 36 25.875 
C 36 32 36 35.546875 31.796875 39.59375 
C 28.09375 42.984375 23.796875 44 20.40625 44 
C 12.5 44 6.796875 37.625 6.796875 30.890625 
C 6.796875 27.1875 9.796875 27 10.40625 27 
C 11.703125 27 14 27.796875 14 30.59375 
C 14 33.09375 12.09375 34.1875 10.40625 34.1875 
C 10 34.1875 9.5 34.09375 9.203125 34 
C 11.296875 40.53125 16.703125 42.390625 20.203125 42.390625 
C 25.203125 42.390625 30.703125 37.828125 30.703125 29.296875 
L 30.703125 25.5 
C 24.796875 25.296875 17.703125 24.5 12.09375 21.453125 
C 5.796875 17.921875 4 12.84375 4 9 
C 4 1.203125 13 -1 18.296875 -1 
C 23.796875 -1 28.90625 2.109375 31.09375 7.890625 
C 31.296875 3.421875 34.09375 -0.609375 38.5 -0.609375 
C 40.59375 -0.609375 45.90625 0.796875 45.90625 8.796875 
L 45.90625 14.46875 
L 44.09375 14.46875 
L 44.09375 8.703125 
C 44.09375 2.515625 41.40625 1.703125 40.09375 1.703125 
C 36 1.703125 36 6.96875 36 11.4375 
z
M 30.703125 13.859375 
C 30.703125 5.046875 24.5 0.59375 19 0.59375 
C 14 0.59375 10.09375 4.34375 10.09375 9 
C 10.09375 12.046875 11.40625 17.40625 17.203125 20.65625 
C 22 23.390625 27.5 23.796875 30.703125 24 
z
" id="CMR17-97"/>
      <path d="M 26.09375 26.234375 
C 26 26.4375 25.5 27.03125 25.5 27.328125 
C 25.5 27.53125 32.59375 33.984375 33.5 34.78125 
C 39.203125 39.5625 42.796875 40.046875 45.40625 40.15625 
L 45.40625 42.734375 
C 44.796875 42.734375 44.59375 42.734375 44.5 42.640625 
L 39.59375 42.53125 
C 36.796875 42.53125 32.5 42.53125 29.796875 42.734375 
L 29.796875 40.15625 
C 31.203125 40.046875 32.203125 39.265625 32.203125 37.859375 
C 32.203125 35.875 30.203125 33.984375 30.09375 33.984375 
L 15 20.28125 
L 15 69 
L 3.09375 67.890625 
L 3.09375 65.296875 
C 9 65.296875 9.90625 64.703125 9.90625 59.921875 
L 9.90625 6.859375 
C 9.90625 3.09375 9.5 2.59375 3.09375 2.59375 
L 3.09375 0 
C 5.5 0.1875 9.90625 0.1875 12.40625 0.1875 
C 14.90625 0.1875 19.296875 0.1875 21.703125 0 
L 21.703125 2.59375 
C 15.296875 2.59375 14.90625 2.984375 14.90625 6.859375 
L 14.90625 17.796875 
L 21.796875 24.0625 
L 31.90625 9.15625 
C 33.09375 7.359375 34.09375 5.96875 34.09375 4.671875 
C 34.09375 2.890625 32.296875 2.59375 31.09375 2.59375 
L 31.09375 0 
C 33.5 0.1875 37.796875 0.1875 40.296875 0.1875 
C 42.09375 0.1875 45.796875 0.09375 47.5 0 
L 47.5 2.59375 
C 42.796875 2.59375 41.703125 3.484375 38.703125 7.859375 
z
" id="CMR17-107"/>
      <path d="M 34.90625 35 
C 33 35 30.203125 35 30.203125 31.484375 
C 30.203125 28.6875 32.5 27.890625 33.796875 27.890625 
C 34.5 27.890625 37.40625 28.1875 37.40625 31.6875 
C 37.40625 38.6875 30.59375 44 22.90625 44 
C 12.296875 44 3.296875 34.390625 3.296875 21.546875 
C 3.296875 8.140625 12.703125 -1 22.90625 -1 
C 35.296875 -1 38.40625 10.5625 38.40625 11.671875 
C 38.40625 12.078125 38.296875 12.375 37.59375 12.375 
C 36.90625 12.375 36.796875 12.28125 36.40625 10.96875 
C 33.796875 2.8125 28.09375 0.796875 23.796875 0.796875 
C 17.40625 0.796875 9.703125 6.734375 9.703125 21.640625 
C 9.703125 36.84375 17.09375 42.1875 23 42.1875 
C 26.90625 42.1875 32.703125 40.34375 34.90625 35 
z
" id="CMR17-99"/>
      <path d="M 29.40625 42.890625 
L 29.40625 40.296875 
C 35.296875 40.296875 36.203125 39.6875 36.203125 34.828125 
L 36.203125 16.453125 
C 36.203125 7.96875 31.703125 0.59375 24.296875 0.59375 
C 16.09375 0.59375 15.40625 5.546875 15.40625 10.796875 
L 15.40625 44 
L 3.296875 42.890625 
L 3.296875 40.296875 
C 7.296875 40.296875 10 40.296875 10.09375 36.25 
L 10.09375 16.859375 
C 10.09375 10.09375 10.09375 5.75 12.703125 2.921875 
C 14 1.609375 16.5 -1 23.703125 -1 
C 32.203125 -1 35.5 6.25 36.296875 8.375 
L 36.40625 8.375 
L 36.40625 -1 
L 48.296875 -0.203125 
L 48.296875 2.40625 
C 42.40625 2.40625 41.5 3.015625 41.5 7.859375 
L 41.5 44 
z
" id="CMR17-117"/>
      <path d="M 41.5 30.53125 
C 41.5 35.65625 40.5 44 28.703125 44 
C 20.796875 44 16.703125 37.875 15.203125 33.84375 
L 15.09375 33.84375 
L 15.09375 44 
L 3.296875 42.890625 
L 3.296875 40.28125 
C 9.203125 40.28125 10.09375 39.6875 10.09375 34.859375 
L 10.09375 6.921875 
C 10.09375 3.09375 9.703125 2.59375 3.296875 2.59375 
L 3.296875 0 
C 5.703125 0.1875 10.09375 0.1875 12.703125 0.1875 
C 15.296875 0.1875 19.796875 0.1875 22.203125 0 
L 22.203125 2.59375 
C 15.796875 2.59375 15.40625 3 15.40625 6.921875 
L 15.40625 26.21875 
C 15.40625 35.453125 21 42.390625 28 42.390625 
C 35.40625 42.390625 36.203125 35.765625 36.203125 30.9375 
L 36.203125 6.921875 
C 36.203125 3.09375 35.796875 2.59375 29.40625 2.59375 
L 29.40625 0 
C 31.796875 0.1875 36.203125 0.1875 38.796875 0.1875 
C 41.40625 0.1875 45.90625 0.1875 48.296875 0 
L 48.296875 2.59375 
C 41.90625 2.59375 41.5 3 41.5 6.921875 
z
" id="CMR17-110"/>
      <path d="M 15.09375 40.390625 
L 29.09375 40.390625 
L 29.09375 43 
L 15.09375 43 
L 15.09375 62 
L 13.296875 62 
C 13.09375 51.4375 9.59375 42.1875 1.09375 41.984375 
L 1.09375 40.390625 
L 9.796875 40.390625 
L 9.796875 12.15625 
C 9.796875 10.234375 9.796875 -1 21.40625 -1 
C 27.296875 -1 30.703125 4.8125 30.703125 12.25 
L 30.703125 17.984375 
L 28.90625 17.984375 
L 28.90625 12.34375 
C 28.90625 5.421875 26.203125 0.796875 22 0.796875 
C 19.09375 0.796875 15.09375 2.796875 15.09375 11.953125 
z
" id="CMR17-116"/>
      <path d="M 30.90625 42 
C 30.90625 43.796875 30.796875 43.890625 30.203125 43.890625 
C 29.796875 43.890625 29.703125 43.796875 28.5 42.296875 
C 28.203125 41.890625 27.296875 40.890625 27 40.5 
C 23.796875 43.890625 19.296875 44 17.59375 44 
C 6.5 44 2.5 38.1875 2.5 32.390625 
C 2.5 23.390625 12.703125 21.296875 15.59375 20.6875 
C 21.90625 19.390625 24.09375 19 26.203125 17.1875 
C 27.5 16 29.703125 13.796875 29.703125 10.1875 
C 29.703125 6 27.296875 0.59375 18.09375 0.59375 
C 9.40625 0.59375 6.296875 7.1875 4.5 16 
C 4.203125 17.390625 4.203125 17.5 3.40625 17.5 
C 2.59375 17.5 2.5 17.390625 2.5 15.390625 
L 2.5 1 
C 2.5 -0.8125 2.59375 -0.90625 3.203125 -0.90625 
C 3.703125 -0.90625 3.796875 -0.8125 4.296875 0 
C 4.90625 0.890625 6.40625 3.296875 7 4.296875 
C 9 1.59375 12.5 -1 18.09375 -1 
C 28 -1 33.296875 4.390625 33.296875 12.1875 
C 33.296875 17.296875 30.59375 20 29.296875 21.1875 
C 26.296875 24.296875 22.796875 25 18.59375 25.796875 
C 13.09375 27 6.09375 28.390625 6.09375 34.5 
C 6.09375 37.09375 7.5 42.59375 17.59375 42.59375 
C 28.296875 42.59375 28.90625 32.59375 29.09375 29.390625 
C 29.203125 28.890625 29.703125 28.796875 30 28.796875 
C 30.90625 28.796875 30.90625 29.09375 30.90625 30.796875 
z
" id="CMR17-115"/>
      <path d="M 40.703125 71.484375 
C 41.203125 72.78125 41.203125 72.984375 41.203125 73.1875 
C 41.203125 74.390625 40.296875 75 39.5 75 
C 38.296875 75 37.90625 74.1875 37.5 72.984375 
L 5.09375 -21.5 
C 4.59375 -22.8125 4.59375 -23 4.59375 -23.203125 
C 4.59375 -24.40625 5.5 -25 6.296875 -25 
C 7.5 -25 7.90625 -24.203125 8.296875 -23 
z
" id="CMR17-47"/>
      <path d="M 26 23.296875 
C 29 27.1875 32.40625 31.59375 35.203125 34.890625 
C 38.5 38.6875 42.296875 40.296875 46.703125 40.390625 
L 46.703125 43 
C 45 42.890625 41.5 42.796875 39.703125 42.796875 
C 37 42.796875 33.90625 42.796875 31.59375 43 
L 31.59375 40.390625 
C 33 40.1875 33.796875 39.1875 33.796875 37.796875 
C 33.796875 36 32.796875 34.890625 32.296875 34.1875 
L 24.90625 24.796875 
L 16.09375 36.296875 
C 15.203125 37.390625 15.203125 37.59375 15.203125 38.09375 
C 15.203125 39.296875 16.203125 40.296875 17.90625 40.390625 
L 17.90625 43 
C 15.5 42.796875 11.203125 42.796875 8.703125 42.796875 
C 6 42.796875 2.796875 42.796875 0.59375 43 
L 0.59375 40.390625 
C 6 40.390625 7.203125 40 9.59375 37 
L 21.09375 22.09375 
C 21.296875 21.890625 21.796875 21.296875 21.796875 21 
C 21.796875 20.59375 13.09375 9.890625 12 8.5 
C 7.5 3.09375 2.796875 2.6875 0.09375 2.59375 
L 0.09375 0 
C 1.796875 0.09375 5.296875 0.1875 7.09375 0.1875 
C 9.09375 0.1875 13.5 0.1875 15.296875 0 
L 15.296875 2.59375 
C 14.703125 2.6875 13.09375 2.890625 13.09375 5.1875 
C 13.09375 7 13.90625 8.09375 14.796875 9.296875 
L 23.09375 19.5 
L 31.796875 8.1875 
C 32.59375 7.09375 33.796875 5.59375 33.796875 4.890625 
C 33.796875 3.5 32.59375 2.6875 31 2.59375 
L 31 0 
C 33.40625 0.1875 37.703125 0.1875 40.203125 0.1875 
C 42.90625 0.1875 46.09375 0.1875 48.296875 0 
L 48.296875 2.59375 
C 43.296875 2.59375 41.796875 2.796875 39.40625 5.890625 
z
" id="CMR17-120"/>
     </defs>
     <g transform="translate(20.63342 264.448561)rotate(-90)scale(0.18 -0.18)">
      <use transform="scale(0.996264)" xlink:href="#CMR17-80"/>
      <use transform="translate(59.983847 0)scale(0.996264)" xlink:href="#CMR17-101"/>
      <use transform="translate(100.469507 0)scale(0.996264)" xlink:href="#CMR17-97"/>
      <use transform="translate(146.159984 0)scale(0.996264)" xlink:href="#CMR17-107"/>
      <use transform="translate(224.528866 0)scale(0.996264)" xlink:href="#CMR17-99"/>
      <use transform="translate(265.014527 0)scale(0.996264)" xlink:href="#CMR17-111"/>
      <use transform="translate(310.705004 0)scale(0.996264)" xlink:href="#CMR17-117"/>
      <use transform="translate(361.600374 0)scale(0.996264)" xlink:href="#CMR17-110"/>
      <use transform="translate(409.89329 0)scale(0.996264)" xlink:href="#CMR17-116"/>
      <use transform="translate(445.174057 0)scale(0.996264)" xlink:href="#CMR17-115"/>
      <use transform="translate(480.975395 0)scale(0.996264)" xlink:href="#CMR17-47"/>
      <use transform="translate(526.665872 0)scale(0.996264)" xlink:href="#CMR17-101"/>
      <use transform="translate(567.151533 0)scale(0.996264)" xlink:href="#CMR17-120"/>
      <use transform="translate(615.444448 0)scale(0.996264)" xlink:href="#CMR17-112"/>
      <use transform="translate(668.942257 0)scale(0.996264)" xlink:href="#CMR17-111"/>
      <use transform="translate(714.632734 0)scale(0.996264)" xlink:href="#CMR17-115"/>
      <use transform="translate(750.434072 0)scale(0.996264)" xlink:href="#CMR17-117"/>
      <use transform="translate(801.329441 0)scale(0.996264)" xlink:href="#CMR17-114"/>
      <use transform="translate(836.610209 0)scale(0.996264)" xlink:href="#CMR17-101"/>
     </g>
    </g>
   </g>
   <g id="LineCollection_1">
    <path clip-path="url(#p0bf468eba8)" d="M 63.569552 349.181616 
L 69.081145 349.181616 
" style="fill:none;stroke:#1f77b4;stroke-width:2.25;"/>
    <path clip-path="url(#p0bf468eba8)" d="M 65.991658 343.287319 
L 71.504277 343.287319 
" style="fill:none;stroke:#1f77b4;stroke-width:2.25;"/>
    <path clip-path="url(#p0bf468eba8)" d="M 69.722872 337.626402 
L 75.237781 337.626402 
" style="fill:none;stroke:#1f77b4;stroke-width:2.25;"/>
    <path clip-path="url(#p0bf468eba8)" d="M 75.097033 325.068086 
L 80.616613 325.068086 
" style="fill:none;stroke:#1f77b4;stroke-width:2.25;"/>
    <path clip-path="url(#p0bf468eba8)" d="M 82.004528 310.84316 
L 87.535198 310.84316 
" style="fill:none;stroke:#1f77b4;stroke-width:2.25;"/>
    <path clip-path="url(#p0bf468eba8)" d="M 90.169214 295.198041 
L 95.712218 295.198041 
" style="fill:none;stroke:#1f77b4;stroke-width:2.25;"/>
    <path clip-path="url(#p0bf468eba8)" d="M 110.495167 272.553951 
L 116.095044 272.553951 
" style="fill:none;stroke:#1f77b4;stroke-width:2.25;"/>
    <path clip-path="url(#p0bf468eba8)" d="M 117.216748 244.097634 
L 122.9694 244.097634 
" style="fill:none;stroke:#1f77b4;stroke-width:2.25;"/>
    <path clip-path="url(#p0bf468eba8)" d="M 135.968825 246.901421 
L 141.665206 246.901421 
" style="fill:none;stroke:#1f77b4;stroke-width:2.25;"/>
    <path clip-path="url(#p0bf468eba8)" d="M 152.251577 187.863746 
L 158.066323 187.863746 
" style="fill:none;stroke:#1f77b4;stroke-width:2.25;"/>
    <path clip-path="url(#p0bf468eba8)" d="M 165.273866 222.551228 
L 171.138045 222.551228 
" style="fill:none;stroke:#1f77b4;stroke-width:2.25;"/>
    <path clip-path="url(#p0bf468eba8)" d="M 185.565863 191.419211 
L 191.577215 191.419211 
" style="fill:none;stroke:#1f77b4;stroke-width:2.25;"/>
    <path clip-path="url(#p0bf468eba8)" d="M 196.617997 199.910014 
L 202.690238 199.910014 
" style="fill:none;stroke:#1f77b4;stroke-width:2.25;"/>
    <path clip-path="url(#p0bf468eba8)" d="M 219.992306 164.161744 
L 226.248794 164.161744 
" style="fill:none;stroke:#1f77b4;stroke-width:2.25;"/>
    <path clip-path="url(#p0bf468eba8)" d="M 230.429239 142.53111 
L 236.833404 142.53111 
" style="fill:none;stroke:#1f77b4;stroke-width:2.25;"/>
    <path clip-path="url(#p0bf468eba8)" d="M 254.683543 142.664067 
L 261.293191 142.664067 
" style="fill:none;stroke:#1f77b4;stroke-width:2.25;"/>
    <path clip-path="url(#p0bf468eba8)" d="M 265.056253 137.648794 
L 271.759758 137.648794 
" style="fill:none;stroke:#1f77b4;stroke-width:2.25;"/>
    <path clip-path="url(#p0bf468eba8)" d="M 288.597553 120.704921 
L 295.731987 120.704921 
" style="fill:none;stroke:#1f77b4;stroke-width:2.25;"/>
    <path clip-path="url(#p0bf468eba8)" d="M 301.132969 113.847625 
L 308.409243 113.847625 
" style="fill:none;stroke:#1f77b4;stroke-width:2.25;"/>
    <path clip-path="url(#p0bf468eba8)" d="M 338.571284 105.179886 
L 346.284235 105.179886 
" style="fill:none;stroke:#1f77b4;stroke-width:2.25;"/>
    <path clip-path="url(#p0bf468eba8)" d="M 372.74651 105.917363 
L 380.865377 105.917363 
" style="fill:none;stroke:#1f77b4;stroke-width:2.25;"/>
    <path clip-path="url(#p0bf468eba8)" d="M 404.767481 69.111221 
L 413.273506 69.111221 
" style="fill:none;stroke:#1f77b4;stroke-width:2.25;"/>
    <path clip-path="url(#p0bf468eba8)" d="M 434.395575 69.919316 
L 443.453928 69.919316 
" style="fill:none;stroke:#1f77b4;stroke-width:2.25;"/>
    <path clip-path="url(#p0bf468eba8)" d="M 460.611176 41.184857 
L 469.958808 41.184857 
" style="fill:none;stroke:#1f77b4;stroke-width:2.25;"/>
    <path clip-path="url(#p0bf468eba8)" d="M 482.156468 45.227129 
L 491.813043 45.227129 
" style="fill:none;stroke:#1f77b4;stroke-width:2.25;"/>
    <path clip-path="url(#p0bf468eba8)" d="M 498.973895 66.358761 
L 508.965597 66.358761 
" style="fill:none;stroke:#1f77b4;stroke-width:2.25;"/>
   </g>
   <g id="LineCollection_2">
    <path clip-path="url(#p0bf468eba8)" d="M 66.325349 349.197157 
L 66.325349 349.166074 
" style="fill:none;stroke:#1f77b4;stroke-width:2.25;"/>
    <path clip-path="url(#p0bf468eba8)" d="M 68.747968 343.336523 
L 68.747968 343.238115 
" style="fill:none;stroke:#1f77b4;stroke-width:2.25;"/>
    <path clip-path="url(#p0bf468eba8)" d="M 72.480326 337.779885 
L 72.480326 337.472918 
" style="fill:none;stroke:#1f77b4;stroke-width:2.25;"/>
    <path clip-path="url(#p0bf468eba8)" d="M 77.856823 325.450523 
L 77.856823 324.685649 
" style="fill:none;stroke:#1f77b4;stroke-width:2.25;"/>
    <path clip-path="url(#p0bf468eba8)" d="M 84.769863 316.741886 
L 84.769863 304.944434 
" style="fill:none;stroke:#1f77b4;stroke-width:2.25;"/>
    <path clip-path="url(#p0bf468eba8)" d="M 92.940716 296.402436 
L 92.940716 293.993646 
" style="fill:none;stroke:#1f77b4;stroke-width:2.25;"/>
    <path clip-path="url(#p0bf468eba8)" d="M 113.295105 273.924889 
L 113.295105 271.183013 
" style="fill:none;stroke:#1f77b4;stroke-width:2.25;"/>
    <path clip-path="url(#p0bf468eba8)" d="M 120.093074 245.199113 
L 120.093074 242.996156 
" style="fill:none;stroke:#1f77b4;stroke-width:2.25;"/>
    <path clip-path="url(#p0bf468eba8)" d="M 138.817015 249.596879 
L 138.817015 244.205964 
" style="fill:none;stroke:#1f77b4;stroke-width:2.25;"/>
    <path clip-path="url(#p0bf468eba8)" d="M 155.15895 195.790262 
L 155.15895 179.937229 
" style="fill:none;stroke:#1f77b4;stroke-width:2.25;"/>
    <path clip-path="url(#p0bf468eba8)" d="M 168.205955 224.403204 
L 168.205955 220.699252 
" style="fill:none;stroke:#1f77b4;stroke-width:2.25;"/>
    <path clip-path="url(#p0bf468eba8)" d="M 188.571539 193.960315 
L 188.571539 188.878107 
" style="fill:none;stroke:#1f77b4;stroke-width:2.25;"/>
    <path clip-path="url(#p0bf468eba8)" d="M 199.654117 202.124509 
L 199.654117 197.695519 
" style="fill:none;stroke:#1f77b4;stroke-width:2.25;"/>
    <path clip-path="url(#p0bf468eba8)" d="M 223.12055 165.959283 
L 223.12055 162.364206 
" style="fill:none;stroke:#1f77b4;stroke-width:2.25;"/>
    <path clip-path="url(#p0bf468eba8)" d="M 233.631321 144.229603 
L 233.631321 140.832617 
" style="fill:none;stroke:#1f77b4;stroke-width:2.25;"/>
    <path clip-path="url(#p0bf468eba8)" d="M 257.988367 146.325122 
L 257.988367 139.003012 
" style="fill:none;stroke:#1f77b4;stroke-width:2.25;"/>
    <path clip-path="url(#p0bf468eba8)" d="M 268.408005 138.666248 
L 268.408005 136.631339 
" style="fill:none;stroke:#1f77b4;stroke-width:2.25;"/>
    <path clip-path="url(#p0bf468eba8)" d="M 292.16477 125.778395 
L 292.16477 115.631447 
" style="fill:none;stroke:#1f77b4;stroke-width:2.25;"/>
    <path clip-path="url(#p0bf468eba8)" d="M 304.771106 119.853023 
L 304.771106 107.842227 
" style="fill:none;stroke:#1f77b4;stroke-width:2.25;"/>
    <path clip-path="url(#p0bf468eba8)" d="M 342.427759 108.800418 
L 342.427759 101.559353 
" style="fill:none;stroke:#1f77b4;stroke-width:2.25;"/>
    <path clip-path="url(#p0bf468eba8)" d="M 376.805944 109.032231 
L 376.805944 102.802494 
" style="fill:none;stroke:#1f77b4;stroke-width:2.25;"/>
    <path clip-path="url(#p0bf468eba8)" d="M 409.020493 76.051195 
L 409.020493 62.171247 
" style="fill:none;stroke:#1f77b4;stroke-width:2.25;"/>
    <path clip-path="url(#p0bf468eba8)" d="M 438.924752 77.013825 
L 438.924752 62.824807 
" style="fill:none;stroke:#1f77b4;stroke-width:2.25;"/>
    <path clip-path="url(#p0bf468eba8)" d="M 465.284992 47.700308 
L 465.284992 34.669407 
" style="fill:none;stroke:#1f77b4;stroke-width:2.25;"/>
    <path clip-path="url(#p0bf468eba8)" d="M 486.984756 51.433563 
L 486.984756 39.020695 
" style="fill:none;stroke:#1f77b4;stroke-width:2.25;"/>
    <path clip-path="url(#p0bf468eba8)" d="M 503.969746 72.660848 
L 503.969746 60.056674 
" style="fill:none;stroke:#1f77b4;stroke-width:2.25;"/>
   </g>
   <g id="line2d_29">
    <defs>
     <path d="M 0 4 
L 0 -4 
" id="m8a9cfaf42a" style="stroke:#1f77b4;"/>
    </defs>
    <g clip-path="url(#p0bf468eba8)">
     <use style="fill:#1f77b4;stroke:#1f77b4;" x="63.569552" xlink:href="#m8a9cfaf42a" y="349.181616"/>
     <use style="fill:#1f77b4;stroke:#1f77b4;" x="65.991658" xlink:href="#m8a9cfaf42a" y="343.287319"/>
     <use style="fill:#1f77b4;stroke:#1f77b4;" x="69.722872" xlink:href="#m8a9cfaf42a" y="337.626402"/>
     <use style="fill:#1f77b4;stroke:#1f77b4;" x="75.097033" xlink:href="#m8a9cfaf42a" y="325.068086"/>
     <use style="fill:#1f77b4;stroke:#1f77b4;" x="82.004528" xlink:href="#m8a9cfaf42a" y="310.84316"/>
     <use style="fill:#1f77b4;stroke:#1f77b4;" x="90.169214" xlink:href="#m8a9cfaf42a" y="295.198041"/>
     <use style="fill:#1f77b4;stroke:#1f77b4;" x="110.495167" xlink:href="#m8a9cfaf42a" y="272.553951"/>
     <use style="fill:#1f77b4;stroke:#1f77b4;" x="117.216748" xlink:href="#m8a9cfaf42a" y="244.097634"/>
     <use style="fill:#1f77b4;stroke:#1f77b4;" x="135.968825" xlink:href="#m8a9cfaf42a" y="246.901421"/>
     <use style="fill:#1f77b4;stroke:#1f77b4;" x="152.251577" xlink:href="#m8a9cfaf42a" y="187.863746"/>
     <use style="fill:#1f77b4;stroke:#1f77b4;" x="165.273866" xlink:href="#m8a9cfaf42a" y="222.551228"/>
     <use style="fill:#1f77b4;stroke:#1f77b4;" x="185.565863" xlink:href="#m8a9cfaf42a" y="191.419211"/>
     <use style="fill:#1f77b4;stroke:#1f77b4;" x="196.617997" xlink:href="#m8a9cfaf42a" y="199.910014"/>
     <use style="fill:#1f77b4;stroke:#1f77b4;" x="219.992306" xlink:href="#m8a9cfaf42a" y="164.161744"/>
     <use style="fill:#1f77b4;stroke:#1f77b4;" x="230.429239" xlink:href="#m8a9cfaf42a" y="142.53111"/>
     <use style="fill:#1f77b4;stroke:#1f77b4;" x="254.683543" xlink:href="#m8a9cfaf42a" y="142.664067"/>
     <use style="fill:#1f77b4;stroke:#1f77b4;" x="265.056253" xlink:href="#m8a9cfaf42a" y="137.648794"/>
     <use style="fill:#1f77b4;stroke:#1f77b4;" x="288.597553" xlink:href="#m8a9cfaf42a" y="120.704921"/>
     <use style="fill:#1f77b4;stroke:#1f77b4;" x="301.132969" xlink:href="#m8a9cfaf42a" y="113.847625"/>
     <use style="fill:#1f77b4;stroke:#1f77b4;" x="338.571284" xlink:href="#m8a9cfaf42a" y="105.179886"/>
     <use style="fill:#1f77b4;stroke:#1f77b4;" x="372.74651" xlink:href="#m8a9cfaf42a" y="105.917363"/>
     <use style="fill:#1f77b4;stroke:#1f77b4;" x="404.767481" xlink:href="#m8a9cfaf42a" y="69.111221"/>
     <use style="fill:#1f77b4;stroke:#1f77b4;" x="434.395575" xlink:href="#m8a9cfaf42a" y="69.919316"/>
     <use style="fill:#1f77b4;stroke:#1f77b4;" x="460.611176" xlink:href="#m8a9cfaf42a" y="41.184857"/>
     <use style="fill:#1f77b4;stroke:#1f77b4;" x="482.156468" xlink:href="#m8a9cfaf42a" y="45.227129"/>
     <use style="fill:#1f77b4;stroke:#1f77b4;" x="498.973895" xlink:href="#m8a9cfaf42a" y="66.358761"/>
    </g>
   </g>
   <g id="line2d_30">
    <g clip-path="url(#p0bf468eba8)">
     <use style="fill:#1f77b4;stroke:#1f77b4;" x="69.081145" xlink:href="#m8a9cfaf42a" y="349.181616"/>
     <use style="fill:#1f77b4;stroke:#1f77b4;" x="71.504277" xlink:href="#m8a9cfaf42a" y="343.287319"/>
     <use style="fill:#1f77b4;stroke:#1f77b4;" x="75.237781" xlink:href="#m8a9cfaf42a" y="337.626402"/>
     <use style="fill:#1f77b4;stroke:#1f77b4;" x="80.616613" xlink:href="#m8a9cfaf42a" y="325.068086"/>
     <use style="fill:#1f77b4;stroke:#1f77b4;" x="87.535198" xlink:href="#m8a9cfaf42a" y="310.84316"/>
     <use style="fill:#1f77b4;stroke:#1f77b4;" x="95.712218" xlink:href="#m8a9cfaf42a" y="295.198041"/>
     <use style="fill:#1f77b4;stroke:#1f77b4;" x="116.095044" xlink:href="#m8a9cfaf42a" y="272.553951"/>
     <use style="fill:#1f77b4;stroke:#1f77b4;" x="122.9694" xlink:href="#m8a9cfaf42a" y="244.097634"/>
     <use style="fill:#1f77b4;stroke:#1f77b4;" x="141.665206" xlink:href="#m8a9cfaf42a" y="246.901421"/>
     <use style="fill:#1f77b4;stroke:#1f77b4;" x="158.066323" xlink:href="#m8a9cfaf42a" y="187.863746"/>
     <use style="fill:#1f77b4;stroke:#1f77b4;" x="171.138045" xlink:href="#m8a9cfaf42a" y="222.551228"/>
     <use style="fill:#1f77b4;stroke:#1f77b4;" x="191.577215" xlink:href="#m8a9cfaf42a" y="191.419211"/>
     <use style="fill:#1f77b4;stroke:#1f77b4;" x="202.690238" xlink:href="#m8a9cfaf42a" y="199.910014"/>
     <use style="fill:#1f77b4;stroke:#1f77b4;" x="226.248794" xlink:href="#m8a9cfaf42a" y="164.161744"/>
     <use style="fill:#1f77b4;stroke:#1f77b4;" x="236.833404" xlink:href="#m8a9cfaf42a" y="142.53111"/>
     <use style="fill:#1f77b4;stroke:#1f77b4;" x="261.293191" xlink:href="#m8a9cfaf42a" y="142.664067"/>
     <use style="fill:#1f77b4;stroke:#1f77b4;" x="271.759758" xlink:href="#m8a9cfaf42a" y="137.648794"/>
     <use style="fill:#1f77b4;stroke:#1f77b4;" x="295.731987" xlink:href="#m8a9cfaf42a" y="120.704921"/>
     <use style="fill:#1f77b4;stroke:#1f77b4;" x="308.409243" xlink:href="#m8a9cfaf42a" y="113.847625"/>
     <use style="fill:#1f77b4;stroke:#1f77b4;" x="346.284235" xlink:href="#m8a9cfaf42a" y="105.179886"/>
     <use style="fill:#1f77b4;stroke:#1f77b4;" x="380.865377" xlink:href="#m8a9cfaf42a" y="105.917363"/>
     <use style="fill:#1f77b4;stroke:#1f77b4;" x="413.273506" xlink:href="#m8a9cfaf42a" y="69.111221"/>
     <use style="fill:#1f77b4;stroke:#1f77b4;" x="443.453928" xlink:href="#m8a9cfaf42a" y="69.919316"/>
     <use style="fill:#1f77b4;stroke:#1f77b4;" x="469.958808" xlink:href="#m8a9cfaf42a" y="41.184857"/>
     <use style="fill:#1f77b4;stroke:#1f77b4;" x="491.813043" xlink:href="#m8a9cfaf42a" y="45.227129"/>
     <use style="fill:#1f77b4;stroke:#1f77b4;" x="508.965597" xlink:href="#m8a9cfaf42a" y="66.358761"/>
    </g>
   </g>
   <g id="line2d_31">
    <defs>
     <path d="M 4 0 
L -4 -0 
" id="m56745c9cbd" style="stroke:#1f77b4;"/>
    </defs>
    <g clip-path="url(#p0bf468eba8)">
     <use style="fill:#1f77b4;stroke:#1f77b4;" x="66.325349" xlink:href="#m56745c9cbd" y="349.197157"/>
     <use style="fill:#1f77b4;stroke:#1f77b4;" x="68.747968" xlink:href="#m56745c9cbd" y="343.336523"/>
     <use style="fill:#1f77b4;stroke:#1f77b4;" x="72.480326" xlink:href="#m56745c9cbd" y="337.779885"/>
     <use style="fill:#1f77b4;stroke:#1f77b4;" x="77.856823" xlink:href="#m56745c9cbd" y="325.450523"/>
     <use style="fill:#1f77b4;stroke:#1f77b4;" x="84.769863" xlink:href="#m56745c9cbd" y="316.741886"/>
     <use style="fill:#1f77b4;stroke:#1f77b4;" x="92.940716" xlink:href="#m56745c9cbd" y="296.402436"/>
     <use style="fill:#1f77b4;stroke:#1f77b4;" x="113.295105" xlink:href="#m56745c9cbd" y="273.924889"/>
     <use style="fill:#1f77b4;stroke:#1f77b4;" x="120.093074" xlink:href="#m56745c9cbd" y="245.199113"/>
     <use style="fill:#1f77b4;stroke:#1f77b4;" x="138.817015" xlink:href="#m56745c9cbd" y="249.596879"/>
     <use style="fill:#1f77b4;stroke:#1f77b4;" x="155.15895" xlink:href="#m56745c9cbd" y="195.790262"/>
     <use style="fill:#1f77b4;stroke:#1f77b4;" x="168.205955" xlink:href="#m56745c9cbd" y="224.403204"/>
     <use style="fill:#1f77b4;stroke:#1f77b4;" x="188.571539" xlink:href="#m56745c9cbd" y="193.960315"/>
     <use style="fill:#1f77b4;stroke:#1f77b4;" x="199.654117" xlink:href="#m56745c9cbd" y="202.124509"/>
     <use style="fill:#1f77b4;stroke:#1f77b4;" x="223.12055" xlink:href="#m56745c9cbd" y="165.959283"/>
     <use style="fill:#1f77b4;stroke:#1f77b4;" x="233.631321" xlink:href="#m56745c9cbd" y="144.229603"/>
     <use style="fill:#1f77b4;stroke:#1f77b4;" x="257.988367" xlink:href="#m56745c9cbd" y="146.325122"/>
     <use style="fill:#1f77b4;stroke:#1f77b4;" x="268.408005" xlink:href="#m56745c9cbd" y="138.666248"/>
     <use style="fill:#1f77b4;stroke:#1f77b4;" x="292.16477" xlink:href="#m56745c9cbd" y="125.778395"/>
     <use style="fill:#1f77b4;stroke:#1f77b4;" x="304.771106" xlink:href="#m56745c9cbd" y="119.853023"/>
     <use style="fill:#1f77b4;stroke:#1f77b4;" x="342.427759" xlink:href="#m56745c9cbd" y="108.800418"/>
     <use style="fill:#1f77b4;stroke:#1f77b4;" x="376.805944" xlink:href="#m56745c9cbd" y="109.032231"/>
     <use style="fill:#1f77b4;stroke:#1f77b4;" x="409.020493" xlink:href="#m56745c9cbd" y="76.051195"/>
     <use style="fill:#1f77b4;stroke:#1f77b4;" x="438.924752" xlink:href="#m56745c9cbd" y="77.013825"/>
     <use style="fill:#1f77b4;stroke:#1f77b4;" x="465.284992" xlink:href="#m56745c9cbd" y="47.700308"/>
     <use style="fill:#1f77b4;stroke:#1f77b4;" x="486.984756" xlink:href="#m56745c9cbd" y="51.433563"/>
     <use style="fill:#1f77b4;stroke:#1f77b4;" x="503.969746" xlink:href="#m56745c9cbd" y="72.660848"/>
    </g>
   </g>
   <g id="line2d_32">
    <g clip-path="url(#p0bf468eba8)">
     <use style="fill:#1f77b4;stroke:#1f77b4;" x="66.325349" xlink:href="#m56745c9cbd" y="349.166074"/>
     <use style="fill:#1f77b4;stroke:#1f77b4;" x="68.747968" xlink:href="#m56745c9cbd" y="343.238115"/>
     <use style="fill:#1f77b4;stroke:#1f77b4;" x="72.480326" xlink:href="#m56745c9cbd" y="337.472918"/>
     <use style="fill:#1f77b4;stroke:#1f77b4;" x="77.856823" xlink:href="#m56745c9cbd" y="324.685649"/>
     <use style="fill:#1f77b4;stroke:#1f77b4;" x="84.769863" xlink:href="#m56745c9cbd" y="304.944434"/>
     <use style="fill:#1f77b4;stroke:#1f77b4;" x="92.940716" xlink:href="#m56745c9cbd" y="293.993646"/>
     <use style="fill:#1f77b4;stroke:#1f77b4;" x="113.295105" xlink:href="#m56745c9cbd" y="271.183013"/>
     <use style="fill:#1f77b4;stroke:#1f77b4;" x="120.093074" xlink:href="#m56745c9cbd" y="242.996156"/>
     <use style="fill:#1f77b4;stroke:#1f77b4;" x="138.817015" xlink:href="#m56745c9cbd" y="244.205964"/>
     <use style="fill:#1f77b4;stroke:#1f77b4;" x="155.15895" xlink:href="#m56745c9cbd" y="179.937229"/>
     <use style="fill:#1f77b4;stroke:#1f77b4;" x="168.205955" xlink:href="#m56745c9cbd" y="220.699252"/>
     <use style="fill:#1f77b4;stroke:#1f77b4;" x="188.571539" xlink:href="#m56745c9cbd" y="188.878107"/>
     <use style="fill:#1f77b4;stroke:#1f77b4;" x="199.654117" xlink:href="#m56745c9cbd" y="197.695519"/>
     <use style="fill:#1f77b4;stroke:#1f77b4;" x="223.12055" xlink:href="#m56745c9cbd" y="162.364206"/>
     <use style="fill:#1f77b4;stroke:#1f77b4;" x="233.631321" xlink:href="#m56745c9cbd" y="140.832617"/>
     <use style="fill:#1f77b4;stroke:#1f77b4;" x="257.988367" xlink:href="#m56745c9cbd" y="139.003012"/>
     <use style="fill:#1f77b4;stroke:#1f77b4;" x="268.408005" xlink:href="#m56745c9cbd" y="136.631339"/>
     <use style="fill:#1f77b4;stroke:#1f77b4;" x="292.16477" xlink:href="#m56745c9cbd" y="115.631447"/>
     <use style="fill:#1f77b4;stroke:#1f77b4;" x="304.771106" xlink:href="#m56745c9cbd" y="107.842227"/>
     <use style="fill:#1f77b4;stroke:#1f77b4;" x="342.427759" xlink:href="#m56745c9cbd" y="101.559353"/>
     <use style="fill:#1f77b4;stroke:#1f77b4;" x="376.805944" xlink:href="#m56745c9cbd" y="102.802494"/>
     <use style="fill:#1f77b4;stroke:#1f77b4;" x="409.020493" xlink:href="#m56745c9cbd" y="62.171247"/>
     <use style="fill:#1f77b4;stroke:#1f77b4;" x="438.924752" xlink:href="#m56745c9cbd" y="62.824807"/>
     <use style="fill:#1f77b4;stroke:#1f77b4;" x="465.284992" xlink:href="#m56745c9cbd" y="34.669407"/>
     <use style="fill:#1f77b4;stroke:#1f77b4;" x="486.984756" xlink:href="#m56745c9cbd" y="39.020695"/>
     <use style="fill:#1f77b4;stroke:#1f77b4;" x="503.969746" xlink:href="#m56745c9cbd" y="60.056674"/>
    </g>
   </g>
   <g id="line2d_33">
    <path clip-path="url(#p0bf468eba8)" d="M 27.244977 406.033435 
L 267.179645 -1 
L 267.179645 -1 
" style="fill:none;stroke:#ff7f0e;stroke-linecap:square;stroke-width:2.25;"/>
   </g>
   <g id="line2d_34">
    <path clip-path="url(#p0bf468eba8)" d="M 29.739714 406.033435 
L 36.492537 392.873274 
L 43.329946 380.005976 
L 50.167355 367.583139 
L 57.004764 355.58941 
L 63.842172 344.009968 
L 70.679581 332.8305 
L 78.200731 320.978583 
L 85.721881 309.576206 
L 93.243031 298.606319 
L 100.764181 288.052517 
L 108.285331 277.899017 
L 115.80648 268.130638 
L 123.32763 258.732771 
L 130.84878 249.691362 
L 138.36993 240.992892 
L 145.89108 232.624353 
L 153.412229 224.57323 
L 160.933379 216.827484 
L 168.454529 209.375533 
L 176.65942 201.568119 
L 184.86431 194.083197 
L 193.069201 186.907445 
L 201.274092 180.028092 
L 209.478983 173.432896 
L 217.683873 167.11012 
L 225.888764 161.048511 
L 234.777396 154.763986 
L 243.666027 148.76019 
L 252.554659 143.024583 
L 261.44329 137.545185 
L 271.015663 131.917708 
L 280.588035 126.560475 
L 290.160408 121.460508 
L 299.73278 116.605452 
L 309.988894 111.662034 
L 320.245007 106.972523 
L 330.501121 102.523879 
L 341.440975 98.030219 
L 352.380829 93.782325 
L 363.320683 89.766755 
L 374.944279 85.74057 
L 386.567874 81.94794 
L 398.87521 78.171736 
L 411.182546 74.627067 
L 424.173623 71.120986 
L 437.1647 67.841427 
L 450.839518 64.617904 
L 465.198076 61.468469 
L 479.556635 58.543151 
L 494.598935 55.701551 
L 510.324975 52.95664 
L 526.734757 50.319423 
L 543.828279 47.798947 
L 552.421604 46.613134 
L 552.421604 46.613134 
" style="fill:none;stroke:#2ca02c;stroke-linecap:square;stroke-width:2.25;"/>
   </g>
   <g id="line2d_35">
    <defs>
     <path d="M 0 2.25 
C 0.596707 2.25 1.169055 2.012926 1.59099 1.59099 
C 2.012926 1.169055 2.25 0.596707 2.25 0 
C 2.25 -0.596707 2.012926 -1.169055 1.59099 -1.59099 
C 1.169055 -2.012926 0.596707 -2.25 0 -2.25 
C -0.596707 -2.25 -1.169055 -2.012926 -1.59099 -1.59099 
C -2.012926 -1.169055 -2.25 -0.596707 -2.25 0 
C -2.25 0.596707 -2.012926 1.169055 -1.59099 1.59099 
C -1.169055 2.012926 -0.596707 2.25 0 2.25 
z
" id="meea5cb955d" style="stroke:#1f77b4;"/>
    </defs>
    <g clip-path="url(#p0bf468eba8)">
     <use style="fill:#1f77b4;stroke:#1f77b4;" x="66.325349" xlink:href="#meea5cb955d" y="349.181616"/>
     <use style="fill:#1f77b4;stroke:#1f77b4;" x="68.747968" xlink:href="#meea5cb955d" y="343.287319"/>
     <use style="fill:#1f77b4;stroke:#1f77b4;" x="72.480326" xlink:href="#meea5cb955d" y="337.626402"/>
     <use style="fill:#1f77b4;stroke:#1f77b4;" x="77.856823" xlink:href="#meea5cb955d" y="325.068086"/>
     <use style="fill:#1f77b4;stroke:#1f77b4;" x="84.769863" xlink:href="#meea5cb955d" y="310.84316"/>
     <use style="fill:#1f77b4;stroke:#1f77b4;" x="92.940716" xlink:href="#meea5cb955d" y="295.198041"/>
     <use style="fill:#1f77b4;stroke:#1f77b4;" x="113.295105" xlink:href="#meea5cb955d" y="272.553951"/>
     <use style="fill:#1f77b4;stroke:#1f77b4;" x="120.093074" xlink:href="#meea5cb955d" y="244.097634"/>
     <use style="fill:#1f77b4;stroke:#1f77b4;" x="138.817015" xlink:href="#meea5cb955d" y="246.901421"/>
     <use style="fill:#1f77b4;stroke:#1f77b4;" x="155.15895" xlink:href="#meea5cb955d" y="187.863746"/>
     <use style="fill:#1f77b4;stroke:#1f77b4;" x="168.205955" xlink:href="#meea5cb955d" y="222.551228"/>
     <use style="fill:#1f77b4;stroke:#1f77b4;" x="188.571539" xlink:href="#meea5cb955d" y="191.419211"/>
     <use style="fill:#1f77b4;stroke:#1f77b4;" x="199.654117" xlink:href="#meea5cb955d" y="199.910014"/>
     <use style="fill:#1f77b4;stroke:#1f77b4;" x="223.12055" xlink:href="#meea5cb955d" y="164.161744"/>
     <use style="fill:#1f77b4;stroke:#1f77b4;" x="233.631321" xlink:href="#meea5cb955d" y="142.53111"/>
     <use style="fill:#1f77b4;stroke:#1f77b4;" x="257.988367" xlink:href="#meea5cb955d" y="142.664067"/>
     <use style="fill:#1f77b4;stroke:#1f77b4;" x="268.408005" xlink:href="#meea5cb955d" y="137.648794"/>
     <use style="fill:#1f77b4;stroke:#1f77b4;" x="292.16477" xlink:href="#meea5cb955d" y="120.704921"/>
     <use style="fill:#1f77b4;stroke:#1f77b4;" x="304.771106" xlink:href="#meea5cb955d" y="113.847625"/>
     <use style="fill:#1f77b4;stroke:#1f77b4;" x="342.427759" xlink:href="#meea5cb955d" y="105.179886"/>
     <use style="fill:#1f77b4;stroke:#1f77b4;" x="376.805944" xlink:href="#meea5cb955d" y="105.917363"/>
     <use style="fill:#1f77b4;stroke:#1f77b4;" x="409.020493" xlink:href="#meea5cb955d" y="69.111221"/>
     <use style="fill:#1f77b4;stroke:#1f77b4;" x="438.924752" xlink:href="#meea5cb955d" y="69.919316"/>
     <use style="fill:#1f77b4;stroke:#1f77b4;" x="465.284992" xlink:href="#meea5cb955d" y="41.184857"/>
     <use style="fill:#1f77b4;stroke:#1f77b4;" x="486.984756" xlink:href="#meea5cb955d" y="45.227129"/>
     <use style="fill:#1f77b4;stroke:#1f77b4;" x="503.969746" xlink:href="#meea5cb955d" y="66.358761"/>
    </g>
   </g>
   <g id="patch_3">
    <path d="M 48.697312 357.82 
L 48.697312 13.2 
" style="fill:none;stroke:#000000;stroke-linecap:square;stroke-linejoin:miter;stroke-width:1.875;"/>
   </g>
   <g id="patch_4">
    <path d="M 538.221604 357.82 
L 538.221604 13.2 
" style="fill:none;stroke:#000000;stroke-linecap:square;stroke-linejoin:miter;stroke-width:1.875;"/>
   </g>
   <g id="patch_5">
    <path d="M 48.697312 357.82 
L 538.221604 357.82 
" style="fill:none;stroke:#000000;stroke-linecap:square;stroke-linejoin:miter;stroke-width:1.875;"/>
   </g>
   <g id="patch_6">
    <path d="M 48.697312 13.2 
L 538.221604 13.2 
" style="fill:none;stroke:#000000;stroke-linecap:square;stroke-linejoin:miter;stroke-width:1.875;"/>
   </g>
   <g id="legend_1">
    <g id="LineCollection_3">
     <path d="M 352.76895 286.31399 
L 369.26895 286.31399 
" style="fill:none;stroke:#1f77b4;stroke-width:2.25;"/>
    </g>
    <g id="LineCollection_4">
     <path d="M 361.01895 294.56399 
L 361.01895 278.06399 
" style="fill:none;stroke:#1f77b4;stroke-width:2.25;"/>
    </g>
    <g id="line2d_36">
     <g>
      <use style="fill:#1f77b4;stroke:#1f77b4;" x="352.76895" xlink:href="#m8a9cfaf42a" y="286.31399"/>
     </g>
    </g>
    <g id="line2d_37">
     <g>
      <use style="fill:#1f77b4;stroke:#1f77b4;" x="369.26895" xlink:href="#m8a9cfaf42a" y="286.31399"/>
     </g>
    </g>
    <g id="line2d_38">
     <g>
      <use style="fill:#1f77b4;stroke:#1f77b4;" x="361.01895" xlink:href="#m56745c9cbd" y="294.56399"/>
     </g>
    </g>
    <g id="line2d_39">
     <g>
      <use style="fill:#1f77b4;stroke:#1f77b4;" x="361.01895" xlink:href="#m56745c9cbd" y="278.06399"/>
     </g>
    </g>
    <g id="line2d_40"/>
    <g id="line2d_41">
     <g>
      <use style="fill:#1f77b4;stroke:#1f77b4;" x="361.01895" xlink:href="#meea5cb955d" y="286.31399"/>
     </g>
    </g>
    <g id="text_17">
     <!-- Fitted peak counts -->
     <defs>
      <path d="M 54.40625 67.796875 
L 5.09375 67.796875 
L 5.09375 65.1875 
C 12 65.1875 13.09375 65.1875 13.09375 60.671875 
L 13.09375 7.03125 
C 13.09375 2.59375 12 2.59375 5.09375 2.59375 
L 5.09375 0 
C 8 0.1875 13.59375 0.1875 16.703125 0.1875 
C 20.796875 0.1875 25.59375 0.1875 29.703125 0 
L 29.703125 2.59375 
L 27.5 2.59375 
C 19.90625 2.59375 19.703125 3.578125 19.703125 7.125 
L 19.703125 32.390625 
L 28.703125 32.390625 
C 38 32.390625 38.90625 29.140625 38.90625 20.84375 
L 40.703125 20.84375 
L 40.703125 46.734375 
L 38.90625 46.734375 
C 38.90625 38.296875 38 35 28.703125 35 
L 19.703125 35 
L 19.703125 61.28125 
C 19.703125 64.6875 19.90625 65.1875 23.90625 65.1875 
L 36.796875 65.1875 
C 51.90625 65.1875 53.59375 58.96875 55 45.625 
L 56.796875 45.625 
z
" id="CMR17-70"/>
      <path d="M 15.5 61.890625 
C 15.5 64.09375 13.703125 66 11.40625 66 
C 9.203125 66 7.296875 64.1875 7.296875 61.890625 
C 7.296875 59.6875 9.09375 57.796875 11.40625 57.796875 
C 13.59375 57.796875 15.5 59.59375 15.5 61.890625 
z
M 3.796875 42.890625 
L 3.796875 40.296875 
C 9.40625 40.296875 10.203125 39.6875 10.203125 34.859375 
L 10.203125 6.921875 
C 10.203125 3.09375 9.796875 2.59375 3.40625 2.59375 
L 3.40625 0 
C 5.796875 0.1875 10.09375 0.1875 12.59375 0.1875 
C 15 0.1875 19.09375 0.1875 21.40625 0 
L 21.40625 2.59375 
C 15.5 2.59375 15.296875 3.203125 15.296875 6.8125 
L 15.296875 44 
z
" id="CMR17-105"/>
      <path d="M 29.203125 67.890625 
L 29.203125 65.296875 
C 35.09375 65.296875 36 64.703125 36 60.046875 
L 36 37.046875 
C 35.59375 37.546875 31.5 44 23.40625 44 
C 13.203125 44 3.296875 34.8125 3.296875 21.5 
C 3.296875 8.265625 12.59375 -1 22.40625 -1 
C 30.90625 -1 35.296875 5.640625 35.796875 6.34375 
L 35.796875 -1 
L 47.90625 -0.203125 
L 47.90625 2.40625 
C 42 2.40625 41.09375 3.015625 41.09375 7.859375 
L 41.09375 69 
z
M 35.796875 11.90625 
C 35.796875 8.875 34 6.140625 31.703125 4.125 
C 28.296875 1.09375 24.90625 0.59375 23 0.59375 
C 20.09375 0.59375 9.703125 2.109375 9.703125 21.390625 
C 9.703125 41.1875 21.296875 42.390625 23.90625 42.390625 
C 28.5 42.390625 32.203125 39.765625 34.5 36.140625 
C 35.796875 34.015625 35.796875 33.703125 35.796875 31.890625 
z
" id="CMR17-100"/>
     </defs>
     <g transform="translate(390.71895 292.08899)scale(0.165 -0.165)">
      <use transform="scale(0.996264)" xlink:href="#CMR17-70"/>
      <use transform="translate(59.983847 0)scale(0.996264)" xlink:href="#CMR17-105"/>
      <use transform="translate(84.854905 0)scale(0.996264)" xlink:href="#CMR17-116"/>
      <use transform="translate(120.135673 0)scale(0.996264)" xlink:href="#CMR17-116"/>
      <use transform="translate(155.416441 0)scale(0.996264)" xlink:href="#CMR17-101"/>
      <use transform="translate(195.902101 0)scale(0.996264)" xlink:href="#CMR17-100"/>
      <use transform="translate(276.873437 0)scale(0.996264)" xlink:href="#CMR17-112"/>
      <use transform="translate(330.371246 0)scale(0.996264)" xlink:href="#CMR17-101"/>
      <use transform="translate(370.856906 0)scale(0.996264)" xlink:href="#CMR17-97"/>
      <use transform="translate(416.547383 0)scale(0.996264)" xlink:href="#CMR17-107"/>
      <use transform="translate(494.916266 0)scale(0.996264)" xlink:href="#CMR17-99"/>
      <use transform="translate(535.401926 0)scale(0.996264)" xlink:href="#CMR17-111"/>
      <use transform="translate(581.092403 0)scale(0.996264)" xlink:href="#CMR17-117"/>
      <use transform="translate(631.987773 0)scale(0.996264)" xlink:href="#CMR17-110"/>
      <use transform="translate(680.280689 0)scale(0.996264)" xlink:href="#CMR17-116"/>
      <use transform="translate(715.561457 0)scale(0.996264)" xlink:href="#CMR17-115"/>
     </g>
    </g>
    <g id="line2d_42">
     <path d="M 344.51895 310.089084 
L 377.51895 310.089084 
" style="fill:none;stroke:#2ca02c;stroke-linecap:square;stroke-width:2.25;"/>
    </g>
    <g id="line2d_43"/>
    <g id="text_18">
     <!-- $A \qty[1-\exp(B x)]$ -->
     <defs>
      <path d="M 17 11.25 
C 13.5 5.234375 10.09375 3.203125 5.296875 2.890625 
C 4.203125 2.796875 3.40625 2.796875 3.40625 1 
C 3.40625 0.390625 3.90625 0 4.59375 0 
C 6.40625 0 10.90625 0.1875 12.703125 0.1875 
C 15.59375 0.1875 18.796875 0 21.59375 0 
C 22.203125 0 23.40625 0 23.40625 1.890625 
C 23.40625 2.796875 22.59375 2.890625 22 2.890625 
C 19.703125 3.09375 17.796875 3.90625 17.796875 6.359375 
C 17.796875 7.78125 18.40625 8.90625 19.703125 11.15625 
L 27.296875 24 
L 52.796875 24 
C 52.90625 23.078125 52.90625 22.265625 53 21.34375 
C 53.296875 18.6875 54.5 8.09375 54.5 6.15625 
C 54.5 3.09375 49.40625 2.890625 47.796875 2.890625 
C 46.703125 2.890625 45.59375 2.890625 45.59375 1.09375 
C 45.59375 0 46.5 0 47.09375 0 
C 48.796875 0 50.796875 0.1875 52.5 0.1875 
L 58.203125 0.1875 
C 64.296875 0.1875 68.703125 0 68.796875 0 
C 69.5 0 70.59375 0 70.59375 1.890625 
C 70.59375 2.890625 69.703125 2.890625 68.203125 2.890625 
C 62.703125 2.890625 62.59375 3.8125 62.296875 6.875 
L 56.203125 68.796875 
C 56 70.796875 55.59375 71 54.5 71 
C 53.5 71 52.90625 70.796875 52 69.296875 
z
M 29 26.890625 
L 49.09375 59.859375 
L 52.5 26.890625 
z
" id="CMMI12-65"/>
      <path d="M 65.90625 23 
C 67.59375 23 69.40625 23 69.40625 25 
C 69.40625 27 67.59375 27 65.90625 27 
L 11.796875 27 
C 10.09375 27 8.296875 27 8.296875 25 
C 8.296875 23 10.09375 23 11.796875 23 
z
" id="CMSY10-0"/>
      <path d="M 30.59375 -24.40625 
C 30.59375 -24.3125 30.59375 -24.109375 30.296875 -23.8125 
C 25.703125 -19.109375 13.40625 -6.296875 13.40625 24.9375 
C 13.40625 56.171875 25.5 68.875 30.40625 73.890625 
C 30.40625 73.984375 30.59375 74.1875 30.59375 74.484375 
C 30.59375 74.796875 30.296875 75 29.90625 75 
C 28.796875 75 20.296875 67.578125 15.40625 56.5625 
C 10.40625 45.453125 9 34.65625 9 25.046875 
C 9 17.828125 9.703125 5.625 15.703125 -7.296875 
C 20.5 -17.703125 28.703125 -25 29.90625 -25 
C 30.40625 -25 30.59375 -24.8125 30.59375 -24.40625 
z
" id="CMR17-40"/>
      <path d="M 36.59375 61.171875 
C 37.5 64.890625 37.90625 65.09375 41.796875 65.09375 
L 54.796875 65.09375 
C 66.09375 65.09375 66.09375 55.421875 66.09375 54.515625 
C 66.09375 46.359375 58 36 44.796875 36 
L 30.40625 36 
z
M 53.5 35.1875 
C 64.40625 37.203125 74.296875 44.859375 74.296875 54.109375 
C 74.296875 61.96875 67.40625 68 56.09375 68 
L 24 68 
C 22.09375 68 21.203125 68 21.203125 66.09375 
C 21.203125 65.09375 22.09375 65.09375 23.59375 65.09375 
C 29.703125 65.09375 29.703125 64.28125 29.703125 63.171875 
C 29.703125 62.984375 29.703125 62.375 29.296875 60.859375 
L 15.796875 7.328125 
C 14.90625 3.875 14.703125 2.890625 7.703125 2.890625 
C 5.796875 2.890625 4.796875 2.890625 4.796875 1.09375 
C 4.796875 0 5.40625 0 7.40625 0 
L 41.703125 0 
C 57 0 68.796875 11.453125 68.796875 21.390625 
C 68.796875 29.46875 61.59375 34.390625 53.5 35.1875 
z
M 39.296875 2.890625 
L 25.796875 2.890625 
C 24.40625 2.890625 24.203125 2.890625 23.59375 2.984375 
C 22.5 3.09375 22.40625 3.28125 22.40625 4.078125 
C 22.40625 4.765625 22.59375 5.359375 22.796875 6.234375 
L 29.796875 34 
L 48.59375 34 
C 60.40625 34 60.40625 23.171875 60.40625 22.375 
C 60.40625 12.9375 51.703125 2.890625 39.296875 2.890625 
z
" id="CMMI12-66"/>
      <path d="M 47.40625 41 
C 44.203125 40.390625 43 37.984375 43 36.09375 
C 43 33.6875 44.90625 32.890625 46.296875 32.890625 
C 49.296875 32.890625 51.40625 35.484375 51.40625 38.1875 
C 51.40625 42.09375 46.59375 44 42.40625 44 
C 36.296875 44 32.90625 38.296875 32 36.390625 
C 29.703125 43.59375 23.5 44 21.703125 44 
C 11.5 44 6.09375 31.140625 6.09375 28.890625 
C 6.09375 28.484375 6.5 27.96875 7.203125 27.96875 
C 8 27.96875 8.203125 28.578125 8.40625 28.984375 
C 11.796875 40.1875 18.5 41.984375 21.40625 41.984375 
C 25.90625 41.984375 26.796875 38.09375 26.796875 35.6875 
C 26.796875 33.484375 26.203125 31.140625 25 26.21875 
L 21.59375 12.15625 
C 20.09375 6.09375 17.203125 1 11.90625 1 
C 11.40625 1 8.90625 1 6.796875 1.96875 
C 10.40625 2.59375 11.203125 5.59375 11.203125 6.796875 
C 11.203125 8.796875 9.703125 10 7.796875 10 
C 5.40625 10 2.796875 7.890625 2.796875 4.6875 
C 2.796875 0.890625 7.5 -1 11.796875 -1 
C 16.59375 -1 20 2.390625 22.09375 6.484375 
C 23.703125 1 28.703125 -1 32.40625 -1 
C 42.59375 -1 48 11.734375 48 14 
C 48 14.515625 47.59375 14.921875 47 14.921875 
C 46.09375 14.921875 46 14.40625 45.703125 13.59375 
C 43 4.6875 37.203125 1 32.703125 1 
C 29.203125 1 27.296875 3.1875 27.296875 7.296875 
C 27.296875 9.484375 27.703125 11.125 29.296875 17.90625 
L 32.796875 31.859375 
C 34.296875 37.890625 37.703125 41.984375 42.296875 41.984375 
C 42.5 41.984375 45.296875 41.984375 47.40625 41 
z
" id="CMMI12-120"/>
      <path d="M 26.296875 24.9375 
C 26.296875 32.140625 25.59375 44.359375 19.59375 57.265625 
C 14.796875 67.6875 6.59375 75 5.40625 75 
C 5.09375 75 4.703125 74.890625 4.703125 74.390625 
C 4.703125 74.1875 4.796875 74.09375 4.90625 73.890625 
C 9.703125 68.875 21.90625 56.171875 21.90625 25.046875 
C 21.90625 -6.1875 9.796875 -18.90625 4.90625 -23.90625 
C 4.796875 -24.109375 4.703125 -24.203125 4.703125 -24.40625 
C 4.703125 -24.90625 5.09375 -25 5.40625 -25 
C 6.5 -25 15 -17.609375 19.90625 -6.59375 
C 24.90625 4.515625 26.296875 15.328125 26.296875 24.9375 
z
" id="CMR17-41"/>
     </defs>
     <g transform="translate(390.71895 315.864084)scale(0.165 -0.165)">
      <use transform="scale(0.996264)" xlink:href="#CMMI12-65"/>
      <use transform="translate(73.127885 0.003177)scale(0.996264)" xlink:href="#CMR17-91"/>
      <use transform="translate(97.998944 0)scale(0.996264)" xlink:href="#CMR17-49"/>
      <use transform="translate(165.828628 0)scale(0.996264)" xlink:href="#CMSY10-0"/>
      <use transform="translate(265.455303 0)scale(0.996264)" xlink:href="#CMR17-101"/>
      <use transform="translate(305.940963 0)scale(0.996264)" xlink:href="#CMR17-120"/>
      <use transform="translate(354.233879 0)scale(0.996264)" xlink:href="#CMR17-112"/>
      <use transform="translate(405.129249 0.003177)scale(0.996264)" xlink:href="#CMR17-40"/>
      <use transform="translate(440.410016 0)scale(0.996264)" xlink:href="#CMMI12-66"/>
      <use transform="translate(519.54554 0)scale(0.996264)" xlink:href="#CMMI12-120"/>
      <use transform="translate(574.979599 0.003177)scale(0.996264)" xlink:href="#CMR17-41"/>
      <use transform="translate(610.260367 0.003177)scale(0.996264)" xlink:href="#CMR17-93"/>
     </g>
    </g>
    <g id="line2d_44">
     <path d="M 344.51895 333.998673 
L 377.51895 333.998673 
" style="fill:none;stroke:#ff7f0e;stroke-linecap:square;stroke-width:2.25;"/>
    </g>
    <g id="line2d_45"/>
    <g id="text_19">
     <!-- $-A B x$ -->
     <g transform="translate(390.71895 339.773673)scale(0.165 -0.165)">
      <use transform="scale(0.996264)" xlink:href="#CMSY10-0"/>
      <use transform="translate(77.487468 0)scale(0.996264)" xlink:href="#CMMI12-65"/>
      <use transform="translate(150.615353 0)scale(0.996264)" xlink:href="#CMMI12-66"/>
      <use transform="translate(229.750876 0)scale(0.996264)" xlink:href="#CMMI12-120"/>
     </g>
    </g>
   </g>
  </g>
 </g>
 <defs>
  <clipPath id="p0bf468eba8">
   <rect height="344.62" width="489.524292" x="48.697312" y="13.2"/>
  </clipPath>
 </defs>
</svg>
