<?xml version="1.0" encoding="utf-8" standalone="no"?>
<!DOCTYPE svg PUBLIC "-//W3C//DTD SVG 1.1//EN"
  "http://www.w3.org/Graphics/SVG/1.1/DTD/svg11.dtd">
<!-- Created with matplotlib (http://matplotlib.org/) -->
<svg height="280.568906pt" version="1.1" viewBox="0 0 410.864062 280.568906" width="410.864062pt" xmlns="http://www.w3.org/2000/svg" xmlns:xlink="http://www.w3.org/1999/xlink">
 <defs>
  <style type="text/css">
*{stroke-linecap:butt;stroke-linejoin:round;}
  </style>
 </defs>
 <g id="figure_1">
  <g id="patch_1">
   <path d="M -0 280.568906 
L 410.864062 280.568906 
L 410.864062 0 
L -0 0 
z
" style="fill:#ffffff;"/>
  </g>
  <g id="axes_1">
   <g id="patch_2">
    <path d="M 53.116875 230.64 
L 387.916875 230.64 
L 387.916875 13.2 
L 53.116875 13.2 
z
" style="fill:#ffffff;"/>
   </g>
   <g id="PolyCollection_1">
    <path clip-path="url(#p04d5626cc0)" d="M 46.615904 59.839487 
L 46.615904 47.973891 
L 46.957547 47.973891 
L 47.299189 47.973891 
L 47.640832 47.973891 
L 47.982475 47.973891 
L 48.324117 47.973891 
L 48.66576 47.973891 
L 49.007402 47.973891 
L 49.349045 47.973891 
L 49.690688 47.973891 
L 50.03233 47.973891 
L 50.373973 47.973891 
L 50.715615 47.973891 
L 51.057258 47.973891 
L 51.398901 47.973891 
L 51.740543 47.973891 
L 52.082186 47.973891 
L 52.423829 47.973891 
L 52.765471 47.973891 
L 53.107114 47.973891 
L 53.448756 47.973891 
L 53.790399 47.973891 
L 54.132042 47.973891 
L 54.473684 47.973891 
L 54.815327 47.973891 
L 55.156969 47.973891 
L 55.498612 47.973891 
L 55.840255 47.973891 
L 56.181897 47.973891 
L 56.52354 47.973891 
L 56.865183 47.973891 
L 57.206825 47.973891 
L 57.548468 47.973891 
L 57.89011 47.973891 
L 58.231753 47.973891 
L 58.573396 47.973891 
L 58.915038 47.973891 
L 59.256681 47.973891 
L 59.598323 47.973891 
L 59.939966 47.973891 
L 60.281609 47.973891 
L 60.623251 47.973891 
L 60.964894 47.973891 
L 61.306537 47.973891 
L 61.648179 47.973891 
L 61.989822 47.973891 
L 62.331464 47.973891 
L 62.673107 47.973891 
L 63.01475 47.973891 
L 63.356392 47.973891 
L 63.698035 47.973891 
L 64.039677 47.973891 
L 64.38132 47.973891 
L 64.722963 47.973891 
L 65.064605 47.973891 
L 65.406248 47.973891 
L 65.74789 47.973891 
L 66.089533 47.973891 
L 66.431176 47.973891 
L 66.772818 47.973891 
L 67.114461 47.973891 
L 67.456104 47.973891 
L 67.797746 47.973891 
L 68.139389 47.973891 
L 68.481031 47.973891 
L 68.822674 47.973891 
L 69.164317 47.973891 
L 69.505959 47.973891 
L 69.847602 47.973891 
L 70.189244 47.973891 
L 70.530887 47.973891 
L 70.87253 47.973891 
L 71.214172 47.973891 
L 71.555815 47.973891 
L 71.897458 47.973891 
L 72.2391 47.973891 
L 72.580743 47.973891 
L 72.922385 47.973891 
L 73.264028 47.973891 
L 73.605671 47.973891 
L 73.947313 47.973891 
L 74.288956 47.973891 
L 74.630598 47.973891 
L 74.972241 47.973891 
L 75.313884 47.973891 
L 75.655526 47.973891 
L 75.997169 47.973891 
L 76.338811 47.973891 
L 76.680454 47.973891 
L 77.022097 47.973891 
L 77.363739 47.973891 
L 77.705382 47.973891 
L 78.047025 47.973891 
L 78.388667 47.973891 
L 78.73031 47.973891 
L 79.071952 47.973891 
L 79.413595 47.973891 
L 79.755238 47.973891 
L 80.09688 47.973891 
L 80.438523 47.973891 
L 80.780165 47.973891 
L 81.121808 47.973891 
L 81.463451 47.973891 
L 81.805093 47.973891 
L 82.146736 47.973891 
L 82.488379 47.973891 
L 82.830021 47.973891 
L 83.171664 47.973891 
L 83.513306 47.973891 
L 83.854949 47.973891 
L 84.196592 47.973891 
L 84.538234 47.973891 
L 84.879877 47.973891 
L 85.221519 47.973891 
L 85.563162 47.973891 
L 85.904805 47.973891 
L 86.246447 47.973891 
L 86.58809 47.973891 
L 86.929733 47.973891 
L 87.271375 47.973891 
L 87.613018 47.973891 
L 87.95466 47.973891 
L 88.296303 47.973891 
L 88.637946 47.973891 
L 88.979588 47.973891 
L 89.321231 47.973891 
L 89.662873 47.973891 
L 90.004516 47.973891 
L 90.346159 47.973891 
L 90.687801 47.973891 
L 91.029444 47.973891 
L 91.371086 47.973891 
L 91.712729 47.973891 
L 92.054372 47.973891 
L 92.396014 47.973891 
L 92.737657 47.973891 
L 93.0793 47.973891 
L 93.420942 47.973891 
L 93.762585 47.973891 
L 94.104227 47.973891 
L 94.44587 47.973891 
L 94.787513 47.973891 
L 95.129155 47.973891 
L 95.470798 47.973891 
L 95.81244 47.973891 
L 96.154083 47.973891 
L 96.495726 47.973891 
L 96.837368 47.973891 
L 97.179011 47.973891 
L 97.520654 47.973891 
L 97.862296 47.973891 
L 98.203939 47.973891 
L 98.545581 47.973891 
L 98.887224 47.973891 
L 99.228867 47.973891 
L 99.570509 47.973891 
L 99.912152 47.973891 
L 100.253794 47.973891 
L 100.595437 47.973891 
L 100.93708 47.973891 
L 101.278722 47.973891 
L 101.620365 47.973891 
L 101.962008 47.973891 
L 102.30365 47.973891 
L 102.645293 47.973891 
L 102.986935 47.973891 
L 103.328578 47.973891 
L 103.670221 47.973891 
L 104.011863 47.973891 
L 104.353506 47.973891 
L 104.695148 47.973891 
L 105.036791 47.973891 
L 105.378434 47.973891 
L 105.720076 47.973891 
L 106.061719 47.973891 
L 106.403361 47.973891 
L 106.745004 47.973891 
L 107.086647 47.973891 
L 107.428289 47.973891 
L 107.769932 47.973891 
L 108.111575 47.973891 
L 108.453217 47.973891 
L 108.79486 47.973891 
L 109.136502 47.973891 
L 109.478145 47.973891 
L 109.819788 47.973891 
L 110.16143 47.973891 
L 110.503073 47.973891 
L 110.844715 47.973891 
L 111.186358 47.973891 
L 111.528001 47.973891 
L 111.869643 47.973891 
L 112.211286 47.973891 
L 112.552929 47.973891 
L 112.894571 47.973891 
L 113.236214 47.973891 
L 113.577856 47.973891 
L 113.919499 47.973891 
L 114.261142 47.973891 
L 114.602784 47.973891 
L 114.944427 47.973891 
L 115.286069 47.973891 
L 115.627712 47.973891 
L 115.969355 47.973891 
L 116.310997 47.973891 
L 116.65264 47.973891 
L 116.994283 47.973891 
L 117.335925 47.973891 
L 117.677568 47.973891 
L 118.01921 47.973891 
L 118.360853 47.973891 
L 118.702496 47.973891 
L 119.044138 47.973891 
L 119.385781 47.973891 
L 119.727423 47.973891 
L 120.069066 47.973891 
L 120.410709 47.973891 
L 120.752351 47.973891 
L 121.093994 47.973891 
L 121.435636 47.973891 
L 121.777279 47.973891 
L 122.118922 47.973891 
L 122.460564 47.973891 
L 122.802207 47.973891 
L 123.14385 47.973891 
L 123.485492 47.973891 
L 123.827135 47.973891 
L 124.168777 47.973891 
L 124.51042 47.973891 
L 124.852063 47.973891 
L 125.193705 47.973891 
L 125.535348 47.973891 
L 125.87699 47.973891 
L 126.218633 47.973891 
L 126.560276 47.973891 
L 126.901918 47.973891 
L 127.243561 47.973891 
L 127.585204 47.973891 
L 127.926846 47.973891 
L 128.268489 47.973891 
L 128.610131 47.973891 
L 128.951774 47.973891 
L 129.293417 47.973891 
L 129.635059 47.973891 
L 129.976702 47.973891 
L 130.318344 47.973891 
L 130.659987 47.973891 
L 131.00163 47.973891 
L 131.343272 47.973891 
L 131.684915 47.973891 
L 132.026557 47.973891 
L 132.3682 47.973891 
L 132.709843 47.973891 
L 133.051485 47.973891 
L 133.393128 47.973891 
L 133.734771 47.973891 
L 134.076413 47.973891 
L 134.418056 47.973891 
L 134.759698 47.973891 
L 135.101341 47.973891 
L 135.442984 47.973891 
L 135.784626 47.973891 
L 136.126269 47.973891 
L 136.467911 47.973891 
L 136.809554 47.973891 
L 137.151197 47.973891 
L 137.492839 47.973891 
L 137.834482 47.973891 
L 138.176125 47.973891 
L 138.517767 47.973891 
L 138.85941 47.973891 
L 139.201052 47.973891 
L 139.542695 47.973891 
L 139.884338 47.973891 
L 140.22598 47.973891 
L 140.567623 47.973891 
L 140.909265 47.973891 
L 141.250908 47.973891 
L 141.592551 47.973891 
L 141.934193 47.973891 
L 142.275836 47.973891 
L 142.617479 47.973891 
L 142.959121 47.973891 
L 143.300764 47.973891 
L 143.642406 47.973891 
L 143.984049 47.973891 
L 144.325692 47.973891 
L 144.667334 47.973891 
L 145.008977 47.973891 
L 145.350619 47.973891 
L 145.692262 47.973891 
L 146.033905 47.973891 
L 146.375547 47.973891 
L 146.71719 47.973891 
L 147.058832 47.973891 
L 147.400475 47.973891 
L 147.742118 47.973891 
L 148.08376 47.973891 
L 148.425403 47.973891 
L 148.767046 47.973891 
L 149.108688 47.973891 
L 149.450331 47.973891 
L 149.791973 47.973891 
L 150.133616 47.973891 
L 150.475259 47.973891 
L 150.816901 47.973891 
L 151.158544 47.973891 
L 151.500186 47.973891 
L 151.841829 47.973891 
L 152.183472 47.973891 
L 152.525114 47.973891 
L 152.866757 47.973891 
L 153.2084 47.973891 
L 153.550042 47.973891 
L 153.891685 47.973891 
L 154.233327 47.973891 
L 154.57497 47.973891 
L 154.916613 47.973891 
L 155.258255 47.973891 
L 155.599898 47.973891 
L 155.94154 47.973891 
L 156.283183 47.973891 
L 156.624826 47.973891 
L 156.966468 47.973891 
L 157.308111 47.973891 
L 157.649754 47.973891 
L 157.991396 47.973891 
L 158.333039 47.973891 
L 158.674681 47.973891 
L 159.016324 47.973891 
L 159.357967 47.973891 
L 159.699609 47.973891 
L 160.041252 47.973891 
L 160.382894 47.973891 
L 160.724537 47.973891 
L 161.06618 47.973891 
L 161.407822 47.973891 
L 161.749465 47.973891 
L 162.091107 47.973891 
L 162.43275 47.973891 
L 162.774393 47.973891 
L 163.116035 47.973891 
L 163.457678 47.973891 
L 163.799321 47.973891 
L 164.140963 47.973891 
L 164.482606 47.973891 
L 164.824248 47.973891 
L 165.165891 47.973891 
L 165.507534 47.973891 
L 165.849176 47.973891 
L 166.190819 47.973891 
L 166.532461 47.973891 
L 166.874104 47.973891 
L 167.215747 47.973891 
L 167.557389 47.973891 
L 167.899032 47.973891 
L 168.240675 47.973891 
L 168.582317 47.973891 
L 168.92396 47.973891 
L 169.265602 47.973891 
L 169.607245 47.973891 
L 169.948888 47.973891 
L 170.29053 47.973891 
L 170.632173 47.973891 
L 170.973815 47.973891 
L 171.315458 47.973891 
L 171.657101 47.973891 
L 171.998743 47.973891 
L 172.340386 47.973891 
L 172.682029 47.973891 
L 173.023671 47.973891 
L 173.365314 47.973891 
L 173.706956 47.973891 
L 174.048599 47.973891 
L 174.390242 47.973891 
L 174.731884 47.973891 
L 175.073527 47.973891 
L 175.415169 47.973891 
L 175.756812 47.973891 
L 176.098455 47.973891 
L 176.440097 47.973891 
L 176.78174 47.973891 
L 177.123382 47.973891 
L 177.465025 47.973891 
L 177.806668 47.973891 
L 178.14831 47.973891 
L 178.489953 47.973891 
L 178.831596 47.973891 
L 179.173238 47.973891 
L 179.514881 47.973891 
L 179.856523 47.973891 
L 180.198166 47.973891 
L 180.539809 47.973891 
L 180.881451 47.973891 
L 181.223094 47.973891 
L 181.564736 47.973891 
L 181.906379 47.973891 
L 182.248022 47.973891 
L 182.589664 47.973891 
L 182.931307 47.973891 
L 183.27295 47.973891 
L 183.614592 47.973891 
L 183.956235 47.973891 
L 184.297877 47.973891 
L 184.63952 47.973891 
L 184.981163 47.973891 
L 185.322805 47.973891 
L 185.664448 47.973891 
L 186.00609 47.973891 
L 186.347733 47.973891 
L 186.689376 47.973891 
L 187.031018 47.973891 
L 187.372661 47.973891 
L 187.714303 47.973891 
L 188.055946 47.973891 
L 188.397589 47.973891 
L 188.739231 47.973891 
L 189.080874 47.973891 
L 189.422517 47.973891 
L 189.764159 47.973891 
L 190.105802 47.973891 
L 190.447444 47.973891 
L 190.789087 47.973891 
L 191.13073 47.973891 
L 191.472372 47.973891 
L 191.814015 47.973891 
L 192.155657 47.973891 
L 192.4973 47.973891 
L 192.838943 47.973891 
L 193.180585 47.973891 
L 193.522228 47.973891 
L 193.863871 47.973891 
L 194.205513 47.973891 
L 194.547156 47.973891 
L 194.888798 47.973891 
L 195.230441 47.973891 
L 195.572084 47.973891 
L 195.913726 47.973891 
L 196.255369 47.973891 
L 196.597011 47.973891 
L 196.938654 47.973891 
L 197.280297 47.973891 
L 197.621939 47.973891 
L 197.963582 47.973891 
L 198.305225 47.973891 
L 198.646867 47.973891 
L 198.98851 47.973891 
L 199.330152 47.973891 
L 199.671795 47.973891 
L 200.013438 47.973891 
L 200.35508 47.973891 
L 200.696723 47.973891 
L 201.038365 47.973891 
L 201.380008 47.973891 
L 201.721651 47.973891 
L 202.063293 47.973891 
L 202.404936 47.973891 
L 202.746578 47.973891 
L 203.088221 47.973891 
L 203.429864 47.973891 
L 203.771506 47.973891 
L 204.113149 47.973891 
L 204.454792 47.973891 
L 204.796434 47.973891 
L 205.138077 47.973891 
L 205.479719 47.973891 
L 205.821362 47.973891 
L 206.163005 47.973891 
L 206.504647 47.973891 
L 206.84629 47.973891 
L 207.187932 47.973891 
L 207.529575 47.973891 
L 207.871218 47.973891 
L 208.21286 47.973891 
L 208.554503 47.973891 
L 208.896146 47.973891 
L 209.237788 47.973891 
L 209.579431 47.973891 
L 209.921073 47.973891 
L 210.262716 47.973891 
L 210.604359 47.973891 
L 210.946001 47.973891 
L 211.287644 47.973891 
L 211.629286 47.973891 
L 211.970929 47.973891 
L 212.312572 47.973891 
L 212.654214 47.973891 
L 212.995857 47.973891 
L 213.3375 47.973891 
L 213.679142 47.973891 
L 214.020785 47.973891 
L 214.362427 47.973891 
L 214.70407 47.973891 
L 215.045713 47.973891 
L 215.387355 47.973891 
L 215.728998 47.973891 
L 216.07064 47.973891 
L 216.412283 47.973891 
L 216.753926 47.973891 
L 217.095568 47.973891 
L 217.437211 47.973891 
L 217.778853 47.973891 
L 218.120496 47.973891 
L 218.462139 47.973891 
L 218.803781 47.973891 
L 219.145424 47.973891 
L 219.487067 47.973891 
L 219.828709 47.973891 
L 220.170352 47.973891 
L 220.511994 47.973891 
L 220.853637 47.973891 
L 221.19528 47.973891 
L 221.536922 47.973891 
L 221.878565 47.973891 
L 222.220207 47.973891 
L 222.56185 47.973891 
L 222.903493 47.973891 
L 223.245135 47.973891 
L 223.586778 47.973891 
L 223.928421 47.973891 
L 224.270063 47.973891 
L 224.611706 47.973891 
L 224.953348 47.973891 
L 225.294991 47.973891 
L 225.636634 47.973891 
L 225.978276 47.973891 
L 226.319919 47.973891 
L 226.661561 47.973891 
L 227.003204 47.973891 
L 227.344847 47.973891 
L 227.686489 47.973891 
L 228.028132 47.973891 
L 228.369775 47.973891 
L 228.711417 47.973891 
L 229.05306 47.973891 
L 229.394702 47.973891 
L 229.736345 47.973891 
L 230.077988 47.973891 
L 230.41963 47.973891 
L 230.761273 47.973891 
L 231.102915 47.973891 
L 231.444558 47.973891 
L 231.786201 47.973891 
L 232.127843 47.973891 
L 232.469486 47.973891 
L 232.811128 47.973891 
L 233.152771 47.973891 
L 233.494414 47.973891 
L 233.836056 47.973891 
L 234.177699 47.973891 
L 234.519342 47.973891 
L 234.860984 47.973891 
L 235.202627 47.973891 
L 235.544269 47.973891 
L 235.885912 47.973891 
L 236.227555 47.973891 
L 236.569197 47.973891 
L 236.91084 47.973891 
L 237.252482 47.973891 
L 237.594125 47.973891 
L 237.935768 47.973891 
L 238.27741 47.973891 
L 238.619053 47.973891 
L 238.960696 47.973891 
L 239.302338 47.973891 
L 239.643981 47.973891 
L 239.985623 47.973891 
L 240.327266 47.973891 
L 240.668909 47.973891 
L 241.010551 47.973891 
L 241.352194 47.973891 
L 241.693836 47.973891 
L 242.035479 47.973891 
L 242.377122 47.973891 
L 242.718764 47.973891 
L 243.060407 47.973891 
L 243.402049 47.973891 
L 243.743692 47.973891 
L 244.085335 47.973891 
L 244.426977 47.973891 
L 244.76862 47.973891 
L 245.110263 47.973891 
L 245.451905 47.973891 
L 245.793548 47.973891 
L 246.13519 47.973891 
L 246.476833 47.973891 
L 246.818476 47.973891 
L 247.160118 47.973891 
L 247.501761 47.973891 
L 247.843403 47.973891 
L 248.185046 47.973891 
L 248.526689 47.973891 
L 248.868331 47.973891 
L 249.209974 47.973891 
L 249.551617 47.973891 
L 249.893259 47.973891 
L 250.234902 47.973891 
L 250.576544 47.973891 
L 250.918187 47.973891 
L 251.25983 47.973891 
L 251.601472 47.973891 
L 251.943115 47.973891 
L 252.284757 47.973891 
L 252.6264 47.973891 
L 252.968043 47.973891 
L 253.309685 47.973891 
L 253.651328 47.973891 
L 253.992971 47.973891 
L 254.334613 47.973891 
L 254.676256 47.973891 
L 255.017898 47.973891 
L 255.359541 47.973891 
L 255.701184 47.973891 
L 256.042826 47.973891 
L 256.384469 47.973891 
L 256.726111 47.973891 
L 257.067754 47.973891 
L 257.409397 47.973891 
L 257.751039 47.973891 
L 258.092682 47.973891 
L 258.434324 47.973891 
L 258.775967 47.973891 
L 259.11761 47.973891 
L 259.459252 47.973891 
L 259.800895 47.973891 
L 260.142538 47.973891 
L 260.48418 47.973891 
L 260.825823 47.973891 
L 261.167465 47.973891 
L 261.509108 47.973891 
L 261.850751 47.973891 
L 262.192393 47.973891 
L 262.534036 47.973891 
L 262.875678 47.973891 
L 263.217321 47.973891 
L 263.558964 47.973891 
L 263.900606 47.973891 
L 264.242249 47.973891 
L 264.583892 47.973891 
L 264.925534 47.973891 
L 265.267177 47.973891 
L 265.608819 47.973891 
L 265.950462 47.973891 
L 266.292105 47.973891 
L 266.633747 47.973891 
L 266.97539 47.973891 
L 267.317032 47.973891 
L 267.658675 47.973891 
L 268.000318 47.973891 
L 268.34196 47.973891 
L 268.683603 47.973891 
L 269.025246 47.973891 
L 269.366888 47.973891 
L 269.708531 47.973891 
L 270.050173 47.973891 
L 270.391816 47.973891 
L 270.733459 47.973891 
L 271.075101 47.973891 
L 271.416744 47.973891 
L 271.758386 47.973891 
L 272.100029 47.973891 
L 272.441672 47.973891 
L 272.783314 47.973891 
L 273.124957 47.973891 
L 273.466599 47.973891 
L 273.808242 47.973891 
L 274.149885 47.973891 
L 274.491527 47.973891 
L 274.83317 47.973891 
L 275.174813 47.973891 
L 275.516455 47.973891 
L 275.858098 47.973891 
L 276.19974 47.973891 
L 276.541383 47.973891 
L 276.883026 47.973891 
L 277.224668 47.973891 
L 277.566311 47.973891 
L 277.907953 47.973891 
L 278.249596 47.973891 
L 278.591239 47.973891 
L 278.932881 47.973891 
L 279.274524 47.973891 
L 279.616167 47.973891 
L 279.957809 47.973891 
L 280.299452 47.973891 
L 280.641094 47.973891 
L 280.982737 47.973891 
L 281.32438 47.973891 
L 281.666022 47.973891 
L 282.007665 47.973891 
L 282.349307 47.973891 
L 282.69095 47.973891 
L 283.032593 47.973891 
L 283.374235 47.973891 
L 283.715878 47.973891 
L 284.05752 47.973891 
L 284.399163 47.973891 
L 284.740806 47.973891 
L 285.082448 47.973891 
L 285.424091 47.973891 
L 285.765734 47.973891 
L 286.107376 47.973891 
L 286.449019 47.973891 
L 286.790661 47.973891 
L 287.132304 47.973891 
L 287.473947 47.973891 
L 287.815589 47.973891 
L 288.157232 47.973891 
L 288.498874 47.973891 
L 288.840517 47.973891 
L 289.18216 47.973891 
L 289.523802 47.973891 
L 289.865445 47.973891 
L 290.207088 47.973891 
L 290.54873 47.973891 
L 290.890373 47.973891 
L 291.232015 47.973891 
L 291.573658 47.973891 
L 291.915301 47.973891 
L 292.256943 47.973891 
L 292.598586 47.973891 
L 292.940228 47.973891 
L 293.281871 47.973891 
L 293.623514 47.973891 
L 293.965156 47.973891 
L 294.306799 47.973891 
L 294.648442 47.973891 
L 294.990084 47.973891 
L 295.331727 47.973891 
L 295.673369 47.973891 
L 296.015012 47.973891 
L 296.356655 47.973891 
L 296.698297 47.973891 
L 297.03994 47.973891 
L 297.381582 47.973891 
L 297.723225 47.973891 
L 298.064868 47.973891 
L 298.40651 47.973891 
L 298.748153 47.973891 
L 299.089795 47.973891 
L 299.431438 47.973891 
L 299.773081 47.973891 
L 300.114723 47.973891 
L 300.456366 47.973891 
L 300.798009 47.973891 
L 301.139651 47.973891 
L 301.481294 47.973891 
L 301.822936 47.973891 
L 302.164579 47.973891 
L 302.506222 47.973891 
L 302.847864 47.973891 
L 303.189507 47.973891 
L 303.531149 47.973891 
L 303.872792 47.973891 
L 304.214435 47.973891 
L 304.556077 47.973891 
L 304.89772 47.973891 
L 305.239363 47.973891 
L 305.581005 47.973891 
L 305.922648 47.973891 
L 306.26429 47.973891 
L 306.605933 47.973891 
L 306.947576 47.973891 
L 307.289218 47.973891 
L 307.630861 47.973891 
L 307.972503 47.973891 
L 308.314146 47.973891 
L 308.655789 47.973891 
L 308.997431 47.973891 
L 309.339074 47.973891 
L 309.680717 47.973891 
L 310.022359 47.973891 
L 310.364002 47.973891 
L 310.705644 47.973891 
L 311.047287 47.973891 
L 311.38893 47.973891 
L 311.730572 47.973891 
L 312.072215 47.973891 
L 312.413857 47.973891 
L 312.7555 47.973891 
L 313.097143 47.973891 
L 313.438785 47.973891 
L 313.780428 47.973891 
L 314.12207 47.973891 
L 314.463713 47.973891 
L 314.805356 47.973891 
L 315.146998 47.973891 
L 315.488641 47.973891 
L 315.830284 47.973891 
L 316.171926 47.973891 
L 316.513569 47.973891 
L 316.855211 47.973891 
L 317.196854 47.973891 
L 317.538497 47.973891 
L 317.880139 47.973891 
L 318.221782 47.973891 
L 318.563424 47.973891 
L 318.905067 47.973891 
L 319.24671 47.973891 
L 319.588352 47.973891 
L 319.929995 47.973891 
L 320.271638 47.973891 
L 320.61328 47.973891 
L 320.954923 47.973891 
L 321.296565 47.973891 
L 321.638208 47.973891 
L 321.979851 47.973891 
L 322.321493 47.973891 
L 322.663136 47.973891 
L 323.004778 47.973891 
L 323.346421 47.973891 
L 323.688064 47.973891 
L 324.029706 47.973891 
L 324.371349 47.973891 
L 324.712992 47.973891 
L 325.054634 47.973891 
L 325.396277 47.973891 
L 325.737919 47.973891 
L 326.079562 47.973891 
L 326.421205 47.973891 
L 326.762847 47.973891 
L 327.10449 47.973891 
L 327.446132 47.973891 
L 327.787775 47.973891 
L 328.129418 47.973891 
L 328.47106 47.973891 
L 328.812703 47.973891 
L 329.154345 47.973891 
L 329.495988 47.973891 
L 329.837631 47.973891 
L 330.179273 47.973891 
L 330.520916 47.973891 
L 330.862559 47.973891 
L 331.204201 47.973891 
L 331.545844 47.973891 
L 331.887486 47.973891 
L 332.229129 47.973891 
L 332.570772 47.973891 
L 332.912414 47.973891 
L 333.254057 47.973891 
L 333.595699 47.973891 
L 333.937342 47.973891 
L 334.278985 47.973891 
L 334.620627 47.973891 
L 334.96227 47.973891 
L 335.303913 47.973891 
L 335.645555 47.973891 
L 335.987198 47.973891 
L 336.32884 47.973891 
L 336.670483 47.973891 
L 337.012126 47.973891 
L 337.353768 47.973891 
L 337.695411 47.973891 
L 338.037053 47.973891 
L 338.378696 47.973891 
L 338.720339 47.973891 
L 339.061981 47.973891 
L 339.403624 47.973891 
L 339.745266 47.973891 
L 340.086909 47.973891 
L 340.428552 47.973891 
L 340.770194 47.973891 
L 341.111837 47.973891 
L 341.45348 47.973891 
L 341.795122 47.973891 
L 342.136765 47.973891 
L 342.478407 47.973891 
L 342.82005 47.973891 
L 343.161693 47.973891 
L 343.503335 47.973891 
L 343.844978 47.973891 
L 344.18662 47.973891 
L 344.528263 47.973891 
L 344.869906 47.973891 
L 345.211548 47.973891 
L 345.553191 47.973891 
L 345.894834 47.973891 
L 346.236476 47.973891 
L 346.578119 47.973891 
L 346.919761 47.973891 
L 347.261404 47.973891 
L 347.603047 47.973891 
L 347.944689 47.973891 
L 348.286332 47.973891 
L 348.627974 47.973891 
L 348.969617 47.973891 
L 349.31126 47.973891 
L 349.652902 47.973891 
L 349.994545 47.973891 
L 350.336188 47.973891 
L 350.67783 47.973891 
L 351.019473 47.973891 
L 351.361115 47.973891 
L 351.702758 47.973891 
L 352.044401 47.973891 
L 352.386043 47.973891 
L 352.727686 47.973891 
L 353.069328 47.973891 
L 353.410971 47.973891 
L 353.752614 47.973891 
L 354.094256 47.973891 
L 354.435899 47.973891 
L 354.777541 47.973891 
L 355.119184 47.973891 
L 355.460827 47.973891 
L 355.802469 47.973891 
L 356.144112 47.973891 
L 356.485755 47.973891 
L 356.827397 47.973891 
L 357.16904 47.973891 
L 357.510682 47.973891 
L 357.852325 47.973891 
L 358.193968 47.973891 
L 358.53561 47.973891 
L 358.877253 47.973891 
L 359.218895 47.973891 
L 359.560538 47.973891 
L 359.902181 47.973891 
L 360.243823 47.973891 
L 360.585466 47.973891 
L 360.927109 47.973891 
L 361.268751 47.973891 
L 361.610394 47.973891 
L 361.952036 47.973891 
L 362.293679 47.973891 
L 362.635322 47.973891 
L 362.976964 47.973891 
L 363.318607 47.973891 
L 363.660249 47.973891 
L 364.001892 47.973891 
L 364.343535 47.973891 
L 364.685177 47.973891 
L 365.02682 47.973891 
L 365.368463 47.973891 
L 365.710105 47.973891 
L 366.051748 47.973891 
L 366.39339 47.973891 
L 366.735033 47.973891 
L 367.076676 47.973891 
L 367.418318 47.973891 
L 367.759961 47.973891 
L 368.101603 47.973891 
L 368.443246 47.973891 
L 368.784889 47.973891 
L 369.126531 47.973891 
L 369.468174 47.973891 
L 369.809816 47.973891 
L 370.151459 47.973891 
L 370.493102 47.973891 
L 370.834744 47.973891 
L 371.176387 47.973891 
L 371.51803 47.973891 
L 371.859672 47.973891 
L 372.201315 47.973891 
L 372.542957 47.973891 
L 372.8846 47.973891 
L 373.226243 47.973891 
L 373.567885 47.973891 
L 373.909528 47.973891 
L 374.25117 47.973891 
L 374.592813 47.973891 
L 374.934456 47.973891 
L 375.276098 47.973891 
L 375.617741 47.973891 
L 375.959384 47.973891 
L 376.301026 47.973891 
L 376.642669 47.973891 
L 376.984311 47.973891 
L 377.325954 47.973891 
L 377.667597 47.973891 
L 378.009239 47.973891 
L 378.350882 47.973891 
L 378.692524 47.973891 
L 379.034167 47.973891 
L 379.37581 47.973891 
L 379.717452 47.973891 
L 380.059095 47.973891 
L 380.400738 47.973891 
L 380.74238 47.973891 
L 381.084023 47.973891 
L 381.425665 47.973891 
L 381.767308 47.973891 
L 382.108951 47.973891 
L 382.450593 47.973891 
L 382.792236 47.973891 
L 383.133878 47.973891 
L 383.475521 47.973891 
L 383.817164 47.973891 
L 384.158806 47.973891 
L 384.500449 47.973891 
L 384.842091 47.973891 
L 385.183734 47.973891 
L 385.525377 47.973891 
L 385.867019 47.973891 
L 386.208662 47.973891 
L 386.550305 47.973891 
L 386.891947 47.973891 
L 387.23359 47.973891 
L 387.575232 47.973891 
L 387.916875 47.973891 
L 387.916875 59.839487 
L 387.916875 59.839487 
L 387.575232 59.839487 
L 387.23359 59.839487 
L 386.891947 59.839487 
L 386.550305 59.839487 
L 386.208662 59.839487 
L 385.867019 59.839487 
L 385.525377 59.839487 
L 385.183734 59.839487 
L 384.842091 59.839487 
L 384.500449 59.839487 
L 384.158806 59.839487 
L 383.817164 59.839487 
L 383.475521 59.839487 
L 383.133878 59.839487 
L 382.792236 59.839487 
L 382.450593 59.839487 
L 382.108951 59.839487 
L 381.767308 59.839487 
L 381.425665 59.839487 
L 381.084023 59.839487 
L 380.74238 59.839487 
L 380.400738 59.839487 
L 380.059095 59.839487 
L 379.717452 59.839487 
L 379.37581 59.839487 
L 379.034167 59.839487 
L 378.692524 59.839487 
L 378.350882 59.839487 
L 378.009239 59.839487 
L 377.667597 59.839487 
L 377.325954 59.839487 
L 376.984311 59.839487 
L 376.642669 59.839487 
L 376.301026 59.839487 
L 375.959384 59.839487 
L 375.617741 59.839487 
L 375.276098 59.839487 
L 374.934456 59.839487 
L 374.592813 59.839487 
L 374.25117 59.839487 
L 373.909528 59.839487 
L 373.567885 59.839487 
L 373.226243 59.839487 
L 372.8846 59.839487 
L 372.542957 59.839487 
L 372.201315 59.839487 
L 371.859672 59.839487 
L 371.51803 59.839487 
L 371.176387 59.839487 
L 370.834744 59.839487 
L 370.493102 59.839487 
L 370.151459 59.839487 
L 369.809816 59.839487 
L 369.468174 59.839487 
L 369.126531 59.839487 
L 368.784889 59.839487 
L 368.443246 59.839487 
L 368.101603 59.839487 
L 367.759961 59.839487 
L 367.418318 59.839487 
L 367.076676 59.839487 
L 366.735033 59.839487 
L 366.39339 59.839487 
L 366.051748 59.839487 
L 365.710105 59.839487 
L 365.368463 59.839487 
L 365.02682 59.839487 
L 364.685177 59.839487 
L 364.343535 59.839487 
L 364.001892 59.839487 
L 363.660249 59.839487 
L 363.318607 59.839487 
L 362.976964 59.839487 
L 362.635322 59.839487 
L 362.293679 59.839487 
L 361.952036 59.839487 
L 361.610394 59.839487 
L 361.268751 59.839487 
L 360.927109 59.839487 
L 360.585466 59.839487 
L 360.243823 59.839487 
L 359.902181 59.839487 
L 359.560538 59.839487 
L 359.218895 59.839487 
L 358.877253 59.839487 
L 358.53561 59.839487 
L 358.193968 59.839487 
L 357.852325 59.839487 
L 357.510682 59.839487 
L 357.16904 59.839487 
L 356.827397 59.839487 
L 356.485755 59.839487 
L 356.144112 59.839487 
L 355.802469 59.839487 
L 355.460827 59.839487 
L 355.119184 59.839487 
L 354.777541 59.839487 
L 354.435899 59.839487 
L 354.094256 59.839487 
L 353.752614 59.839487 
L 353.410971 59.839487 
L 353.069328 59.839487 
L 352.727686 59.839487 
L 352.386043 59.839487 
L 352.044401 59.839487 
L 351.702758 59.839487 
L 351.361115 59.839487 
L 351.019473 59.839487 
L 350.67783 59.839487 
L 350.336188 59.839487 
L 349.994545 59.839487 
L 349.652902 59.839487 
L 349.31126 59.839487 
L 348.969617 59.839487 
L 348.627974 59.839487 
L 348.286332 59.839487 
L 347.944689 59.839487 
L 347.603047 59.839487 
L 347.261404 59.839487 
L 346.919761 59.839487 
L 346.578119 59.839487 
L 346.236476 59.839487 
L 345.894834 59.839487 
L 345.553191 59.839487 
L 345.211548 59.839487 
L 344.869906 59.839487 
L 344.528263 59.839487 
L 344.18662 59.839487 
L 343.844978 59.839487 
L 343.503335 59.839487 
L 343.161693 59.839487 
L 342.82005 59.839487 
L 342.478407 59.839487 
L 342.136765 59.839487 
L 341.795122 59.839487 
L 341.45348 59.839487 
L 341.111837 59.839487 
L 340.770194 59.839487 
L 340.428552 59.839487 
L 340.086909 59.839487 
L 339.745266 59.839487 
L 339.403624 59.839487 
L 339.061981 59.839487 
L 338.720339 59.839487 
L 338.378696 59.839487 
L 338.037053 59.839487 
L 337.695411 59.839487 
L 337.353768 59.839487 
L 337.012126 59.839487 
L 336.670483 59.839487 
L 336.32884 59.839487 
L 335.987198 59.839487 
L 335.645555 59.839487 
L 335.303913 59.839487 
L 334.96227 59.839487 
L 334.620627 59.839487 
L 334.278985 59.839487 
L 333.937342 59.839487 
L 333.595699 59.839487 
L 333.254057 59.839487 
L 332.912414 59.839487 
L 332.570772 59.839487 
L 332.229129 59.839487 
L 331.887486 59.839487 
L 331.545844 59.839487 
L 331.204201 59.839487 
L 330.862559 59.839487 
L 330.520916 59.839487 
L 330.179273 59.839487 
L 329.837631 59.839487 
L 329.495988 59.839487 
L 329.154345 59.839487 
L 328.812703 59.839487 
L 328.47106 59.839487 
L 328.129418 59.839487 
L 327.787775 59.839487 
L 327.446132 59.839487 
L 327.10449 59.839487 
L 326.762847 59.839487 
L 326.421205 59.839487 
L 326.079562 59.839487 
L 325.737919 59.839487 
L 325.396277 59.839487 
L 325.054634 59.839487 
L 324.712992 59.839487 
L 324.371349 59.839487 
L 324.029706 59.839487 
L 323.688064 59.839487 
L 323.346421 59.839487 
L 323.004778 59.839487 
L 322.663136 59.839487 
L 322.321493 59.839487 
L 321.979851 59.839487 
L 321.638208 59.839487 
L 321.296565 59.839487 
L 320.954923 59.839487 
L 320.61328 59.839487 
L 320.271638 59.839487 
L 319.929995 59.839487 
L 319.588352 59.839487 
L 319.24671 59.839487 
L 318.905067 59.839487 
L 318.563424 59.839487 
L 318.221782 59.839487 
L 317.880139 59.839487 
L 317.538497 59.839487 
L 317.196854 59.839487 
L 316.855211 59.839487 
L 316.513569 59.839487 
L 316.171926 59.839487 
L 315.830284 59.839487 
L 315.488641 59.839487 
L 315.146998 59.839487 
L 314.805356 59.839487 
L 314.463713 59.839487 
L 314.12207 59.839487 
L 313.780428 59.839487 
L 313.438785 59.839487 
L 313.097143 59.839487 
L 312.7555 59.839487 
L 312.413857 59.839487 
L 312.072215 59.839487 
L 311.730572 59.839487 
L 311.38893 59.839487 
L 311.047287 59.839487 
L 310.705644 59.839487 
L 310.364002 59.839487 
L 310.022359 59.839487 
L 309.680717 59.839487 
L 309.339074 59.839487 
L 308.997431 59.839487 
L 308.655789 59.839487 
L 308.314146 59.839487 
L 307.972503 59.839487 
L 307.630861 59.839487 
L 307.289218 59.839487 
L 306.947576 59.839487 
L 306.605933 59.839487 
L 306.26429 59.839487 
L 305.922648 59.839487 
L 305.581005 59.839487 
L 305.239363 59.839487 
L 304.89772 59.839487 
L 304.556077 59.839487 
L 304.214435 59.839487 
L 303.872792 59.839487 
L 303.531149 59.839487 
L 303.189507 59.839487 
L 302.847864 59.839487 
L 302.506222 59.839487 
L 302.164579 59.839487 
L 301.822936 59.839487 
L 301.481294 59.839487 
L 301.139651 59.839487 
L 300.798009 59.839487 
L 300.456366 59.839487 
L 300.114723 59.839487 
L 299.773081 59.839487 
L 299.431438 59.839487 
L 299.089795 59.839487 
L 298.748153 59.839487 
L 298.40651 59.839487 
L 298.064868 59.839487 
L 297.723225 59.839487 
L 297.381582 59.839487 
L 297.03994 59.839487 
L 296.698297 59.839487 
L 296.356655 59.839487 
L 296.015012 59.839487 
L 295.673369 59.839487 
L 295.331727 59.839487 
L 294.990084 59.839487 
L 294.648442 59.839487 
L 294.306799 59.839487 
L 293.965156 59.839487 
L 293.623514 59.839487 
L 293.281871 59.839487 
L 292.940228 59.839487 
L 292.598586 59.839487 
L 292.256943 59.839487 
L 291.915301 59.839487 
L 291.573658 59.839487 
L 291.232015 59.839487 
L 290.890373 59.839487 
L 290.54873 59.839487 
L 290.207088 59.839487 
L 289.865445 59.839487 
L 289.523802 59.839487 
L 289.18216 59.839487 
L 288.840517 59.839487 
L 288.498874 59.839487 
L 288.157232 59.839487 
L 287.815589 59.839487 
L 287.473947 59.839487 
L 287.132304 59.839487 
L 286.790661 59.839487 
L 286.449019 59.839487 
L 286.107376 59.839487 
L 285.765734 59.839487 
L 285.424091 59.839487 
L 285.082448 59.839487 
L 284.740806 59.839487 
L 284.399163 59.839487 
L 284.05752 59.839487 
L 283.715878 59.839487 
L 283.374235 59.839487 
L 283.032593 59.839487 
L 282.69095 59.839487 
L 282.349307 59.839487 
L 282.007665 59.839487 
L 281.666022 59.839487 
L 281.32438 59.839487 
L 280.982737 59.839487 
L 280.641094 59.839487 
L 280.299452 59.839487 
L 279.957809 59.839487 
L 279.616167 59.839487 
L 279.274524 59.839487 
L 278.932881 59.839487 
L 278.591239 59.839487 
L 278.249596 59.839487 
L 277.907953 59.839487 
L 277.566311 59.839487 
L 277.224668 59.839487 
L 276.883026 59.839487 
L 276.541383 59.839487 
L 276.19974 59.839487 
L 275.858098 59.839487 
L 275.516455 59.839487 
L 275.174813 59.839487 
L 274.83317 59.839487 
L 274.491527 59.839487 
L 274.149885 59.839487 
L 273.808242 59.839487 
L 273.466599 59.839487 
L 273.124957 59.839487 
L 272.783314 59.839487 
L 272.441672 59.839487 
L 272.100029 59.839487 
L 271.758386 59.839487 
L 271.416744 59.839487 
L 271.075101 59.839487 
L 270.733459 59.839487 
L 270.391816 59.839487 
L 270.050173 59.839487 
L 269.708531 59.839487 
L 269.366888 59.839487 
L 269.025246 59.839487 
L 268.683603 59.839487 
L 268.34196 59.839487 
L 268.000318 59.839487 
L 267.658675 59.839487 
L 267.317032 59.839487 
L 266.97539 59.839487 
L 266.633747 59.839487 
L 266.292105 59.839487 
L 265.950462 59.839487 
L 265.608819 59.839487 
L 265.267177 59.839487 
L 264.925534 59.839487 
L 264.583892 59.839487 
L 264.242249 59.839487 
L 263.900606 59.839487 
L 263.558964 59.839487 
L 263.217321 59.839487 
L 262.875678 59.839487 
L 262.534036 59.839487 
L 262.192393 59.839487 
L 261.850751 59.839487 
L 261.509108 59.839487 
L 261.167465 59.839487 
L 260.825823 59.839487 
L 260.48418 59.839487 
L 260.142538 59.839487 
L 259.800895 59.839487 
L 259.459252 59.839487 
L 259.11761 59.839487 
L 258.775967 59.839487 
L 258.434324 59.839487 
L 258.092682 59.839487 
L 257.751039 59.839487 
L 257.409397 59.839487 
L 257.067754 59.839487 
L 256.726111 59.839487 
L 256.384469 59.839487 
L 256.042826 59.839487 
L 255.701184 59.839487 
L 255.359541 59.839487 
L 255.017898 59.839487 
L 254.676256 59.839487 
L 254.334613 59.839487 
L 253.992971 59.839487 
L 253.651328 59.839487 
L 253.309685 59.839487 
L 252.968043 59.839487 
L 252.6264 59.839487 
L 252.284757 59.839487 
L 251.943115 59.839487 
L 251.601472 59.839487 
L 251.25983 59.839487 
L 250.918187 59.839487 
L 250.576544 59.839487 
L 250.234902 59.839487 
L 249.893259 59.839487 
L 249.551617 59.839487 
L 249.209974 59.839487 
L 248.868331 59.839487 
L 248.526689 59.839487 
L 248.185046 59.839487 
L 247.843403 59.839487 
L 247.501761 59.839487 
L 247.160118 59.839487 
L 246.818476 59.839487 
L 246.476833 59.839487 
L 246.13519 59.839487 
L 245.793548 59.839487 
L 245.451905 59.839487 
L 245.110263 59.839487 
L 244.76862 59.839487 
L 244.426977 59.839487 
L 244.085335 59.839487 
L 243.743692 59.839487 
L 243.402049 59.839487 
L 243.060407 59.839487 
L 242.718764 59.839487 
L 242.377122 59.839487 
L 242.035479 59.839487 
L 241.693836 59.839487 
L 241.352194 59.839487 
L 241.010551 59.839487 
L 240.668909 59.839487 
L 240.327266 59.839487 
L 239.985623 59.839487 
L 239.643981 59.839487 
L 239.302338 59.839487 
L 238.960696 59.839487 
L 238.619053 59.839487 
L 238.27741 59.839487 
L 237.935768 59.839487 
L 237.594125 59.839487 
L 237.252482 59.839487 
L 236.91084 59.839487 
L 236.569197 59.839487 
L 236.227555 59.839487 
L 235.885912 59.839487 
L 235.544269 59.839487 
L 235.202627 59.839487 
L 234.860984 59.839487 
L 234.519342 59.839487 
L 234.177699 59.839487 
L 233.836056 59.839487 
L 233.494414 59.839487 
L 233.152771 59.839487 
L 232.811128 59.839487 
L 232.469486 59.839487 
L 232.127843 59.839487 
L 231.786201 59.839487 
L 231.444558 59.839487 
L 231.102915 59.839487 
L 230.761273 59.839487 
L 230.41963 59.839487 
L 230.077988 59.839487 
L 229.736345 59.839487 
L 229.394702 59.839487 
L 229.05306 59.839487 
L 228.711417 59.839487 
L 228.369775 59.839487 
L 228.028132 59.839487 
L 227.686489 59.839487 
L 227.344847 59.839487 
L 227.003204 59.839487 
L 226.661561 59.839487 
L 226.319919 59.839487 
L 225.978276 59.839487 
L 225.636634 59.839487 
L 225.294991 59.839487 
L 224.953348 59.839487 
L 224.611706 59.839487 
L 224.270063 59.839487 
L 223.928421 59.839487 
L 223.586778 59.839487 
L 223.245135 59.839487 
L 222.903493 59.839487 
L 222.56185 59.839487 
L 222.220207 59.839487 
L 221.878565 59.839487 
L 221.536922 59.839487 
L 221.19528 59.839487 
L 220.853637 59.839487 
L 220.511994 59.839487 
L 220.170352 59.839487 
L 219.828709 59.839487 
L 219.487067 59.839487 
L 219.145424 59.839487 
L 218.803781 59.839487 
L 218.462139 59.839487 
L 218.120496 59.839487 
L 217.778853 59.839487 
L 217.437211 59.839487 
L 217.095568 59.839487 
L 216.753926 59.839487 
L 216.412283 59.839487 
L 216.07064 59.839487 
L 215.728998 59.839487 
L 215.387355 59.839487 
L 215.045713 59.839487 
L 214.70407 59.839487 
L 214.362427 59.839487 
L 214.020785 59.839487 
L 213.679142 59.839487 
L 213.3375 59.839487 
L 212.995857 59.839487 
L 212.654214 59.839487 
L 212.312572 59.839487 
L 211.970929 59.839487 
L 211.629286 59.839487 
L 211.287644 59.839487 
L 210.946001 59.839487 
L 210.604359 59.839487 
L 210.262716 59.839487 
L 209.921073 59.839487 
L 209.579431 59.839487 
L 209.237788 59.839487 
L 208.896146 59.839487 
L 208.554503 59.839487 
L 208.21286 59.839487 
L 207.871218 59.839487 
L 207.529575 59.839487 
L 207.187932 59.839487 
L 206.84629 59.839487 
L 206.504647 59.839487 
L 206.163005 59.839487 
L 205.821362 59.839487 
L 205.479719 59.839487 
L 205.138077 59.839487 
L 204.796434 59.839487 
L 204.454792 59.839487 
L 204.113149 59.839487 
L 203.771506 59.839487 
L 203.429864 59.839487 
L 203.088221 59.839487 
L 202.746578 59.839487 
L 202.404936 59.839487 
L 202.063293 59.839487 
L 201.721651 59.839487 
L 201.380008 59.839487 
L 201.038365 59.839487 
L 200.696723 59.839487 
L 200.35508 59.839487 
L 200.013438 59.839487 
L 199.671795 59.839487 
L 199.330152 59.839487 
L 198.98851 59.839487 
L 198.646867 59.839487 
L 198.305225 59.839487 
L 197.963582 59.839487 
L 197.621939 59.839487 
L 197.280297 59.839487 
L 196.938654 59.839487 
L 196.597011 59.839487 
L 196.255369 59.839487 
L 195.913726 59.839487 
L 195.572084 59.839487 
L 195.230441 59.839487 
L 194.888798 59.839487 
L 194.547156 59.839487 
L 194.205513 59.839487 
L 193.863871 59.839487 
L 193.522228 59.839487 
L 193.180585 59.839487 
L 192.838943 59.839487 
L 192.4973 59.839487 
L 192.155657 59.839487 
L 191.814015 59.839487 
L 191.472372 59.839487 
L 191.13073 59.839487 
L 190.789087 59.839487 
L 190.447444 59.839487 
L 190.105802 59.839487 
L 189.764159 59.839487 
L 189.422517 59.839487 
L 189.080874 59.839487 
L 188.739231 59.839487 
L 188.397589 59.839487 
L 188.055946 59.839487 
L 187.714303 59.839487 
L 187.372661 59.839487 
L 187.031018 59.839487 
L 186.689376 59.839487 
L 186.347733 59.839487 
L 186.00609 59.839487 
L 185.664448 59.839487 
L 185.322805 59.839487 
L 184.981163 59.839487 
L 184.63952 59.839487 
L 184.297877 59.839487 
L 183.956235 59.839487 
L 183.614592 59.839487 
L 183.27295 59.839487 
L 182.931307 59.839487 
L 182.589664 59.839487 
L 182.248022 59.839487 
L 181.906379 59.839487 
L 181.564736 59.839487 
L 181.223094 59.839487 
L 180.881451 59.839487 
L 180.539809 59.839487 
L 180.198166 59.839487 
L 179.856523 59.839487 
L 179.514881 59.839487 
L 179.173238 59.839487 
L 178.831596 59.839487 
L 178.489953 59.839487 
L 178.14831 59.839487 
L 177.806668 59.839487 
L 177.465025 59.839487 
L 177.123382 59.839487 
L 176.78174 59.839487 
L 176.440097 59.839487 
L 176.098455 59.839487 
L 175.756812 59.839487 
L 175.415169 59.839487 
L 175.073527 59.839487 
L 174.731884 59.839487 
L 174.390242 59.839487 
L 174.048599 59.839487 
L 173.706956 59.839487 
L 173.365314 59.839487 
L 173.023671 59.839487 
L 172.682029 59.839487 
L 172.340386 59.839487 
L 171.998743 59.839487 
L 171.657101 59.839487 
L 171.315458 59.839487 
L 170.973815 59.839487 
L 170.632173 59.839487 
L 170.29053 59.839487 
L 169.948888 59.839487 
L 169.607245 59.839487 
L 169.265602 59.839487 
L 168.92396 59.839487 
L 168.582317 59.839487 
L 168.240675 59.839487 
L 167.899032 59.839487 
L 167.557389 59.839487 
L 167.215747 59.839487 
L 166.874104 59.839487 
L 166.532461 59.839487 
L 166.190819 59.839487 
L 165.849176 59.839487 
L 165.507534 59.839487 
L 165.165891 59.839487 
L 164.824248 59.839487 
L 164.482606 59.839487 
L 164.140963 59.839487 
L 163.799321 59.839487 
L 163.457678 59.839487 
L 163.116035 59.839487 
L 162.774393 59.839487 
L 162.43275 59.839487 
L 162.091107 59.839487 
L 161.749465 59.839487 
L 161.407822 59.839487 
L 161.06618 59.839487 
L 160.724537 59.839487 
L 160.382894 59.839487 
L 160.041252 59.839487 
L 159.699609 59.839487 
L 159.357967 59.839487 
L 159.016324 59.839487 
L 158.674681 59.839487 
L 158.333039 59.839487 
L 157.991396 59.839487 
L 157.649754 59.839487 
L 157.308111 59.839487 
L 156.966468 59.839487 
L 156.624826 59.839487 
L 156.283183 59.839487 
L 155.94154 59.839487 
L 155.599898 59.839487 
L 155.258255 59.839487 
L 154.916613 59.839487 
L 154.57497 59.839487 
L 154.233327 59.839487 
L 153.891685 59.839487 
L 153.550042 59.839487 
L 153.2084 59.839487 
L 152.866757 59.839487 
L 152.525114 59.839487 
L 152.183472 59.839487 
L 151.841829 59.839487 
L 151.500186 59.839487 
L 151.158544 59.839487 
L 150.816901 59.839487 
L 150.475259 59.839487 
L 150.133616 59.839487 
L 149.791973 59.839487 
L 149.450331 59.839487 
L 149.108688 59.839487 
L 148.767046 59.839487 
L 148.425403 59.839487 
L 148.08376 59.839487 
L 147.742118 59.839487 
L 147.400475 59.839487 
L 147.058832 59.839487 
L 146.71719 59.839487 
L 146.375547 59.839487 
L 146.033905 59.839487 
L 145.692262 59.839487 
L 145.350619 59.839487 
L 145.008977 59.839487 
L 144.667334 59.839487 
L 144.325692 59.839487 
L 143.984049 59.839487 
L 143.642406 59.839487 
L 143.300764 59.839487 
L 142.959121 59.839487 
L 142.617479 59.839487 
L 142.275836 59.839487 
L 141.934193 59.839487 
L 141.592551 59.839487 
L 141.250908 59.839487 
L 140.909265 59.839487 
L 140.567623 59.839487 
L 140.22598 59.839487 
L 139.884338 59.839487 
L 139.542695 59.839487 
L 139.201052 59.839487 
L 138.85941 59.839487 
L 138.517767 59.839487 
L 138.176125 59.839487 
L 137.834482 59.839487 
L 137.492839 59.839487 
L 137.151197 59.839487 
L 136.809554 59.839487 
L 136.467911 59.839487 
L 136.126269 59.839487 
L 135.784626 59.839487 
L 135.442984 59.839487 
L 135.101341 59.839487 
L 134.759698 59.839487 
L 134.418056 59.839487 
L 134.076413 59.839487 
L 133.734771 59.839487 
L 133.393128 59.839487 
L 133.051485 59.839487 
L 132.709843 59.839487 
L 132.3682 59.839487 
L 132.026557 59.839487 
L 131.684915 59.839487 
L 131.343272 59.839487 
L 131.00163 59.839487 
L 130.659987 59.839487 
L 130.318344 59.839487 
L 129.976702 59.839487 
L 129.635059 59.839487 
L 129.293417 59.839487 
L 128.951774 59.839487 
L 128.610131 59.839487 
L 128.268489 59.839487 
L 127.926846 59.839487 
L 127.585204 59.839487 
L 127.243561 59.839487 
L 126.901918 59.839487 
L 126.560276 59.839487 
L 126.218633 59.839487 
L 125.87699 59.839487 
L 125.535348 59.839487 
L 125.193705 59.839487 
L 124.852063 59.839487 
L 124.51042 59.839487 
L 124.168777 59.839487 
L 123.827135 59.839487 
L 123.485492 59.839487 
L 123.14385 59.839487 
L 122.802207 59.839487 
L 122.460564 59.839487 
L 122.118922 59.839487 
L 121.777279 59.839487 
L 121.435636 59.839487 
L 121.093994 59.839487 
L 120.752351 59.839487 
L 120.410709 59.839487 
L 120.069066 59.839487 
L 119.727423 59.839487 
L 119.385781 59.839487 
L 119.044138 59.839487 
L 118.702496 59.839487 
L 118.360853 59.839487 
L 118.01921 59.839487 
L 117.677568 59.839487 
L 117.335925 59.839487 
L 116.994283 59.839487 
L 116.65264 59.839487 
L 116.310997 59.839487 
L 115.969355 59.839487 
L 115.627712 59.839487 
L 115.286069 59.839487 
L 114.944427 59.839487 
L 114.602784 59.839487 
L 114.261142 59.839487 
L 113.919499 59.839487 
L 113.577856 59.839487 
L 113.236214 59.839487 
L 112.894571 59.839487 
L 112.552929 59.839487 
L 112.211286 59.839487 
L 111.869643 59.839487 
L 111.528001 59.839487 
L 111.186358 59.839487 
L 110.844715 59.839487 
L 110.503073 59.839487 
L 110.16143 59.839487 
L 109.819788 59.839487 
L 109.478145 59.839487 
L 109.136502 59.839487 
L 108.79486 59.839487 
L 108.453217 59.839487 
L 108.111575 59.839487 
L 107.769932 59.839487 
L 107.428289 59.839487 
L 107.086647 59.839487 
L 106.745004 59.839487 
L 106.403361 59.839487 
L 106.061719 59.839487 
L 105.720076 59.839487 
L 105.378434 59.839487 
L 105.036791 59.839487 
L 104.695148 59.839487 
L 104.353506 59.839487 
L 104.011863 59.839487 
L 103.670221 59.839487 
L 103.328578 59.839487 
L 102.986935 59.839487 
L 102.645293 59.839487 
L 102.30365 59.839487 
L 101.962008 59.839487 
L 101.620365 59.839487 
L 101.278722 59.839487 
L 100.93708 59.839487 
L 100.595437 59.839487 
L 100.253794 59.839487 
L 99.912152 59.839487 
L 99.570509 59.839487 
L 99.228867 59.839487 
L 98.887224 59.839487 
L 98.545581 59.839487 
L 98.203939 59.839487 
L 97.862296 59.839487 
L 97.520654 59.839487 
L 97.179011 59.839487 
L 96.837368 59.839487 
L 96.495726 59.839487 
L 96.154083 59.839487 
L 95.81244 59.839487 
L 95.470798 59.839487 
L 95.129155 59.839487 
L 94.787513 59.839487 
L 94.44587 59.839487 
L 94.104227 59.839487 
L 93.762585 59.839487 
L 93.420942 59.839487 
L 93.0793 59.839487 
L 92.737657 59.839487 
L 92.396014 59.839487 
L 92.054372 59.839487 
L 91.712729 59.839487 
L 91.371086 59.839487 
L 91.029444 59.839487 
L 90.687801 59.839487 
L 90.346159 59.839487 
L 90.004516 59.839487 
L 89.662873 59.839487 
L 89.321231 59.839487 
L 88.979588 59.839487 
L 88.637946 59.839487 
L 88.296303 59.839487 
L 87.95466 59.839487 
L 87.613018 59.839487 
L 87.271375 59.839487 
L 86.929733 59.839487 
L 86.58809 59.839487 
L 86.246447 59.839487 
L 85.904805 59.839487 
L 85.563162 59.839487 
L 85.221519 59.839487 
L 84.879877 59.839487 
L 84.538234 59.839487 
L 84.196592 59.839487 
L 83.854949 59.839487 
L 83.513306 59.839487 
L 83.171664 59.839487 
L 82.830021 59.839487 
L 82.488379 59.839487 
L 82.146736 59.839487 
L 81.805093 59.839487 
L 81.463451 59.839487 
L 81.121808 59.839487 
L 80.780165 59.839487 
L 80.438523 59.839487 
L 80.09688 59.839487 
L 79.755238 59.839487 
L 79.413595 59.839487 
L 79.071952 59.839487 
L 78.73031 59.839487 
L 78.388667 59.839487 
L 78.047025 59.839487 
L 77.705382 59.839487 
L 77.363739 59.839487 
L 77.022097 59.839487 
L 76.680454 59.839487 
L 76.338811 59.839487 
L 75.997169 59.839487 
L 75.655526 59.839487 
L 75.313884 59.839487 
L 74.972241 59.839487 
L 74.630598 59.839487 
L 74.288956 59.839487 
L 73.947313 59.839487 
L 73.605671 59.839487 
L 73.264028 59.839487 
L 72.922385 59.839487 
L 72.580743 59.839487 
L 72.2391 59.839487 
L 71.897458 59.839487 
L 71.555815 59.839487 
L 71.214172 59.839487 
L 70.87253 59.839487 
L 70.530887 59.839487 
L 70.189244 59.839487 
L 69.847602 59.839487 
L 69.505959 59.839487 
L 69.164317 59.839487 
L 68.822674 59.839487 
L 68.481031 59.839487 
L 68.139389 59.839487 
L 67.797746 59.839487 
L 67.456104 59.839487 
L 67.114461 59.839487 
L 66.772818 59.839487 
L 66.431176 59.839487 
L 66.089533 59.839487 
L 65.74789 59.839487 
L 65.406248 59.839487 
L 65.064605 59.839487 
L 64.722963 59.839487 
L 64.38132 59.839487 
L 64.039677 59.839487 
L 63.698035 59.839487 
L 63.356392 59.839487 
L 63.01475 59.839487 
L 62.673107 59.839487 
L 62.331464 59.839487 
L 61.989822 59.839487 
L 61.648179 59.839487 
L 61.306537 59.839487 
L 60.964894 59.839487 
L 60.623251 59.839487 
L 60.281609 59.839487 
L 59.939966 59.839487 
L 59.598323 59.839487 
L 59.256681 59.839487 
L 58.915038 59.839487 
L 58.573396 59.839487 
L 58.231753 59.839487 
L 57.89011 59.839487 
L 57.548468 59.839487 
L 57.206825 59.839487 
L 56.865183 59.839487 
L 56.52354 59.839487 
L 56.181897 59.839487 
L 55.840255 59.839487 
L 55.498612 59.839487 
L 55.156969 59.839487 
L 54.815327 59.839487 
L 54.473684 59.839487 
L 54.132042 59.839487 
L 53.790399 59.839487 
L 53.448756 59.839487 
L 53.107114 59.839487 
L 52.765471 59.839487 
L 52.423829 59.839487 
L 52.082186 59.839487 
L 51.740543 59.839487 
L 51.398901 59.839487 
L 51.057258 59.839487 
L 50.715615 59.839487 
L 50.373973 59.839487 
L 50.03233 59.839487 
L 49.690688 59.839487 
L 49.349045 59.839487 
L 49.007402 59.839487 
L 48.66576 59.839487 
L 48.324117 59.839487 
L 47.982475 59.839487 
L 47.640832 59.839487 
L 47.299189 59.839487 
L 46.957547 59.839487 
L 46.615904 59.839487 
z
" style="fill:#1f77b4;fill-opacity:0.2;"/>
   </g>
   <g id="matplotlib.axis_1">
    <g id="xtick_1">
     <g id="line2d_1">
      <defs>
       <path d="M 0 0 
L 0 -9 
" id="m632e383881" style="stroke:#000000;stroke-width:1.875;"/>
      </defs>
      <g>
       <use style="stroke:#000000;stroke-width:1.875;" x="62.868331" xlink:href="#m632e383881" y="230.64"/>
      </g>
     </g>
     <g id="line2d_2">
      <defs>
       <path d="M 0 0 
L 0 9 
" id="ma9b547d064" style="stroke:#000000;stroke-width:1.875;"/>
      </defs>
      <g>
       <use style="stroke:#000000;stroke-width:1.875;" x="62.868331" xlink:href="#ma9b547d064" y="13.2"/>
      </g>
     </g>
     <g id="text_1">
      <!-- 0 -->
      <defs>
       <path d="M 31.78125 66.40625 
Q 24.171875 66.40625 20.328125 58.90625 
Q 16.5 51.421875 16.5 36.375 
Q 16.5 21.390625 20.328125 13.890625 
Q 24.171875 6.390625 31.78125 6.390625 
Q 39.453125 6.390625 43.28125 13.890625 
Q 47.125 21.390625 47.125 36.375 
Q 47.125 51.421875 43.28125 58.90625 
Q 39.453125 66.40625 31.78125 66.40625 
z
M 31.78125 74.21875 
Q 44.046875 74.21875 50.515625 64.515625 
Q 56.984375 54.828125 56.984375 36.375 
Q 56.984375 17.96875 50.515625 8.265625 
Q 44.046875 -1.421875 31.78125 -1.421875 
Q 19.53125 -1.421875 13.0625 8.265625 
Q 6.59375 17.96875 6.59375 36.375 
Q 6.59375 54.828125 13.0625 64.515625 
Q 19.53125 74.21875 31.78125 74.21875 
z
" id="DejaVuSans-30"/>
      </defs>
      <g transform="translate(57.619269 246.677422)scale(0.165 -0.165)">
       <use xlink:href="#DejaVuSans-30"/>
      </g>
     </g>
    </g>
    <g id="xtick_2">
     <g id="line2d_3">
      <g>
       <use style="stroke:#000000;stroke-width:1.875;" x="144.130467" xlink:href="#m632e383881" y="230.64"/>
      </g>
     </g>
     <g id="line2d_4">
      <g>
       <use style="stroke:#000000;stroke-width:1.875;" x="144.130467" xlink:href="#ma9b547d064" y="13.2"/>
      </g>
     </g>
     <g id="text_2">
      <!-- 50 -->
      <defs>
       <path d="M 10.796875 72.90625 
L 49.515625 72.90625 
L 49.515625 64.59375 
L 19.828125 64.59375 
L 19.828125 46.734375 
Q 21.96875 47.46875 24.109375 47.828125 
Q 26.265625 48.1875 28.421875 48.1875 
Q 40.625 48.1875 47.75 41.5 
Q 54.890625 34.8125 54.890625 23.390625 
Q 54.890625 11.625 47.5625 5.09375 
Q 40.234375 -1.421875 26.90625 -1.421875 
Q 22.3125 -1.421875 17.546875 -0.640625 
Q 12.796875 0.140625 7.71875 1.703125 
L 7.71875 11.625 
Q 12.109375 9.234375 16.796875 8.0625 
Q 21.484375 6.890625 26.703125 6.890625 
Q 35.15625 6.890625 40.078125 11.328125 
Q 45.015625 15.765625 45.015625 23.390625 
Q 45.015625 31 40.078125 35.4375 
Q 35.15625 39.890625 26.703125 39.890625 
Q 22.75 39.890625 18.8125 39.015625 
Q 14.890625 38.140625 10.796875 36.28125 
z
" id="DejaVuSans-35"/>
      </defs>
      <g transform="translate(133.632342 246.677422)scale(0.165 -0.165)">
       <use xlink:href="#DejaVuSans-35"/>
       <use x="63.623047" xlink:href="#DejaVuSans-30"/>
      </g>
     </g>
    </g>
    <g id="xtick_3">
     <g id="line2d_5">
      <g>
       <use style="stroke:#000000;stroke-width:1.875;" x="225.392603" xlink:href="#m632e383881" y="230.64"/>
      </g>
     </g>
     <g id="line2d_6">
      <g>
       <use style="stroke:#000000;stroke-width:1.875;" x="225.392603" xlink:href="#ma9b547d064" y="13.2"/>
      </g>
     </g>
     <g id="text_3">
      <!-- 100 -->
      <defs>
       <path d="M 12.40625 8.296875 
L 28.515625 8.296875 
L 28.515625 63.921875 
L 10.984375 60.40625 
L 10.984375 69.390625 
L 28.421875 72.90625 
L 38.28125 72.90625 
L 38.28125 8.296875 
L 54.390625 8.296875 
L 54.390625 0 
L 12.40625 0 
z
" id="DejaVuSans-31"/>
      </defs>
      <g transform="translate(209.645416 246.677422)scale(0.165 -0.165)">
       <use xlink:href="#DejaVuSans-31"/>
       <use x="63.623047" xlink:href="#DejaVuSans-30"/>
       <use x="127.246094" xlink:href="#DejaVuSans-30"/>
      </g>
     </g>
    </g>
    <g id="xtick_4">
     <g id="line2d_7">
      <g>
       <use style="stroke:#000000;stroke-width:1.875;" x="306.654739" xlink:href="#m632e383881" y="230.64"/>
      </g>
     </g>
     <g id="line2d_8">
      <g>
       <use style="stroke:#000000;stroke-width:1.875;" x="306.654739" xlink:href="#ma9b547d064" y="13.2"/>
      </g>
     </g>
     <g id="text_4">
      <!-- 150 -->
      <g transform="translate(290.907552 246.677422)scale(0.165 -0.165)">
       <use xlink:href="#DejaVuSans-31"/>
       <use x="63.623047" xlink:href="#DejaVuSans-35"/>
       <use x="127.246094" xlink:href="#DejaVuSans-30"/>
      </g>
     </g>
    </g>
    <g id="xtick_5">
     <g id="line2d_9">
      <g>
       <use style="stroke:#000000;stroke-width:1.875;" x="387.916875" xlink:href="#m632e383881" y="230.64"/>
      </g>
     </g>
     <g id="line2d_10">
      <g>
       <use style="stroke:#000000;stroke-width:1.875;" x="387.916875" xlink:href="#ma9b547d064" y="13.2"/>
      </g>
     </g>
     <g id="text_5">
      <!-- 200 -->
      <defs>
       <path d="M 19.1875 8.296875 
L 53.609375 8.296875 
L 53.609375 0 
L 7.328125 0 
L 7.328125 8.296875 
Q 12.9375 14.109375 22.625 23.890625 
Q 32.328125 33.6875 34.8125 36.53125 
Q 39.546875 41.84375 41.421875 45.53125 
Q 43.3125 49.21875 43.3125 52.78125 
Q 43.3125 58.59375 39.234375 62.25 
Q 35.15625 65.921875 28.609375 65.921875 
Q 23.96875 65.921875 18.8125 64.3125 
Q 13.671875 62.703125 7.8125 59.421875 
L 7.8125 69.390625 
Q 13.765625 71.78125 18.9375 73 
Q 24.125 74.21875 28.421875 74.21875 
Q 39.75 74.21875 46.484375 68.546875 
Q 53.21875 62.890625 53.21875 53.421875 
Q 53.21875 48.921875 51.53125 44.890625 
Q 49.859375 40.875 45.40625 35.40625 
Q 44.1875 33.984375 37.640625 27.21875 
Q 31.109375 20.453125 19.1875 8.296875 
z
" id="DejaVuSans-32"/>
      </defs>
      <g transform="translate(372.169687 246.677422)scale(0.165 -0.165)">
       <use xlink:href="#DejaVuSans-32"/>
       <use x="63.623047" xlink:href="#DejaVuSans-30"/>
       <use x="127.246094" xlink:href="#DejaVuSans-30"/>
      </g>
     </g>
    </g>
    <g id="text_6">
     <!-- $P_{\rm{trap}}$ (time-averaged) [$\rm{{\mu}W}$] -->
     <defs>
      <path d="M 16.890625 72.90625 
L 39.703125 72.90625 
Q 49.65625 72.90625 54.875 68.265625 
Q 60.109375 63.625 60.109375 54.6875 
Q 60.109375 42.671875 52.390625 35.984375 
Q 44.671875 29.296875 30.71875 29.296875 
L 18.3125 29.296875 
L 12.59375 0 
L 2.6875 0 
z
M 25.203125 64.796875 
L 19.921875 37.40625 
L 32.328125 37.40625 
Q 40.71875 37.40625 45.203125 41.703125 
Q 49.703125 46 49.703125 54 
Q 49.703125 59.125 46.65625 61.953125 
Q 43.609375 64.796875 38.09375 64.796875 
z
" id="DejaVuSans-Oblique-50"/>
      <path d="M 18.3125 70.21875 
L 18.3125 54.6875 
L 36.8125 54.6875 
L 36.8125 47.703125 
L 18.3125 47.703125 
L 18.3125 18.015625 
Q 18.3125 11.328125 20.140625 9.421875 
Q 21.96875 7.515625 27.59375 7.515625 
L 36.8125 7.515625 
L 36.8125 0 
L 27.59375 0 
Q 17.1875 0 13.234375 3.875 
Q 9.28125 7.765625 9.28125 18.015625 
L 9.28125 47.703125 
L 2.6875 47.703125 
L 2.6875 54.6875 
L 9.28125 54.6875 
L 9.28125 70.21875 
z
" id="DejaVuSans-74"/>
      <path d="M 41.109375 46.296875 
Q 39.59375 47.171875 37.8125 47.578125 
Q 36.03125 48 33.890625 48 
Q 26.265625 48 22.1875 43.046875 
Q 18.109375 38.09375 18.109375 28.8125 
L 18.109375 0 
L 9.078125 0 
L 9.078125 54.6875 
L 18.109375 54.6875 
L 18.109375 46.1875 
Q 20.953125 51.171875 25.484375 53.578125 
Q 30.03125 56 36.53125 56 
Q 37.453125 56 38.578125 55.875 
Q 39.703125 55.765625 41.0625 55.515625 
z
" id="DejaVuSans-72"/>
      <path d="M 34.28125 27.484375 
Q 23.390625 27.484375 19.1875 25 
Q 14.984375 22.515625 14.984375 16.5 
Q 14.984375 11.71875 18.140625 8.90625 
Q 21.296875 6.109375 26.703125 6.109375 
Q 34.1875 6.109375 38.703125 11.40625 
Q 43.21875 16.703125 43.21875 25.484375 
L 43.21875 27.484375 
z
M 52.203125 31.203125 
L 52.203125 0 
L 43.21875 0 
L 43.21875 8.296875 
Q 40.140625 3.328125 35.546875 0.953125 
Q 30.953125 -1.421875 24.3125 -1.421875 
Q 15.921875 -1.421875 10.953125 3.296875 
Q 6 8.015625 6 15.921875 
Q 6 25.140625 12.171875 29.828125 
Q 18.359375 34.515625 30.609375 34.515625 
L 43.21875 34.515625 
L 43.21875 35.40625 
Q 43.21875 41.609375 39.140625 45 
Q 35.0625 48.390625 27.6875 48.390625 
Q 23 48.390625 18.546875 47.265625 
Q 14.109375 46.140625 10.015625 43.890625 
L 10.015625 52.203125 
Q 14.9375 54.109375 19.578125 55.046875 
Q 24.21875 56 28.609375 56 
Q 40.484375 56 46.34375 49.84375 
Q 52.203125 43.703125 52.203125 31.203125 
z
" id="DejaVuSans-61"/>
      <path d="M 18.109375 8.203125 
L 18.109375 -20.796875 
L 9.078125 -20.796875 
L 9.078125 54.6875 
L 18.109375 54.6875 
L 18.109375 46.390625 
Q 20.953125 51.265625 25.265625 53.625 
Q 29.59375 56 35.59375 56 
Q 45.5625 56 51.78125 48.09375 
Q 58.015625 40.1875 58.015625 27.296875 
Q 58.015625 14.40625 51.78125 6.484375 
Q 45.5625 -1.421875 35.59375 -1.421875 
Q 29.59375 -1.421875 25.265625 0.953125 
Q 20.953125 3.328125 18.109375 8.203125 
z
M 48.6875 27.296875 
Q 48.6875 37.203125 44.609375 42.84375 
Q 40.53125 48.484375 33.40625 48.484375 
Q 26.265625 48.484375 22.1875 42.84375 
Q 18.109375 37.203125 18.109375 27.296875 
Q 18.109375 17.390625 22.1875 11.75 
Q 26.265625 6.109375 33.40625 6.109375 
Q 40.53125 6.109375 44.609375 11.75 
Q 48.6875 17.390625 48.6875 27.296875 
z
" id="DejaVuSans-70"/>
      <path id="DejaVuSans-20"/>
      <path d="M 31 75.875 
Q 24.46875 64.65625 21.28125 53.65625 
Q 18.109375 42.671875 18.109375 31.390625 
Q 18.109375 20.125 21.3125 9.0625 
Q 24.515625 -2 31 -13.1875 
L 23.1875 -13.1875 
Q 15.875 -1.703125 12.234375 9.375 
Q 8.59375 20.453125 8.59375 31.390625 
Q 8.59375 42.28125 12.203125 53.3125 
Q 15.828125 64.359375 23.1875 75.875 
z
" id="DejaVuSans-28"/>
      <path d="M 9.421875 54.6875 
L 18.40625 54.6875 
L 18.40625 0 
L 9.421875 0 
z
M 9.421875 75.984375 
L 18.40625 75.984375 
L 18.40625 64.59375 
L 9.421875 64.59375 
z
" id="DejaVuSans-69"/>
      <path d="M 52 44.1875 
Q 55.375 50.25 60.0625 53.125 
Q 64.75 56 71.09375 56 
Q 79.640625 56 84.28125 50.015625 
Q 88.921875 44.046875 88.921875 33.015625 
L 88.921875 0 
L 79.890625 0 
L 79.890625 32.71875 
Q 79.890625 40.578125 77.09375 44.375 
Q 74.3125 48.1875 68.609375 48.1875 
Q 61.625 48.1875 57.5625 43.546875 
Q 53.515625 38.921875 53.515625 30.90625 
L 53.515625 0 
L 44.484375 0 
L 44.484375 32.71875 
Q 44.484375 40.625 41.703125 44.40625 
Q 38.921875 48.1875 33.109375 48.1875 
Q 26.21875 48.1875 22.15625 43.53125 
Q 18.109375 38.875 18.109375 30.90625 
L 18.109375 0 
L 9.078125 0 
L 9.078125 54.6875 
L 18.109375 54.6875 
L 18.109375 46.1875 
Q 21.1875 51.21875 25.484375 53.609375 
Q 29.78125 56 35.6875 56 
Q 41.65625 56 45.828125 52.96875 
Q 50 49.953125 52 44.1875 
z
" id="DejaVuSans-6d"/>
      <path d="M 56.203125 29.59375 
L 56.203125 25.203125 
L 14.890625 25.203125 
Q 15.484375 15.921875 20.484375 11.0625 
Q 25.484375 6.203125 34.421875 6.203125 
Q 39.59375 6.203125 44.453125 7.46875 
Q 49.3125 8.734375 54.109375 11.28125 
L 54.109375 2.78125 
Q 49.265625 0.734375 44.1875 -0.34375 
Q 39.109375 -1.421875 33.890625 -1.421875 
Q 20.796875 -1.421875 13.15625 6.1875 
Q 5.515625 13.8125 5.515625 26.8125 
Q 5.515625 40.234375 12.765625 48.109375 
Q 20.015625 56 32.328125 56 
Q 43.359375 56 49.78125 48.890625 
Q 56.203125 41.796875 56.203125 29.59375 
z
M 47.21875 32.234375 
Q 47.125 39.59375 43.09375 43.984375 
Q 39.0625 48.390625 32.421875 48.390625 
Q 24.90625 48.390625 20.390625 44.140625 
Q 15.875 39.890625 15.1875 32.171875 
z
" id="DejaVuSans-65"/>
      <path d="M 4.890625 31.390625 
L 31.203125 31.390625 
L 31.203125 23.390625 
L 4.890625 23.390625 
z
" id="DejaVuSans-2d"/>
      <path d="M 2.984375 54.6875 
L 12.5 54.6875 
L 29.59375 8.796875 
L 46.6875 54.6875 
L 56.203125 54.6875 
L 35.6875 0 
L 23.484375 0 
z
" id="DejaVuSans-76"/>
      <path d="M 45.40625 27.984375 
Q 45.40625 37.75 41.375 43.109375 
Q 37.359375 48.484375 30.078125 48.484375 
Q 22.859375 48.484375 18.828125 43.109375 
Q 14.796875 37.75 14.796875 27.984375 
Q 14.796875 18.265625 18.828125 12.890625 
Q 22.859375 7.515625 30.078125 7.515625 
Q 37.359375 7.515625 41.375 12.890625 
Q 45.40625 18.265625 45.40625 27.984375 
z
M 54.390625 6.78125 
Q 54.390625 -7.171875 48.1875 -13.984375 
Q 42 -20.796875 29.203125 -20.796875 
Q 24.46875 -20.796875 20.265625 -20.09375 
Q 16.0625 -19.390625 12.109375 -17.921875 
L 12.109375 -9.1875 
Q 16.0625 -11.328125 19.921875 -12.34375 
Q 23.78125 -13.375 27.78125 -13.375 
Q 36.625 -13.375 41.015625 -8.765625 
Q 45.40625 -4.15625 45.40625 5.171875 
L 45.40625 9.625 
Q 42.625 4.78125 38.28125 2.390625 
Q 33.9375 0 27.875 0 
Q 17.828125 0 11.671875 7.65625 
Q 5.515625 15.328125 5.515625 27.984375 
Q 5.515625 40.671875 11.671875 48.328125 
Q 17.828125 56 27.875 56 
Q 33.9375 56 38.28125 53.609375 
Q 42.625 51.21875 45.40625 46.390625 
L 45.40625 54.6875 
L 54.390625 54.6875 
z
" id="DejaVuSans-67"/>
      <path d="M 45.40625 46.390625 
L 45.40625 75.984375 
L 54.390625 75.984375 
L 54.390625 0 
L 45.40625 0 
L 45.40625 8.203125 
Q 42.578125 3.328125 38.25 0.953125 
Q 33.9375 -1.421875 27.875 -1.421875 
Q 17.96875 -1.421875 11.734375 6.484375 
Q 5.515625 14.40625 5.515625 27.296875 
Q 5.515625 40.1875 11.734375 48.09375 
Q 17.96875 56 27.875 56 
Q 33.9375 56 38.25 53.625 
Q 42.578125 51.265625 45.40625 46.390625 
z
M 14.796875 27.296875 
Q 14.796875 17.390625 18.875 11.75 
Q 22.953125 6.109375 30.078125 6.109375 
Q 37.203125 6.109375 41.296875 11.75 
Q 45.40625 17.390625 45.40625 27.296875 
Q 45.40625 37.203125 41.296875 42.84375 
Q 37.203125 48.484375 30.078125 48.484375 
Q 22.953125 48.484375 18.875 42.84375 
Q 14.796875 37.203125 14.796875 27.296875 
z
" id="DejaVuSans-64"/>
      <path d="M 8.015625 75.875 
L 15.828125 75.875 
Q 23.140625 64.359375 26.78125 53.3125 
Q 30.421875 42.28125 30.421875 31.390625 
Q 30.421875 20.453125 26.78125 9.375 
Q 23.140625 -1.703125 15.828125 -13.1875 
L 8.015625 -13.1875 
Q 14.5 -2 17.703125 9.0625 
Q 20.90625 20.125 20.90625 31.390625 
Q 20.90625 42.671875 17.703125 53.65625 
Q 14.5 64.65625 8.015625 75.875 
z
" id="DejaVuSans-29"/>
      <path d="M 8.59375 75.984375 
L 29.296875 75.984375 
L 29.296875 69 
L 17.578125 69 
L 17.578125 -6.203125 
L 29.296875 -6.203125 
L 29.296875 -13.1875 
L 8.59375 -13.1875 
z
" id="DejaVuSans-5b"/>
      <path d="M 8.5 -20.796875 
L 8.5 54.6875 
L 17.484375 54.6875 
L 17.484375 20.703125 
Q 17.484375 13.625 20.84375 10 
Q 24.21875 6.390625 30.8125 6.390625 
Q 38.03125 6.390625 41.671875 10.484375 
Q 45.3125 14.59375 45.3125 22.796875 
L 45.3125 54.6875 
L 54.296875 54.6875 
L 54.296875 12.59375 
Q 54.296875 9.671875 55.140625 8.28125 
Q 56 6.890625 57.8125 6.890625 
Q 58.25 6.890625 59.03125 7.15625 
Q 59.8125 7.421875 61.1875 8.015625 
L 61.1875 0.78125 
Q 59.1875 -0.34375 57.390625 -0.875 
Q 55.609375 -1.421875 53.90625 -1.421875 
Q 50.53125 -1.421875 48.53125 0.484375 
Q 46.53125 2.390625 45.796875 6.296875 
Q 43.359375 2.4375 39.8125 0.5 
Q 36.28125 -1.421875 31.5 -1.421875 
Q 26.515625 -1.421875 23.015625 0.484375 
Q 19.53125 2.390625 17.484375 6.203125 
L 17.484375 -20.796875 
z
" id="DejaVuSans-3bc"/>
      <path d="M 3.328125 72.90625 
L 13.28125 72.90625 
L 28.609375 11.28125 
L 43.890625 72.90625 
L 54.984375 72.90625 
L 70.3125 11.28125 
L 85.59375 72.90625 
L 95.609375 72.90625 
L 77.296875 0 
L 64.890625 0 
L 49.515625 63.28125 
L 33.984375 0 
L 21.578125 0 
z
" id="DejaVuSans-57"/>
      <path d="M 30.421875 75.984375 
L 30.421875 -13.1875 
L 9.71875 -13.1875 
L 9.71875 -6.203125 
L 21.390625 -6.203125 
L 21.390625 69 
L 9.71875 69 
L 9.71875 75.984375 
z
" id="DejaVuSans-5d"/>
     </defs>
     <g transform="translate(101.356875 267.788906)scale(0.18 -0.18)">
      <use transform="translate(0 0.015625)" xlink:href="#DejaVuSans-Oblique-50"/>
      <use transform="translate(60.302734 -16.390625)scale(0.7)" xlink:href="#DejaVuSans-74"/>
      <use transform="translate(87.749023 -16.390625)scale(0.7)" xlink:href="#DejaVuSans-72"/>
      <use transform="translate(116.52832 -16.390625)scale(0.7)" xlink:href="#DejaVuSans-61"/>
      <use transform="translate(159.423828 -16.390625)scale(0.7)" xlink:href="#DejaVuSans-70"/>
      <use transform="translate(206.591797 0.015625)" xlink:href="#DejaVuSans-20"/>
      <use transform="translate(238.378906 0.015625)" xlink:href="#DejaVuSans-28"/>
      <use transform="translate(277.392578 0.015625)" xlink:href="#DejaVuSans-74"/>
      <use transform="translate(316.601562 0.015625)" xlink:href="#DejaVuSans-69"/>
      <use transform="translate(344.384766 0.015625)" xlink:href="#DejaVuSans-6d"/>
      <use transform="translate(441.796875 0.015625)" xlink:href="#DejaVuSans-65"/>
      <use transform="translate(503.320312 0.015625)" xlink:href="#DejaVuSans-2d"/>
      <use transform="translate(539.404297 0.015625)" xlink:href="#DejaVuSans-61"/>
      <use transform="translate(600.683594 0.015625)" xlink:href="#DejaVuSans-76"/>
      <use transform="translate(659.863281 0.015625)" xlink:href="#DejaVuSans-65"/>
      <use transform="translate(721.386719 0.015625)" xlink:href="#DejaVuSans-72"/>
      <use transform="translate(762.5 0.015625)" xlink:href="#DejaVuSans-61"/>
      <use transform="translate(823.779297 0.015625)" xlink:href="#DejaVuSans-67"/>
      <use transform="translate(887.255859 0.015625)" xlink:href="#DejaVuSans-65"/>
      <use transform="translate(948.779297 0.015625)" xlink:href="#DejaVuSans-64"/>
      <use transform="translate(1012.255859 0.015625)" xlink:href="#DejaVuSans-29"/>
      <use transform="translate(1051.269531 0.015625)" xlink:href="#DejaVuSans-20"/>
      <use transform="translate(1083.056641 0.015625)" xlink:href="#DejaVuSans-5b"/>
      <use transform="translate(1122.070312 0.015625)" xlink:href="#DejaVuSans-3bc"/>
      <use transform="translate(1185.693359 0.015625)" xlink:href="#DejaVuSans-57"/>
      <use transform="translate(1284.570312 0.015625)" xlink:href="#DejaVuSans-5d"/>
     </g>
    </g>
   </g>
   <g id="matplotlib.axis_2">
    <g id="ytick_1">
     <g id="line2d_11">
      <defs>
       <path d="M 0 0 
L 9 0 
" id="m5639229d7d" style="stroke:#000000;stroke-width:1.875;"/>
      </defs>
      <g>
       <use style="stroke:#000000;stroke-width:1.875;" x="53.116875" xlink:href="#m5639229d7d" y="222.780723"/>
      </g>
     </g>
     <g id="line2d_12">
      <defs>
       <path d="M 0 0 
L -9 0 
" id="mdb6824ce49" style="stroke:#000000;stroke-width:1.875;"/>
      </defs>
      <g>
       <use style="stroke:#000000;stroke-width:1.875;" x="387.916875" xlink:href="#mdb6824ce49" y="222.780723"/>
      </g>
     </g>
     <g id="text_7">
      <!-- 0 -->
      <g transform="translate(39.11875 229.049434)scale(0.165 -0.165)">
       <use xlink:href="#DejaVuSans-30"/>
      </g>
     </g>
    </g>
    <g id="ytick_2">
     <g id="line2d_13">
      <g>
       <use style="stroke:#000000;stroke-width:1.875;" x="53.116875" xlink:href="#m5639229d7d" y="157.286747"/>
      </g>
     </g>
     <g id="line2d_14">
      <g>
       <use style="stroke:#000000;stroke-width:1.875;" x="387.916875" xlink:href="#mdb6824ce49" y="157.286747"/>
      </g>
     </g>
     <g id="text_8">
      <!-- 5 -->
      <g transform="translate(39.11875 163.555458)scale(0.165 -0.165)">
       <use xlink:href="#DejaVuSans-35"/>
      </g>
     </g>
    </g>
    <g id="ytick_3">
     <g id="line2d_15">
      <g>
       <use style="stroke:#000000;stroke-width:1.875;" x="53.116875" xlink:href="#m5639229d7d" y="91.792771"/>
      </g>
     </g>
     <g id="line2d_16">
      <g>
       <use style="stroke:#000000;stroke-width:1.875;" x="387.916875" xlink:href="#mdb6824ce49" y="91.792771"/>
      </g>
     </g>
     <g id="text_9">
      <!-- 10 -->
      <g transform="translate(28.620625 98.061482)scale(0.165 -0.165)">
       <use xlink:href="#DejaVuSans-31"/>
       <use x="63.623047" xlink:href="#DejaVuSans-30"/>
      </g>
     </g>
    </g>
    <g id="ytick_4">
     <g id="line2d_17">
      <g>
       <use style="stroke:#000000;stroke-width:1.875;" x="53.116875" xlink:href="#m5639229d7d" y="26.298795"/>
      </g>
     </g>
     <g id="line2d_18">
      <g>
       <use style="stroke:#000000;stroke-width:1.875;" x="387.916875" xlink:href="#mdb6824ce49" y="26.298795"/>
      </g>
     </g>
     <g id="text_10">
      <!-- 15 -->
      <g transform="translate(28.620625 32.567506)scale(0.165 -0.165)">
       <use xlink:href="#DejaVuSans-31"/>
       <use x="63.623047" xlink:href="#DejaVuSans-35"/>
      </g>
     </g>
    </g>
    <g id="text_11">
     <!-- Lifetime [s] -->
     <defs>
      <path d="M 9.8125 72.90625 
L 19.671875 72.90625 
L 19.671875 8.296875 
L 55.171875 8.296875 
L 55.171875 0 
L 9.8125 0 
z
" id="DejaVuSans-4c"/>
      <path d="M 37.109375 75.984375 
L 37.109375 68.5 
L 28.515625 68.5 
Q 23.6875 68.5 21.796875 66.546875 
Q 19.921875 64.59375 19.921875 59.515625 
L 19.921875 54.6875 
L 34.71875 54.6875 
L 34.71875 47.703125 
L 19.921875 47.703125 
L 19.921875 0 
L 10.890625 0 
L 10.890625 47.703125 
L 2.296875 47.703125 
L 2.296875 54.6875 
L 10.890625 54.6875 
L 10.890625 58.5 
Q 10.890625 67.625 15.140625 71.796875 
Q 19.390625 75.984375 28.609375 75.984375 
z
" id="DejaVuSans-66"/>
      <path d="M 44.28125 53.078125 
L 44.28125 44.578125 
Q 40.484375 46.53125 36.375 47.5 
Q 32.28125 48.484375 27.875 48.484375 
Q 21.1875 48.484375 17.84375 46.4375 
Q 14.5 44.390625 14.5 40.28125 
Q 14.5 37.15625 16.890625 35.375 
Q 19.28125 33.59375 26.515625 31.984375 
L 29.59375 31.296875 
Q 39.15625 29.25 43.1875 25.515625 
Q 47.21875 21.78125 47.21875 15.09375 
Q 47.21875 7.46875 41.1875 3.015625 
Q 35.15625 -1.421875 24.609375 -1.421875 
Q 20.21875 -1.421875 15.453125 -0.5625 
Q 10.6875 0.296875 5.421875 2 
L 5.421875 11.28125 
Q 10.40625 8.6875 15.234375 7.390625 
Q 20.0625 6.109375 24.8125 6.109375 
Q 31.15625 6.109375 34.5625 8.28125 
Q 37.984375 10.453125 37.984375 14.40625 
Q 37.984375 18.0625 35.515625 20.015625 
Q 33.0625 21.96875 24.703125 23.78125 
L 21.578125 24.515625 
Q 13.234375 26.265625 9.515625 29.90625 
Q 5.8125 33.546875 5.8125 39.890625 
Q 5.8125 47.609375 11.28125 51.796875 
Q 16.75 56 26.8125 56 
Q 31.78125 56 36.171875 55.265625 
Q 40.578125 54.546875 44.28125 53.078125 
z
" id="DejaVuSans-73"/>
     </defs>
     <g transform="translate(20.877187 173.045625)rotate(-90)scale(0.18 -0.18)">
      <use xlink:href="#DejaVuSans-4c"/>
      <use x="55.712891" xlink:href="#DejaVuSans-69"/>
      <use x="83.496094" xlink:href="#DejaVuSans-66"/>
      <use x="118.701172" xlink:href="#DejaVuSans-65"/>
      <use x="180.224609" xlink:href="#DejaVuSans-74"/>
      <use x="219.433594" xlink:href="#DejaVuSans-69"/>
      <use x="247.216797" xlink:href="#DejaVuSans-6d"/>
      <use x="344.628906" xlink:href="#DejaVuSans-65"/>
      <use x="406.152344" xlink:href="#DejaVuSans-20"/>
      <use x="437.939453" xlink:href="#DejaVuSans-5b"/>
      <use x="476.953125" xlink:href="#DejaVuSans-73"/>
      <use x="529.052734" xlink:href="#DejaVuSans-5d"/>
     </g>
    </g>
   </g>
   <g id="LineCollection_1">
    <path clip-path="url(#p04d5626cc0)" d="M 92.973048 50.282689 
L 93.263262 50.282689 
" style="fill:none;stroke:#1f77b4;stroke-width:2.25;"/>
    <path clip-path="url(#p04d5626cc0)" d="M 116.043158 90.002166 
L 116.34776 90.002166 
" style="fill:none;stroke:#1f77b4;stroke-width:2.25;"/>
    <path clip-path="url(#p04d5626cc0)" d="M 227.230782 99.173156 
L 236.487492 99.173156 
" style="fill:none;stroke:#1f77b4;stroke-width:2.25;"/>
    <path clip-path="url(#p04d5626cc0)" d="M 269.307119 138.825305 
L 278.571298 138.825305 
" style="fill:none;stroke:#1f77b4;stroke-width:2.25;"/>
    <path clip-path="url(#p04d5626cc0)" d="M 311.380973 172.83327 
L 320.657586 172.83327 
" style="fill:none;stroke:#1f77b4;stroke-width:2.25;"/>
    <path clip-path="url(#p04d5626cc0)" d="M 353.452355 182.749495 
L 362.746346 182.749495 
" style="fill:none;stroke:#1f77b4;stroke-width:2.25;"/>
   </g>
   <g id="LineCollection_2">
    <path clip-path="url(#p04d5626cc0)" d="M 93.118155 63.817548 
L 93.118155 36.74783 
" style="fill:none;stroke:#1f77b4;stroke-width:2.25;"/>
    <path clip-path="url(#p04d5626cc0)" d="M 116.195459 103.114573 
L 116.195459 76.889758 
" style="fill:none;stroke:#1f77b4;stroke-width:2.25;"/>
    <path clip-path="url(#p04d5626cc0)" d="M 231.859137 116.241785 
L 231.859137 82.104527 
" style="fill:none;stroke:#1f77b4;stroke-width:2.25;"/>
    <path clip-path="url(#p04d5626cc0)" d="M 273.939208 146.269985 
L 273.939208 131.380625 
" style="fill:none;stroke:#1f77b4;stroke-width:2.25;"/>
    <path clip-path="url(#p04d5626cc0)" d="M 316.019279 176.18098 
L 316.019279 169.485561 
" style="fill:none;stroke:#1f77b4;stroke-width:2.25;"/>
    <path clip-path="url(#p04d5626cc0)" d="M 358.099351 186.648818 
L 358.099351 178.850172 
" style="fill:none;stroke:#1f77b4;stroke-width:2.25;"/>
   </g>
   <g id="line2d_19">
    <defs>
     <path d="M 0 3 
L 0 -3 
" id="m7d5112f140" style="stroke:#1f77b4;"/>
    </defs>
    <g clip-path="url(#p04d5626cc0)">
     <use style="fill:#1f77b4;stroke:#1f77b4;" x="92.973048" xlink:href="#m7d5112f140" y="50.282689"/>
     <use style="fill:#1f77b4;stroke:#1f77b4;" x="116.043158" xlink:href="#m7d5112f140" y="90.002166"/>
     <use style="fill:#1f77b4;stroke:#1f77b4;" x="227.230782" xlink:href="#m7d5112f140" y="99.173156"/>
     <use style="fill:#1f77b4;stroke:#1f77b4;" x="269.307119" xlink:href="#m7d5112f140" y="138.825305"/>
     <use style="fill:#1f77b4;stroke:#1f77b4;" x="311.380973" xlink:href="#m7d5112f140" y="172.83327"/>
     <use style="fill:#1f77b4;stroke:#1f77b4;" x="353.452355" xlink:href="#m7d5112f140" y="182.749495"/>
    </g>
   </g>
   <g id="line2d_20">
    <g clip-path="url(#p04d5626cc0)">
     <use style="fill:#1f77b4;stroke:#1f77b4;" x="93.263262" xlink:href="#m7d5112f140" y="50.282689"/>
     <use style="fill:#1f77b4;stroke:#1f77b4;" x="116.34776" xlink:href="#m7d5112f140" y="90.002166"/>
     <use style="fill:#1f77b4;stroke:#1f77b4;" x="236.487492" xlink:href="#m7d5112f140" y="99.173156"/>
     <use style="fill:#1f77b4;stroke:#1f77b4;" x="278.571298" xlink:href="#m7d5112f140" y="138.825305"/>
     <use style="fill:#1f77b4;stroke:#1f77b4;" x="320.657586" xlink:href="#m7d5112f140" y="172.83327"/>
     <use style="fill:#1f77b4;stroke:#1f77b4;" x="362.746346" xlink:href="#m7d5112f140" y="182.749495"/>
    </g>
   </g>
   <g id="line2d_21">
    <defs>
     <path d="M 3 0 
L -3 -0 
" id="m609678533b" style="stroke:#1f77b4;"/>
    </defs>
    <g clip-path="url(#p04d5626cc0)">
     <use style="fill:#1f77b4;stroke:#1f77b4;" x="93.118155" xlink:href="#m609678533b" y="63.817548"/>
     <use style="fill:#1f77b4;stroke:#1f77b4;" x="116.195459" xlink:href="#m609678533b" y="103.114573"/>
     <use style="fill:#1f77b4;stroke:#1f77b4;" x="231.859137" xlink:href="#m609678533b" y="116.241785"/>
     <use style="fill:#1f77b4;stroke:#1f77b4;" x="273.939208" xlink:href="#m609678533b" y="146.269985"/>
     <use style="fill:#1f77b4;stroke:#1f77b4;" x="316.019279" xlink:href="#m609678533b" y="176.18098"/>
     <use style="fill:#1f77b4;stroke:#1f77b4;" x="358.099351" xlink:href="#m609678533b" y="186.648818"/>
    </g>
   </g>
   <g id="line2d_22">
    <g clip-path="url(#p04d5626cc0)">
     <use style="fill:#1f77b4;stroke:#1f77b4;" x="93.118155" xlink:href="#m609678533b" y="36.74783"/>
     <use style="fill:#1f77b4;stroke:#1f77b4;" x="116.195459" xlink:href="#m609678533b" y="76.889758"/>
     <use style="fill:#1f77b4;stroke:#1f77b4;" x="231.859137" xlink:href="#m609678533b" y="82.104527"/>
     <use style="fill:#1f77b4;stroke:#1f77b4;" x="273.939208" xlink:href="#m609678533b" y="131.380625"/>
     <use style="fill:#1f77b4;stroke:#1f77b4;" x="316.019279" xlink:href="#m609678533b" y="169.485561"/>
     <use style="fill:#1f77b4;stroke:#1f77b4;" x="358.099351" xlink:href="#m609678533b" y="178.850172"/>
    </g>
   </g>
   <g id="line2d_23">
    <defs>
     <path d="M 0 2.25 
C 0.596707 2.25 1.169055 2.012926 1.59099 1.59099 
C 2.012926 1.169055 2.25 0.596707 2.25 0 
C 2.25 -0.596707 2.012926 -1.169055 1.59099 -1.59099 
C 1.169055 -2.012926 0.596707 -2.25 0 -2.25 
C -0.596707 -2.25 -1.169055 -2.012926 -1.59099 -1.59099 
C -2.012926 -1.169055 -2.25 -0.596707 -2.25 0 
C -2.25 0.596707 -2.012926 1.169055 -1.59099 1.59099 
C -1.169055 2.012926 -0.596707 2.25 0 2.25 
z
" id="maca1c36821" style="stroke:#1f77b4;"/>
    </defs>
    <g clip-path="url(#p04d5626cc0)">
     <use style="fill:#1f77b4;stroke:#1f77b4;" x="93.118155" xlink:href="#maca1c36821" y="50.282689"/>
     <use style="fill:#1f77b4;stroke:#1f77b4;" x="116.195459" xlink:href="#maca1c36821" y="90.002166"/>
     <use style="fill:#1f77b4;stroke:#1f77b4;" x="231.859137" xlink:href="#maca1c36821" y="99.173156"/>
     <use style="fill:#1f77b4;stroke:#1f77b4;" x="273.939208" xlink:href="#maca1c36821" y="138.825305"/>
     <use style="fill:#1f77b4;stroke:#1f77b4;" x="316.019279" xlink:href="#maca1c36821" y="172.83327"/>
     <use style="fill:#1f77b4;stroke:#1f77b4;" x="358.099351" xlink:href="#maca1c36821" y="182.749495"/>
    </g>
   </g>
   <g id="patch_3">
    <path d="M 53.116875 230.64 
L 53.116875 13.2 
" style="fill:none;stroke:#000000;stroke-linecap:square;stroke-linejoin:miter;stroke-width:1.875;"/>
   </g>
   <g id="patch_4">
    <path d="M 387.916875 230.64 
L 387.916875 13.2 
" style="fill:none;stroke:#000000;stroke-linecap:square;stroke-linejoin:miter;stroke-width:1.875;"/>
   </g>
   <g id="patch_5">
    <path d="M 53.116875 230.64 
L 387.916875 230.64 
" style="fill:none;stroke:#000000;stroke-linecap:square;stroke-linejoin:miter;stroke-width:1.875;"/>
   </g>
   <g id="patch_6">
    <path d="M 53.116875 13.2 
L 387.916875 13.2 
" style="fill:none;stroke:#000000;stroke-linecap:square;stroke-linejoin:miter;stroke-width:1.875;"/>
   </g>
  </g>
 </g>
 <defs>
  <clipPath id="p04d5626cc0">
   <rect height="217.44" width="334.8" x="53.116875" y="13.2"/>
  </clipPath>
 </defs>
</svg>
