<?xml version="1.0" encoding="UTF-8" standalone="no"?>
<!-- Created with Inkscape (http://www.inkscape.org/) -->

<svg
   xmlns:i="http://ns.adobe.com/AdobeIllustrator/10.0/"
   xmlns:a="http://ns.adobe.com/AdobeSVGViewerExtensions/3.0/"
   xmlns:dc="http://purl.org/dc/elements/1.1/"
   xmlns:cc="http://creativecommons.org/ns#"
   xmlns:rdf="http://www.w3.org/1999/02/22-rdf-syntax-ns#"
   xmlns:svg="http://www.w3.org/2000/svg"
   xmlns="http://www.w3.org/2000/svg"
   xmlns:sodipodi="http://sodipodi.sourceforge.net/DTD/sodipodi-0.dtd"
   xmlns:inkscape="http://www.inkscape.org/namespaces/inkscape"
   width="12.458171mm"
   height="10.477236mm"
   viewBox="0 0 12.458171 10.477236"
   version="1.1"
   id="svg13460"
   inkscape:version="0.92.3 (2405546, 2018-03-11)"
   sodipodi:docname="gwoptics-pmfiber.svg">
  <defs
     id="defs13454" />
  <sodipodi:namedview
     id="base"
     pagecolor="#ffffff"
     bordercolor="#666666"
     borderopacity="1.0"
     inkscape:pageopacity="0.0"
     inkscape:pageshadow="2"
     inkscape:zoom="5.6"
     inkscape:cx="16.328614"
     inkscape:cy="6.5499676"
     inkscape:document-units="mm"
     inkscape:current-layer="g4975"
     showgrid="false"
     fit-margin-top="0"
     fit-margin-left="0"
     fit-margin-right="0"
     fit-margin-bottom="0"
     inkscape:window-width="2400"
     inkscape:window-height="1271"
     inkscape:window-x="2391"
     inkscape:window-y="-9"
     inkscape:window-maximized="1" />
  <metadata
     id="metadata13457">
    <rdf:RDF>
      <cc:Work
         rdf:about="">
        <dc:format>image/svg+xml</dc:format>
        <dc:type
           rdf:resource="http://purl.org/dc/dcmitype/StillImage" />
        <dc:title></dc:title>
      </cc:Work>
    </rdf:RDF>
  </metadata>
  <g
     inkscape:label="Layer 1"
     inkscape:groupmode="layer"
     id="layer1"
     transform="translate(-100.32369,-127.71972)">
    <g
       style="display:inline;opacity:1;enable-background:new"
       i:rgbTrio="#4F008000FFFF"
       i:dimmedPercent="50"
       i:layer="yes"
       id="g5324"
       transform="matrix(0.26458333,0,0,0.26458333,95.990607,127.59272)">
      <g
         id="g4975">
        <g
           id="g4977"
           style="fill:#0000ff;fill-opacity:1">
          <linearGradient
             y2="0.7295"
             x2="33.064499"
             y1="39.828098"
             x1="33.064499"
             gradientUnits="userSpaceOnUse"
             id="linearGradient5328">
            <stop
               id="stop4980"
               style="stop-color:#0D0F42"
               offset="0" />
            <stop
               id="stop4982"
               style="stop-color:#1B1E89"
               offset="0.3034" />
            <stop
               id="stop4984"
               style="stop-color:#0D0F42"
               offset="1" />
            <a:midPointStop
               style="stop-color:#0D0F42"
               offset="0" />
            <a:midPointStop
               style="stop-color:#0D0F42"
               offset="0.5" />
            <a:midPointStop
               style="stop-color:#1B1E89"
               offset="0.3034" />
            <a:midPointStop
               style="stop-color:#1B1E89"
               offset="0.5" />
            <a:midPointStop
               style="stop-color:#0D0F42"
               offset="1" />
          </linearGradient>
          <path
             inkscape:connector-curvature="0"
             id="path4986"
             d="m 32.179,20.19 c -0.441,6.921 -1.046,16.399 -1.777,17.603 0.034,-0.056 0.184,-0.213 0.423,-0.213 -0.491,0 -0.889,0.503 -0.889,1.124 0,0.621 0.397,1.124 0.889,1.124 1.621,0 2.059,-2.728 3.126,-19.456 0.441,-6.923 1.047,-16.404 1.777,-17.607 -0.033,0.056 -0.183,0.213 -0.422,0.213 0.49,0 0.888,-0.503 0.888,-1.124 0,-0.621 -0.397,-1.124 -0.888,-1.124 -1.621,-0.001 -2.06,2.727 -3.127,19.46 z"
             i:knockout="Off"
             style="fill:#0000ff;fill-opacity:1;stroke:#000000;stroke-width:0.5" />
        </g>
        <g
           id="g4988"
           style="fill:#0000ff;fill-opacity:1">
          <linearGradient
             y2="0.7295"
             x2="50.755901"
             y1="39.828098"
             x1="50.755901"
             gradientUnits="userSpaceOnUse"
             id="linearGradient5335">
            <stop
               id="stop4991"
               style="stop-color:#0D0F42"
               offset="0" />
            <stop
               id="stop4993"
               style="stop-color:#1B1E89"
               offset="0.3034" />
            <stop
               id="stop4995"
               style="stop-color:#0D0F42"
               offset="1" />
            <a:midPointStop
               style="stop-color:#0D0F42"
               offset="0" />
            <a:midPointStop
               style="stop-color:#0D0F42"
               offset="0.5" />
            <a:midPointStop
               style="stop-color:#1B1E89"
               offset="0.3034" />
            <a:midPointStop
               style="stop-color:#1B1E89"
               offset="0.5" />
            <a:midPointStop
               style="stop-color:#0D0F42"
               offset="1" />
          </linearGradient>
          <path
             inkscape:connector-curvature="0"
             id="path4997"
             d="m 49.87,20.19 c -0.441,6.921 -1.046,16.399 -1.777,17.603 0.033,-0.056 0.184,-0.213 0.423,-0.213 -0.491,0 -0.889,0.503 -0.889,1.124 0,0.621 0.397,1.124 0.889,1.124 1.62,0 2.059,-2.728 3.126,-19.456 0.441,-6.923 1.046,-16.404 1.777,-17.607 -0.033,0.056 -0.183,0.213 -0.422,0.213 0.49,0 0.888,-0.503 0.888,-1.124 0,-0.621 -0.397,-1.124 -0.888,-1.124 -1.621,-0.001 -2.059,2.727 -3.127,19.46 z"
             i:knockout="Off"
             style="fill:#0000ff;fill-opacity:1;stroke:#000000;stroke-width:0.5" />
        </g>
        <g
           id="g4999"
           style="fill:#0000ff;fill-opacity:1">
          <linearGradient
             y2="0.7295"
             x2="41.7939"
             y1="39.828098"
             x1="41.7939"
             gradientUnits="userSpaceOnUse"
             id="linearGradient5342">
            <stop
               id="stop5002"
               style="stop-color:#0D0F42"
               offset="0" />
            <stop
               id="stop5004"
               style="stop-color:#1B1E89"
               offset="0.3034" />
            <stop
               id="stop5006"
               style="stop-color:#0D0F42"
               offset="1" />
            <a:midPointStop
               style="stop-color:#0D0F42"
               offset="0" />
            <a:midPointStop
               style="stop-color:#0D0F42"
               offset="0.5" />
            <a:midPointStop
               style="stop-color:#1B1E89"
               offset="0.3034" />
            <a:midPointStop
               style="stop-color:#1B1E89"
               offset="0.5" />
            <a:midPointStop
               style="stop-color:#0D0F42"
               offset="1" />
          </linearGradient>
          <path
             inkscape:connector-curvature="0"
             id="path5008"
             d="m 40.908,20.19 c -0.441,6.921 -1.046,16.399 -1.777,17.603 0.034,-0.056 0.184,-0.213 0.423,-0.213 -0.491,0 -0.889,0.503 -0.889,1.124 0,0.621 0.397,1.124 0.889,1.124 1.621,0 2.059,-2.728 3.126,-19.456 0.441,-6.923 1.047,-16.404 1.777,-17.607 -0.033,0.056 -0.183,0.213 -0.422,0.213 0.49,0 0.888,-0.503 0.888,-1.124 0,-0.621 -0.397,-1.124 -0.888,-1.124 -1.621,-0.001 -2.059,2.727 -3.127,19.46 z"
             i:knockout="Off"
             style="fill:#0000ff;fill-opacity:1;stroke:#000000;stroke-width:0.5" />
        </g>
        <g
           id="g5010"
           style="fill:#0000ff;fill-opacity:1">
          <linearGradient
             y2="0.7295"
             x2="24.334499"
             y1="39.828098"
             x1="24.334499"
             gradientUnits="userSpaceOnUse"
             id="linearGradient5349">
            <stop
               id="stop5013"
               style="stop-color:#0D0F42"
               offset="0" />
            <stop
               id="stop5015"
               style="stop-color:#1B1E89"
               offset="0.3034" />
            <stop
               id="stop5017"
               style="stop-color:#0D0F42"
               offset="1" />
            <a:midPointStop
               style="stop-color:#0D0F42"
               offset="0" />
            <a:midPointStop
               style="stop-color:#0D0F42"
               offset="0.5" />
            <a:midPointStop
               style="stop-color:#1B1E89"
               offset="0.3034" />
            <a:midPointStop
               style="stop-color:#1B1E89"
               offset="0.5" />
            <a:midPointStop
               style="stop-color:#0D0F42"
               offset="1" />
          </linearGradient>
          <path
             inkscape:connector-curvature="0"
             id="path5019"
             d="m 23.448,20.19 c -0.441,6.921 -1.046,16.399 -1.777,17.603 0.034,-0.056 0.184,-0.213 0.423,-0.213 -0.491,0 -0.889,0.503 -0.889,1.124 0,0.621 0.397,1.124 0.889,1.124 1.621,0 2.059,-2.728 3.126,-19.456 0.441,-6.923 1.047,-16.404 1.777,-17.607 -0.033,0.056 -0.183,0.213 -0.422,0.213 0.491,0 0.889,-0.503 0.889,-1.124 0,-0.621 -0.397,-1.124 -0.889,-1.124 -1.621,-0.001 -2.059,2.727 -3.127,19.46 z"
             i:knockout="Off"
             style="fill:#0000ff;fill-opacity:1;stroke:#000000;stroke-width:0.5" />
        </g>
        <g
           id="g5021"
           style="fill:#0000ff;fill-opacity:1">
          <linearGradient
             y2="0.73049998"
             x2="28.5835"
             y1="39.829102"
             x1="28.5835"
             gradientUnits="userSpaceOnUse"
             id="linearGradient13192">
            <stop
               id="stop13168"
               style="stop-color:#1B1E89"
               offset="0" />
            <stop
               id="stop13170"
               style="stop-color:#1E218A"
               offset="0.1556" />
            <stop
               id="stop13172"
               style="stop-color:#282B8F"
               offset="0.2831" />
            <stop
               id="stop13174"
               style="stop-color:#3A3C96"
               offset="0.4006" />
            <stop
               id="stop13176"
               style="stop-color:#5253A0"
               offset="0.5122" />
            <stop
               id="stop13178"
               style="stop-color:#7171AD"
               offset="0.6195" />
            <stop
               id="stop13180"
               style="stop-color:#9696BD"
               offset="0.7223" />
            <stop
               id="stop13182"
               style="stop-color:#ADACC6"
               offset="0.7753" />
            <stop
               id="stop13184"
               style="stop-color:#AAA9C5"
               offset="0.7792" />
            <stop
               id="stop13186"
               style="stop-color:#5D5FA5"
               offset="0.886" />
            <stop
               id="stop13188"
               style="stop-color:#2D3091"
               offset="0.9622" />
            <stop
               id="stop13190"
               style="stop-color:#1B1E89"
               offset="1" />
            <a:midPointStop
               style="stop-color:#1B1E89"
               offset="0" />
            <a:midPointStop
               style="stop-color:#1B1E89"
               offset="0.7464" />
            <a:midPointStop
               style="stop-color:#ADACC6"
               offset="0.7753" />
            <a:midPointStop
               style="stop-color:#ADACC6"
               offset="0.45" />
            <a:midPointStop
               style="stop-color:#1B1E89"
               offset="1" />
          </linearGradient>
          <path
             inkscape:connector-curvature="0"
             id="path5048"
             d="m 25.454,1.854 c 0,0.621 0.397,1.124 0.889,1.124 -0.239,0 -0.389,-0.157 -0.422,-0.213 0.73,1.203 1.336,10.685 1.777,17.607 1.067,16.729 1.505,19.456 3.126,19.456 0.491,0 0.889,-0.503 0.889,-1.124 0,-0.621 -0.397,-1.124 -0.889,-1.124 0.239,0 0.389,0.157 0.422,0.213 C 30.516,36.59 29.911,27.111 29.47,20.19 28.402,3.458 27.964,0.73 26.343,0.73 c -0.491,0 -0.889,0.503 -0.889,1.124 z"
             i:knockout="Off"
             style="fill:#0000ff;fill-opacity:1;stroke:#000000;stroke-width:0.5" />
        </g>
        <g
           id="g5050"
           style="fill:#0000ff;fill-opacity:1">
          <linearGradient
             y2="0.73049998"
             x2="37.313499"
             y1="39.829102"
             x1="37.313499"
             gradientUnits="userSpaceOnUse"
             id="linearGradient13220">
            <stop
               id="stop13196"
               style="stop-color:#1B1E89"
               offset="0" />
            <stop
               id="stop13198"
               style="stop-color:#1E218A"
               offset="0.1556" />
            <stop
               id="stop13200"
               style="stop-color:#282B8F"
               offset="0.2831" />
            <stop
               id="stop13202"
               style="stop-color:#3A3C96"
               offset="0.4006" />
            <stop
               id="stop13204"
               style="stop-color:#5253A0"
               offset="0.5122" />
            <stop
               id="stop13206"
               style="stop-color:#7171AD"
               offset="0.6195" />
            <stop
               id="stop13208"
               style="stop-color:#9696BD"
               offset="0.7223" />
            <stop
               id="stop13210"
               style="stop-color:#ADACC6"
               offset="0.7753" />
            <stop
               id="stop13212"
               style="stop-color:#AAA9C5"
               offset="0.7792" />
            <stop
               id="stop13214"
               style="stop-color:#5D5FA5"
               offset="0.886" />
            <stop
               id="stop13216"
               style="stop-color:#2D3091"
               offset="0.9622" />
            <stop
               id="stop13218"
               style="stop-color:#1B1E89"
               offset="1" />
            <a:midPointStop
               style="stop-color:#1B1E89"
               offset="0" />
            <a:midPointStop
               style="stop-color:#1B1E89"
               offset="0.7464" />
            <a:midPointStop
               style="stop-color:#ADACC6"
               offset="0.7753" />
            <a:midPointStop
               style="stop-color:#ADACC6"
               offset="0.45" />
            <a:midPointStop
               style="stop-color:#1B1E89"
               offset="1" />
          </linearGradient>
          <path
             inkscape:connector-curvature="0"
             id="path5077"
             d="m 34.185,1.854 c 0,0.621 0.397,1.124 0.889,1.124 -0.239,0 -0.389,-0.157 -0.422,-0.213 0.73,1.203 1.336,10.685 1.777,17.607 1.067,16.729 1.505,19.456 3.126,19.456 0.49,0 0.888,-0.503 0.888,-1.124 0,-0.621 -0.397,-1.124 -0.888,-1.124 0.239,0 0.389,0.157 0.422,0.213 C 39.247,36.59 38.642,27.111 38.201,20.19 37.133,3.458 36.694,0.73 35.073,0.73 c -0.491,0 -0.888,0.503 -0.888,1.124 z"
             i:knockout="Off"
             style="fill:#0000ff;fill-opacity:1;stroke:#000000;stroke-width:0.5" />
        </g>
        <g
           id="g5079"
           style="fill:#0000ff;fill-opacity:1">
          <linearGradient
             y2="0.73049998"
             x2="46.274399"
             y1="39.829102"
             x1="46.274399"
             gradientUnits="userSpaceOnUse"
             id="linearGradient13248">
            <stop
               id="stop13224"
               style="stop-color:#1B1E89"
               offset="0" />
            <stop
               id="stop13226"
               style="stop-color:#1E218A"
               offset="0.1556" />
            <stop
               id="stop13228"
               style="stop-color:#282B8F"
               offset="0.2831" />
            <stop
               id="stop13230"
               style="stop-color:#3A3C96"
               offset="0.4006" />
            <stop
               id="stop13232"
               style="stop-color:#5253A0"
               offset="0.5122" />
            <stop
               id="stop13234"
               style="stop-color:#7171AD"
               offset="0.6195" />
            <stop
               id="stop13236"
               style="stop-color:#9696BD"
               offset="0.7223" />
            <stop
               id="stop13238"
               style="stop-color:#ADACC6"
               offset="0.7753" />
            <stop
               id="stop13240"
               style="stop-color:#AAA9C5"
               offset="0.7792" />
            <stop
               id="stop13242"
               style="stop-color:#5D5FA5"
               offset="0.886" />
            <stop
               id="stop13244"
               style="stop-color:#2D3091"
               offset="0.9622" />
            <stop
               id="stop13246"
               style="stop-color:#1B1E89"
               offset="1" />
            <a:midPointStop
               style="stop-color:#1B1E89"
               offset="0" />
            <a:midPointStop
               style="stop-color:#1B1E89"
               offset="0.7464" />
            <a:midPointStop
               style="stop-color:#ADACC6"
               offset="0.7753" />
            <a:midPointStop
               style="stop-color:#ADACC6"
               offset="0.45" />
            <a:midPointStop
               style="stop-color:#1B1E89"
               offset="1" />
          </linearGradient>
          <path
             inkscape:connector-curvature="0"
             id="path5106"
             d="m 43.146,1.854 c 0,0.621 0.397,1.124 0.889,1.124 -0.239,0 -0.389,-0.157 -0.422,-0.213 0.73,1.203 1.336,10.685 1.777,17.607 1.067,16.729 1.505,19.456 3.126,19.456 0.49,0 0.888,-0.503 0.888,-1.124 0,-0.621 -0.397,-1.124 -0.888,-1.124 0.239,0 0.389,0.157 0.422,0.213 C 48.208,36.59 47.603,27.111 47.162,20.19 46.094,3.458 45.655,0.73 44.034,0.73 c -0.491,0 -0.888,0.503 -0.888,1.124 z"
             i:knockout="Off"
             style="fill:#0000ff;fill-opacity:1;stroke:#000000;stroke-width:0.5" />
        </g>
        <g
           id="g5108"
           i:knockout="Off"
           style="fill:#0000ff;fill-opacity:1">
          <g
             id="g5110"
             style="fill:#0000ff;fill-opacity:1">
            <linearGradient
               y2="0.1265"
               x2="18.9102"
               y1="39.829102"
               x1="18.9102"
               gradientUnits="userSpaceOnUse"
               id="linearGradient13276">
              <stop
                 id="stop13252"
                 style="stop-color:#1B1E89"
                 offset="0" />
              <stop
                 id="stop13254"
                 style="stop-color:#1E218A"
                 offset="0.1556" />
              <stop
                 id="stop13256"
                 style="stop-color:#282B8F"
                 offset="0.2831" />
              <stop
                 id="stop13258"
                 style="stop-color:#3A3C96"
                 offset="0.4006" />
              <stop
                 id="stop13260"
                 style="stop-color:#5253A0"
                 offset="0.5122" />
              <stop
                 id="stop13262"
                 style="stop-color:#7171AD"
                 offset="0.6195" />
              <stop
                 id="stop13264"
                 style="stop-color:#9696BD"
                 offset="0.7223" />
              <stop
                 id="stop13266"
                 style="stop-color:#ADACC6"
                 offset="0.7753" />
              <stop
                 id="stop13268"
                 style="stop-color:#AAA9C5"
                 offset="0.7792" />
              <stop
                 id="stop13270"
                 style="stop-color:#5D5FA5"
                 offset="0.886" />
              <stop
                 id="stop13272"
                 style="stop-color:#2D3091"
                 offset="0.9622" />
              <stop
                 id="stop13274"
                 style="stop-color:#1B1E89"
                 offset="1" />
              <a:midPointStop
                 style="stop-color:#1B1E89"
                 offset="0" />
              <a:midPointStop
                 style="stop-color:#1B1E89"
                 offset="0.7464" />
              <a:midPointStop
                 style="stop-color:#ADACC6"
                 offset="0.7753" />
              <a:midPointStop
                 style="stop-color:#ADACC6"
                 offset="0.45" />
              <a:midPointStop
                 style="stop-color:#1B1E89"
                 offset="1" />
            </linearGradient>
            <path
               inkscape:connector-curvature="0"
               id="path5137"
               d="M 22.478,37.701 C 21.764,36.229 21.173,26.987 20.74,20.191 20.717,19.826 20.694,19.475 20.671,19.123 h -4.044 v 2.201 h 2.403 c 1.023,15.873 1.476,18.505 3.065,18.505 0.491,0 0.889,-0.503 0.889,-1.124 -0.002,-0.445 -0.21,-0.821 -0.506,-1.004 z"
               i:knockout="Off"
               style="fill:#0000ff;fill-opacity:1" />
          </g>
          <g
             id="g5139"
             style="fill:#0000ff;fill-opacity:1">
            <path
               inkscape:connector-curvature="0"
               id="path5141"
               d="M 22.478,37.701 C 21.764,36.229 21.173,26.987 20.74,20.191 20.717,19.826 20.694,19.475 20.671,19.123 h -4.044 v 2.201 h 2.403 c 1.023,15.873 1.476,18.505 3.065,18.505 0.491,0 0.889,-0.503 0.889,-1.124 -0.002,-0.445 -0.21,-0.821 -0.506,-1.004 z"
               i:knockout="Off"
               style="fill:#0000ff;fill-opacity:1;stroke:#000000;stroke-width:0.5;stroke-opacity:1" />
          </g>
        </g>
        <g
           id="g5143"
           i:knockout="Off"
           style="fill:#0000ff;fill-opacity:1">
          <g
             id="g5145"
             style="fill:#0000ff;fill-opacity:1">
            <linearGradient
               y2="0.00048828119"
               x2="61.788101"
               y1="39.828098"
               x1="61.788101"
               gradientUnits="userSpaceOnUse"
               id="linearGradient13289">
              <stop
                 id="stop13283"
                 style="stop-color:#0D0F42"
                 offset="0" />
              <stop
                 id="stop13285"
                 style="stop-color:#1B1E89"
                 offset="0.3034" />
              <stop
                 id="stop13287"
                 style="stop-color:#0D0F42"
                 offset="1" />
              <a:midPointStop
                 style="stop-color:#0D0F42"
                 offset="0" />
              <a:midPointStop
                 style="stop-color:#0D0F42"
                 offset="0.5" />
              <a:midPointStop
                 style="stop-color:#1B1E89"
                 offset="0.3034" />
              <a:midPointStop
                 style="stop-color:#1B1E89"
                 offset="0.5" />
              <a:midPointStop
                 style="stop-color:#0D0F42"
                 offset="1" />
            </linearGradient>
            <path
               inkscape:connector-curvature="0"
               id="path5154"
               d="M 63.212,19.123 H 58.9 c -0.022,0.352 -0.045,0.702 -0.068,1.067 -0.434,6.796 -1.024,16.038 -1.738,17.51 -0.297,0.183 -0.505,0.559 -0.505,1.004 0,0.621 0.397,1.124 0.889,1.124 1.59,0 2.042,-2.632 3.064,-18.504 h 2.671 v -2.201 z"
               i:knockout="Off"
               style="fill:#0000ff;fill-opacity:1" />
          </g>
          <g
             id="g5156"
             style="fill:#0000ff;fill-opacity:1">
            <path
               inkscape:connector-curvature="0"
               id="path5158"
               d="M 63.212,19.123 H 58.9 c -0.022,0.352 -0.045,0.702 -0.068,1.067 -0.434,6.796 -1.024,16.038 -1.738,17.51 -0.297,0.183 -0.505,0.559 -0.505,1.004 0,0.621 0.397,1.124 0.889,1.124 1.59,0 2.042,-2.632 3.064,-18.504 h 2.671 v -2.201 z"
               i:knockout="Off"
               style="fill:#0000ff;fill-opacity:1;stroke:#000000;stroke-width:0.5" />
          </g>
        </g>
        <g
           id="g5290"
           style="fill:#0000ff;fill-opacity:1">
          <linearGradient
             y2="0.73049998"
             x2="55.236301"
             y1="39.829102"
             x1="55.236301"
             gradientUnits="userSpaceOnUse"
             id="linearGradient13448">
            <stop
               id="stop13424"
               style="stop-color:#1B1E89"
               offset="0" />
            <stop
               id="stop13426"
               style="stop-color:#1E218A"
               offset="0.1556" />
            <stop
               id="stop13428"
               style="stop-color:#282B8F"
               offset="0.2831" />
            <stop
               id="stop13430"
               style="stop-color:#3A3C96"
               offset="0.4006" />
            <stop
               id="stop13432"
               style="stop-color:#5253A0"
               offset="0.5122" />
            <stop
               id="stop13434"
               style="stop-color:#7171AD"
               offset="0.6195" />
            <stop
               id="stop13436"
               style="stop-color:#9696BD"
               offset="0.7223" />
            <stop
               id="stop13438"
               style="stop-color:#ADACC6"
               offset="0.7753" />
            <stop
               id="stop13440"
               style="stop-color:#AAA9C5"
               offset="0.7792" />
            <stop
               id="stop13442"
               style="stop-color:#5D5FA5"
               offset="0.886" />
            <stop
               id="stop13444"
               style="stop-color:#2D3091"
               offset="0.9622" />
            <stop
               id="stop13446"
               style="stop-color:#1B1E89"
               offset="1" />
            <a:midPointStop
               style="stop-color:#1B1E89"
               offset="0" />
            <a:midPointStop
               style="stop-color:#1B1E89"
               offset="0.7464" />
            <a:midPointStop
               style="stop-color:#ADACC6"
               offset="0.7753" />
            <a:midPointStop
               style="stop-color:#ADACC6"
               offset="0.45" />
            <a:midPointStop
               style="stop-color:#1B1E89"
               offset="1" />
          </linearGradient>
          <path
             inkscape:connector-curvature="0"
             id="path5317"
             d="m 52.107,1.854 c 0,0.621 0.397,1.124 0.889,1.124 -0.239,0 -0.39,-0.157 -0.423,-0.213 0.731,1.203 1.337,10.685 1.778,17.607 1.067,16.729 1.505,19.456 3.126,19.456 0.49,0 0.888,-0.503 0.888,-1.124 0,-0.621 -0.397,-1.124 -0.888,-1.124 0.239,0 0.389,0.157 0.422,0.213 C 57.168,36.59 56.564,27.111 56.123,20.19 55.055,3.458 54.617,0.73 52.996,0.73 c -0.491,0 -0.889,0.503 -0.889,1.124 z"
             i:knockout="Off"
             style="fill:#0000ff;fill-opacity:1;stroke:#000000;stroke-width:0.5" />
        </g>
      </g>
    </g>
  </g>
</svg>
